<?xml version="1.0" standalone="no"?>
  <!DOCTYPE svg PUBLIC "-//W3C//DTD SVG 1.1//EN" "http://www.w3.org/Graphics/SVG/1.1/DTD/svg11.dtd" >
  <svg>
  <metadata>
  Created by font-carrier
  </metadata>
  <defs>
  <font id="TRYGrtsk-Zetta" horiz-adv-x="1039" vert-adv-y="1039" >
    <font-face
      
      font-family="TRY Grtsk Zetta"
      
      font-weight="400"
      
      font-stretch="normal"
      
      units-per-em="1000"
      
      ascent="1000"
      
      descent="-200"
      
    />
      <missing-glyph />

      

      
      <glyph glyph-name="uni41" unicode="&#x41;" d="M389 0L343 186L139 186L93 0L12 0L196 700L292 700L475 0L389 0M325 261L242 597L158 261L325 261Z"  horiz-adv-x="487" vert-adv-y="1000"  />

      
      <glyph glyph-name="uni42" unicode="&#x42;" d="M83 0L83 700L268 700Q313 700 348 687.50Q383 675 407.50 651.50Q432 628 445 594.50Q458 561 458 519Q458 485 450 457.50Q442 430 425.50 408.50Q409 387 385 374Q372 366 357 361Q388 354 411 338Q445 314 461.50 275Q478 236 478 184Q478 126 455 85Q432 44 389 22Q346 0 285 0L83 0M164 320L164 72L274 72Q314 72 340.50 86.50Q367 101 380.50 128.50Q394 156 394 195Q394 232 380.50 260Q367 288 340 304Q313 320 274 320L164 320M164 627L164 392L265 392Q293 392 314 400.50Q335 409 348.50 424.50Q362 440 369 461.50Q376 483 376 509Q376 546 364 572.50Q352 599 327.50 613Q303 627 265 627L164 627Z"  horiz-adv-x="520" vert-adv-y="1000"  />

      
      <glyph glyph-name="uni43" unicode="&#x43;" d="M52 349Q52 418 61.50 474.50Q71 531 90 574.50Q109 618 137 648Q165 678 201.50 693.50Q238 709 282 709Q343 709 386.50 681.50Q430 654 457 599.50Q484 545 494 464L410 447Q403 509 386 550.50Q369 592 343.50 612.50Q318 633 282 633Q254 633 231.50 621.50Q209 610 192 587Q175 564 163.50 529.50Q152 495 146 450Q140 405 140 349Q140 294 145.50 249Q151 204 162.50 169.50Q174 135 191 112Q208 89 230 77.50Q252 66 280 66Q320 66 347 87.50Q374 109 390 151.50Q406 194 413 258L498 242Q486 158 459 102.50Q432 47 388 19Q344-9 280-9Q243-9 212 1.50Q181 12 155.50 33Q130 54 111 84.50Q92 115 78.50 154.50Q65 194 58.50 243Q52 292 52 349Z"  horiz-adv-x="538" vert-adv-y="1000"  />

      
      <glyph glyph-name="uni44" unicode="&#x44;" d="M83 0L83 700L249 700Q301 700 343 685.50Q385 671 416.50 642.50Q448 614 469.50 572Q491 530 501.50 474Q512 418 512 348Q512 279 501.50 223.50Q491 168 469.50 126Q448 84 416.50 56Q385 28 343 14Q301 0 249 0L83 0M249 75Q284 75 312 86Q340 97 361 118.50Q382 140 396 173Q410 206 417 249.50Q424 293 424 348Q424 404 417 448Q410 492 396 525.50Q382 559 361 580.50Q340 602 312 613Q284 624 249 624L169 624L169 75L249 75Z"  horiz-adv-x="564" vert-adv-y="1000"  />

      
      <glyph glyph-name="uni45" unicode="&#x45;" d="M83 0L83 700L407 700L407 624L167 624L167 397L381 397L381 321L167 321L167 75L414 75L414 0L83 0Z"  horiz-adv-x="452" vert-adv-y="1000"  />

      
      <glyph glyph-name="uni46" unicode="&#x46;" d="M83 0L83 700L400 700L400 624L167 624L167 372L376 372L376 296L167 296L167 0L83 0Z"  horiz-adv-x="432" vert-adv-y="1000"  />

      
      <glyph glyph-name="uni47" unicode="&#x47;" d="M284 274L284 343L503 343L503 0L445 0L436 108Q426 82 412 62Q387 27 353.50 9Q320-9 277-9Q235-9 200 6Q165 21 137.50 51Q110 81 91 124Q72 167 62 223.50Q52 280 52 349Q52 419 62 476.50Q72 534 92 577.50Q112 621 141 650Q170 679 207.50 694Q245 709 290 709Q350 709 392 683Q434 657 459.50 605.50Q485 554 496 477L413 461Q406 519 390.50 557Q375 595 349.50 614Q324 633 288 633Q260 633 236.50 622Q213 611 195 588Q177 565 165 531Q153 497 146.50 451.50Q140 406 140 349Q140 292 146 246.50Q152 201 164 167Q176 133 194 110.50Q212 88 235.50 77Q259 66 287 66Q330 66 360.50 92Q391 118 407 167Q422 212 422 274L284 274Z"  horiz-adv-x="560" vert-adv-y="1000"  />

      
      <glyph glyph-name="uni48" unicode="&#x48;" d="M83 0L83 700L169 700L169 398L410 398L410 700L496 700L496 0L410 0L410 322L169 322L169 0L83 0Z"  horiz-adv-x="579" vert-adv-y="1000"  />

      
      <glyph glyph-name="uni49" unicode="&#x49;" d="M83 0L83 700L169 700L169 0L83 0Z"  horiz-adv-x="252" vert-adv-y="1000"  />

      
      <glyph glyph-name="uni4a" unicode="&#x4a;" d="M193 130Q193 94 185 67.50Q177 41 160.50 24Q144 7 119.50-1Q95-9 62-9Q49-9 34.50-7.50Q20-6 9-3L7 69Q12 68 17.50 67.50Q23 67 29 66.50Q35 66 40 66Q65 66 79.50 73Q94 80 100.50 96.50Q107 113 107 140L107 700L193 700L193 130Z"  horiz-adv-x="273" vert-adv-y="1000"  />

      
      <glyph glyph-name="uni4b" unicode="&#x4b;" d="M83 0L83 700L166 700L166 365L409 700L501 700L270 384L512 0L414 0L219 313L166 241L166 0L83 0Z"  horiz-adv-x="509" vert-adv-y="1000"  />

      
      <glyph glyph-name="uni4c" unicode="&#x4c;" d="M83 0L83 700L169 700L169 75L407 75L407 0L83 0Z"  horiz-adv-x="432" vert-adv-y="1000"  />

      
      <glyph glyph-name="uni4d" unicode="&#x4d;" d="M83 0L83 700L184 700L357 248L530 700L627 700L627 0L546 0L546 546L388 139L322 139L164 544L164 0L83 0Z"  horiz-adv-x="710" vert-adv-y="1000"  />

      
      <glyph glyph-name="uni4e" unicode="&#x4e;" d="M83 0L83 700L173 700L416 154L416 700L495 700L495 0L405 0L162 545L162 0L83 0Z"  horiz-adv-x="578" vert-adv-y="1000"  />

      
      <glyph glyph-name="uni4f" unicode="&#x4f;" d="M279-9Q236-9 200.50 5Q165 19 137.50 47Q110 75 91 117.50Q72 160 62 218Q52 276 52 349Q52 422 62 480.50Q72 539 91 582Q110 625 137.50 653Q165 681 200.50 695Q236 709 279 709Q322 709 357.50 695Q393 681 420.50 653Q448 625 467.50 582Q487 539 497 481Q507 423 507 350Q507 277 497 219Q487 161 467.50 118Q448 75 420.50 47Q393 19 357.50 5Q322-9 279-9M279 67Q306 67 328 78Q350 89 366.50 111Q383 133 394.50 167Q406 201 412 246.50Q418 292 418 350Q418 408 412 453.50Q406 499 394.50 533Q383 567 366.50 589Q350 611 328 622Q306 633 279 633Q253 633 231 622Q209 611 192 588.50Q175 566 163.50 532Q152 498 146 452.50Q140 407 140 349Q140 291 146 245.50Q152 200 163.50 166.50Q175 133 192 111Q209 89 231 78Q253 67 279 67Z"  horiz-adv-x="559" vert-adv-y="1000"  />

      
      <glyph glyph-name="uni50" unicode="&#x50;" d="M83 0L83 700L256 700Q308 700 347.50 685Q387 670 414.50 640.50Q442 611 456 568Q470 525 470 468Q470 394 444.50 342.50Q419 291 369.50 265Q320 239 248 239L169 239L169 0L83 0M169 626L169 313L247 313Q293 313 323 330Q353 347 368.50 381.50Q384 416 384 468Q384 521 368.50 556Q353 591 323 608.50Q293 626 247 626L169 626Z"  horiz-adv-x="499" vert-adv-y="1000"  />

      
      <glyph glyph-name="uni51" unicode="&#x51;" d="M279-9Q236-9 200.50 5Q165 19 137.50 47Q110 75 91 117.50Q72 160 62 218Q52 276 52 349Q52 422 62 480.50Q72 539 91 582Q110 625 137.50 653Q165 681 200.50 695Q236 709 279 709Q322 709 357.50 695Q393 681 420.50 653Q448 625 467.50 582Q487 539 497 481Q507 423 507 350Q507 277 497 219Q487 161 468 118Q451 82 430 57L512-82L423-82L368 10Q363 7 358 5Q322-9 279-9M264 191L350 191L382 136Q389 150 395 166Q406 200 412 246Q418 292 418 350Q418 408 412 453.50Q406 499 394.50 533Q383 567 366.50 589Q350 611 328 622Q306 633 279 633Q253 633 231 622Q209 611 192 588.50Q175 566 163.50 532Q152 498 146 452.50Q140 407 140 349Q140 291 146 245.50Q152 200 163.50 166Q175 132 192 110Q209 88 231 77Q253 66 279 66Q306 66 328 77Q330 78 331 79L264 191Z"  horiz-adv-x="559" vert-adv-y="1000"  />

      
      <glyph glyph-name="uni52" unicode="&#x52;" d="M83 0L83 700L272 700Q320 700 356.50 686.50Q393 673 418 646.50Q443 620 455.50 580.50Q468 541 468 490Q468 424 444 378Q420 332 377 309Q358 298 337 293L498 0L403 0L252 280L169 280L169 0L83 0M169 626L169 354L269 354Q293 354 313.50 363Q334 372 349.50 389.50Q365 407 374 432Q383 457 383 490Q383 523 375.50 548.50Q368 574 352.50 591.50Q337 609 315 617.50Q293 626 264 626L169 626Z"  horiz-adv-x="520" vert-adv-y="1000"  />

      
      <glyph glyph-name="uni53" unicode="&#x53;" d="M35 219L116 230Q118 173 134.50 136Q151 99 180.50 81.50Q210 64 249 64Q276 64 296.50 71.50Q317 79 331 93.50Q345 108 352.50 128.50Q360 149 360 176Q360 211 347.50 234Q335 257 312.50 273.50Q290 290 259 303L205 326Q175 339 147.50 356.50Q120 374 98.50 398Q77 422 64.50 454Q52 486 52 526Q52 569 65 603Q78 637 102 660.50Q126 684 161.50 696.50Q197 709 242 709Q304 709 346 685Q388 661 411.50 614.50Q435 568 440 498L359 487Q356 564 325 599.50Q294 635 243 635Q218 635 198 628Q178 621 164 607.50Q150 594 143 575Q136 556 136 531Q136 496 151 472.50Q166 449 193 432Q220 415 254 399L305 377Q348 359 379.50 333.50Q411 308 429 271.50Q447 235 447 181Q447 136 433.50 101Q420 66 394.50 41.50Q369 17 332.50 4Q296-9 249-9Q200-9 162 4Q124 17 97 44.50Q70 72 54.50 115.50Q39 159 35 219Z"  horiz-adv-x="490" vert-adv-y="1000"  />

      
      <glyph glyph-name="uni54" unicode="&#x54;" d="M178 0L178 624L15 624L15 700L427 700L427 624L263 624L263 0L178 0Z"  horiz-adv-x="442" vert-adv-y="1000"  />

      
      <glyph glyph-name="uni55" unicode="&#x55;" d="M480 210Q480 155 467 114Q454 73 428.50 45.50Q403 18 365 4.50Q327-9 277-9Q227-9 189 4.50Q151 18 125 45.50Q99 73 86 114Q73 155 73 210L73 700L159 700L159 202Q159 157 172 127Q185 97 211.50 81.50Q238 66 277 66Q306 66 328 74.50Q350 83 365 100Q380 117 387.50 142.50Q395 168 395 202L395 700L480 700L480 210Z"  horiz-adv-x="554" vert-adv-y="1000"  />

      
      <glyph glyph-name="uni56" unicode="&#x56;" d="M102 700L249 106L396 700L481 700L298 0L198 0L14 700L102 700Z"  horiz-adv-x="495" vert-adv-y="1000"  />

      
      <glyph glyph-name="uni57" unicode="&#x57;" d="M175 0L23 700L109 700L223 154L353 700L435 700L566 150L680 700L767 700L610 0L523 0L393 544L262 0L175 0Z"  horiz-adv-x="790" vert-adv-y="1000"  />

      
      <glyph glyph-name="uni58" unicode="&#x58;" d="M376 0L238 285L108 0L18 0L188 360L26 700L117 700L245 424L370 700L459 700L295 353L468 0L376 0Z"  horiz-adv-x="486" vert-adv-y="1000"  />

      
      <glyph glyph-name="uni59" unicode="&#x59;" d="M197 0L197 270L10 700L99 700L242 363L384 700L470 700L283 270L283 0L197 0Z"  horiz-adv-x="480" vert-adv-y="1000"  />

      
      <glyph glyph-name="uni5a" unicode="&#x5a;" d="M35 619L35 700L400 700L400 619L128 80L400 80L400 0L35 0L35 80L311 619L35 619Z"  horiz-adv-x="430" vert-adv-y="1000"  />

      
      <glyph glyph-name="unic6" unicode="&#xc6;" d="M366 0L366 186L163 186L91 0L10 0L282 700L685 700L685 624L451 624L451 397L659 397L659 321L451 321L451 75L692 75L692 0L366 0M366 261L366 625L332 625L191 261L366 261Z"  horiz-adv-x="730" vert-adv-y="1000"  />

      
      <glyph glyph-name="uni0152" unicode="&#x0152;" d="M377 0L293 0Q248 0 210 13Q172 26 143 53Q114 80 93.50 121.50Q73 163 62.50 219.50Q52 276 52 349Q52 422 62.50 479Q73 536 93.50 577.50Q114 619 143 646.50Q172 674 210 687Q248 700 293 700L696 700L696 624L461 624L461 397L670 397L670 321L461 321L461 75L703 75L703 0L377 0M377 624L293 624Q264 624 239.50 614Q215 604 196.50 583.50Q178 563 165.50 530.50Q153 498 146.50 453Q140 408 140 349Q140 290 146.50 245Q153 200 165.50 168Q178 136 196.50 115Q215 94 239.50 84.50Q264 75 293 75L377 75L377 624Z"  horiz-adv-x="741" vert-adv-y="1000"  />

      
      <glyph glyph-name="uni0141" unicode="&#x0141;" d="M10 261L10 331L83 355L83 700L169 700L169 384L281 421L281 351L169 314L169 75L407 75L407 0L83 0L83 285L10 261Z"  horiz-adv-x="432" vert-adv-y="1000"  />

      
      <glyph glyph-name="unid8" unicode="&#xd8;" d="M67 0L109 83Q99 99 91 118Q72 160 62 218Q52 276 52 349Q52 422 62 480.50Q72 539 91 582Q110 625 137.50 653Q165 681 200.50 695Q236 709 279 709Q322 709 358 695Q384 684 407 666L424 700L492 700L449 616Q459 601 468 582Q487 539 497 481Q507 423 507 350Q507 277 497 219Q487 161 467.50 118Q448 75 420.50 47Q393 19 357.50 5Q322-9 279-9Q236-9 201 5Q174 16 151 34L134 0L67 0M279 66Q306 66 328 77Q350 88 366.50 110Q383 132 394.50 166Q406 200 412 246Q418 292 418 350Q418 408 412 454Q407 489 399 518L191 111Q191 111 192 110Q209 88 231 77Q253 66 279 66M159 180L367 588Q367 589 367 589Q350 611 328 622Q306 633 279 633Q253 633 231 622Q209 611 192 588.50Q175 566 163.50 532Q152 498 146 452.50Q140 407 140 349Q140 291 146 246Q151 209 159 180Z"  horiz-adv-x="559" vert-adv-y="1000"  />

      
      <glyph glyph-name="unid0" unicode="&#xd0;" d="M10 316L10 383L83 383L83 700L249 700Q301 700 343 685.50Q385 671 416.50 642.50Q448 614 469.50 572Q491 530 501.50 474Q512 418 512 348Q512 279 501.50 223.50Q491 168 469.50 126Q448 84 416.50 56Q385 28 343 14Q301 0 249 0L83 0L83 316L10 316M249 75Q284 75 312 86Q340 97 361 118.50Q382 140 396 173Q410 206 417 249.50Q424 293 424 348Q424 404 417 448Q410 492 396 525.50Q382 559 361 580.50Q340 602 312 613Q284 624 249 624L169 624L169 383L281 383L281 316L169 316L169 75L249 75Z"  horiz-adv-x="564" vert-adv-y="1000"  />

      
      <glyph glyph-name="unide" unicode="&#xde;" d="M83 0L83 700L169 700L169 586L256 586Q308 586 347.50 571Q387 556 414.50 527Q442 498 456 455Q470 412 470 355Q470 281 444.50 229.50Q419 178 369.50 152Q320 126 248 126L169 126L169 0L83 0M169 512L169 200L247 200Q293 200 323 217Q353 234 368.50 268.50Q384 303 384 355Q384 408 368.50 443Q353 478 323 495Q293 512 247 512L169 512Z"  horiz-adv-x="499" vert-adv-y="1000"  />

      
      <glyph glyph-name="uni0191" unicode="&#x0191;" d="M83 700L400 700L400 624L167 624L167 372L376 372L376 296L167 296L167-59Q167-111 153.50-144Q140-177 112-193Q84-209 39-209Q26-209 10-207.50Q-6-206-17-203L-19-131Q-11-132-2.50-133Q6-134 14-134Q39-134 54-127Q69-120 76-103.50Q83-87 83-59L83 700Z"  horiz-adv-x="432" vert-adv-y="1000"  />

      
      <glyph glyph-name="uni1E9E" unicode="&#x1E9E;" d="M72 0L72 488Q72 561 101 610Q130 659 182.50 684Q235 709 305 709Q335 709 365.50 706.50Q396 704 426 700.50Q456 697 486 693L486 623L369 413L411 394Q466 369 499 338Q532 307 546.50 269Q561 231 561 186Q561 141 546 105Q531 69 503.50 43.50Q476 18 437 4.50Q398-9 349-9Q325-9 300.50-4.50Q276 0 252.50 9.50Q229 19 208 35L243 101Q260 89 278.50 81Q297 73 316 69.50Q335 66 354 66Q377 66 395.50 71.50Q414 77 429 87Q444 97 454 111.50Q464 126 469.50 145Q475 164 475 186Q475 210 469 230.50Q463 251 450.50 268.50Q438 286 416.50 300.50Q395 315 365 327L289 357L289 417L403 628Q398 628 394 629Q372 632 351 634Q330 636 307 636Q260 636 226.50 620.50Q193 605 175.50 573.50Q158 542 158 494L158 0L72 0Z"  horiz-adv-x="579" vert-adv-y="1000"  />

      
      <glyph glyph-name="uni61" unicode="&#x61;" d="M45 377Q49 420 61 453Q73 486 93.50 508Q114 530 144 541.50Q174 553 214 553Q253 553 281.50 543Q310 533 329 512.50Q348 492 357.50 461Q367 430 367 388L367 86Q367 76 370 70Q373 64 378 61Q383 58 389 58L396 58Q398 58 402 59L400-1Q387-5 378.50-6Q370-7 358-7Q333-7 317 2Q301 11 294 30Q288 46 287 67Q274 44 258 27Q239 9 215.50 0Q192-9 164-9Q123-9 93.50 9Q64 27 48.50 60Q33 93 33 139Q33 186 50.50 220.50Q68 255 102.50 278Q137 301 188 313L287 336L287 384Q287 410 282.50 429.50Q278 449 268.50 461.50Q259 474 244.50 480Q230 486 210 486Q179 486 160 472.50Q141 459 131.50 433Q122 407 120 368L45 377M287 273L212 255Q177 247 155 231.50Q133 216 123.50 194.50Q114 173 114 145Q114 115 123 95.50Q132 76 148.50 66.50Q165 57 187 57Q206 57 221.50 64.50Q237 72 249.50 86Q262 100 270 120Q278 140 282.50 166Q287 192 287 223L287 273Z"  horiz-adv-x="430" vert-adv-y="1000"  />

      
      <glyph glyph-name="uni62" unicode="&#x62;" d="M134 0L66 0L66 750L147 750L147 462Q150 469 154 475Q174 512 204.50 532.50Q235 553 275 553Q305 553 329 541.50Q353 530 371.50 507Q390 484 402 450Q414 416 420.50 371.50Q427 327 427 272Q427 217 420.50 172Q414 127 402 93.50Q390 60 371.50 37Q353 14 329 2.50Q305-9 275-9Q235-9 204.50 11Q174 31 154 69Q147 80 142 93L134 0M245 64Q264 64 280 72Q296 80 307.50 96.50Q319 113 327 138Q335 163 339 196.50Q343 230 343 272Q343 314 339 348Q335 382 327.50 407Q320 432 308.50 448.50Q297 465 281.50 473.50Q266 482 246 482Q214 482 192 455.50Q170 429 158.50 381.50Q147 334 147 271Q147 225 153.50 187Q160 149 172.50 121.50Q185 94 203 79Q221 64 245 64Z"  horiz-adv-x="472" vert-adv-y="1000"  />

      
      <glyph glyph-name="uni63" unicode="&#x63;" d="M397 355L321 344Q317 393 306 424.50Q295 456 276.50 471Q258 486 230 486Q209 486 193 478Q177 470 165 453.50Q153 437 145 411Q137 385 133 350.50Q129 316 129 271Q129 227 133 192Q137 157 144.50 132Q152 107 164 90.50Q176 74 192 66Q208 58 229 58Q256 58 275 73.50Q294 89 306 120.50Q318 152 323 201L400 189Q392 124 370 80Q348 36 312 13.50Q276-9 226-9Q190-9 161 2Q132 13 110 35.50Q88 58 73.50 91.50Q59 125 52 170Q45 215 45 271Q45 327 52.50 372.50Q60 418 74.50 451.50Q89 485 111 507.50Q133 530 163 541.50Q193 553 230 553Q280 553 314 531.50Q348 510 368.50 466Q389 422 397 355Z"  horiz-adv-x="432" vert-adv-y="1000"  />

      
      <glyph glyph-name="uni64" unicode="&#x64;" d="M324 750L405 750L405 0L337 0L329 92Q324 79 318 68Q298 31 268.50 11Q239-9 200-9Q169-9 144.50 2.50Q120 14 101.50 36.50Q83 59 70.50 93Q58 127 51.50 172Q45 217 45 272Q45 327 51.50 372Q58 417 70.50 451Q83 485 101.50 507.50Q120 530 144.50 541.50Q169 553 200 553Q239 553 269 533.50Q299 514 319 477Q322 472 324 467L324 750M229 64Q260 64 281 90Q302 116 313 163Q324 210 324 271Q324 318 318 357Q312 396 300 424Q288 452 270 467Q252 482 229 482Q209 482 192.50 474Q176 466 164 449.50Q152 433 144.50 408Q137 383 133 349Q129 315 129 272Q129 230 133 196.50Q137 163 145 138Q153 113 165 96.50Q177 80 193 72Q209 64 229 64Z"  horiz-adv-x="472" vert-adv-y="1000"  />

      
      <glyph glyph-name="uni65" unicode="&#x65;" d="M232-9Q194-9 164 2.50Q134 14 111 36.50Q88 59 72.50 93.50Q57 128 49.50 173.50Q42 219 42 277Q42 331 49.50 375Q57 419 72 452.50Q87 486 109 508Q131 530 161 541.50Q191 553 228 553Q272 553 304.50 537Q337 521 359.50 489Q382 457 393 409.50Q404 362 404 299Q404 289 403 275Q402 261 400 250L126 250Q127 220 130 196Q134 160 142.50 134Q151 108 163.50 91Q176 74 193 66Q210 58 232 58Q260 58 279.50 70.50Q299 83 311 108.50Q323 134 327 173L403 162Q397 107 375.50 69Q354 31 318.50 11Q283-9 232-9M127 319L323 319Q323 358 317 388Q311 420 299 442Q287 464 269.50 475Q252 486 229 486Q208 486 191 478Q174 470 162 453.50Q150 437 142 412Q134 387 130 354Q128 337 127 319Z"  horiz-adv-x="441" vert-adv-y="1000"  />

      
      <glyph glyph-name="uni66" unicode="&#x66;" d="M80 600Q80 656 95 691Q110 726 140.50 742.50Q171 759 216 759Q227 759 240 757.50Q253 756 264 753L261 681Q256 682 250 683Q244 684 238 684.50Q232 685 227 685Q205 685 190.50 677Q176 669 168.50 651.50Q161 634 161 605L161 544L258 544L258 475L161 475L161 0L80 0L80 475L18 475L18 544L80 544L80 600Z"  horiz-adv-x="266" vert-adv-y="1000"  />

      
      <glyph glyph-name="uni67" unicode="&#x67;" d="M207 553Q245 553 276 541Q302 531 321 512Q338 536 360 550Q390 569 427 564L424 484Q397 489 374 484Q361 480 350 474Q355 463 359 452Q370 419 370 378Q370 338 359 305.50Q348 273 327 251Q306 229 275.50 217Q245 205 207 205Q181 205 158 211Q141 206 132 195Q118 180 118 157Q118 140 125.50 129Q133 118 146.50 112Q160 106 179 105L269 101Q320 99 355.50 82.50Q391 66 409.50 36Q428 6 428-39Q428-79 412.50-110.50Q397-142 368-164Q339-186 298.50-197.50Q258-209 208-209Q159-209 122-199.50Q85-190 60-172.50Q35-155 22.50-129.50Q10-104 10-71Q10-36 24.50-10Q39 16 69 33Q84 42 103 48Q96 50 90 54Q68 65 56.50 86Q45 107 45 136Q45 162 54.50 182.50Q64 203 84 217Q95 226 111 231Q98 240 87 251Q66 273 55 305.50Q44 338 44 378Q44 419 55 451.50Q66 484 87 506.50Q108 529 138.50 541Q169 553 207 553M187 29Q156 29 133 18Q109 7 96.50-13Q84-33 84-61Q84-81 92-97Q100-113 116-124Q132-135 155.50-140.50Q179-146 209-146Q240-146 265.50-140.50Q291-135 309.50-123.50Q328-112 338.50-95Q349-78 349-56Q349-14 324.50 5.50Q300 25 254 26L187 29M291 378Q291 406 285.50 427Q280 448 269.50 462Q259 476 243.50 483Q228 490 207 490Q186 490 170.50 483Q155 476 144.50 462Q134 448 128.50 427Q123 406 123 378Q123 342 132.50 317.50Q142 293 161 280.50Q180 268 207 268Q235 268 253.50 280.50Q272 293 281.50 317.50Q291 342 291 378Z"  horiz-adv-x="428" vert-adv-y="1000"  />

      
      <glyph glyph-name="uni68" unicode="&#x68;" d="M66 0L66 750L147 750L147 472Q162 499 182 517Q202 535 227 544Q252 553 280 553Q321 553 350.50 534.50Q380 516 395.50 479.50Q411 443 411 389L411 0L329 0L329 371Q329 406 320.50 429Q312 452 295 463.50Q278 475 252 475Q230 475 211 465.50Q192 456 177.50 437.50Q163 419 155 391.50Q147 364 147 328L147 0L66 0Z"  horiz-adv-x="474" vert-adv-y="1000"  />

      
      <glyph glyph-name="uni69" unicode="&#x69;" d="M66 0L66 544L147 544L147 0L66 0M62 628L62 727L151 727L151 628L62 628Z"  horiz-adv-x="214" vert-adv-y="1000"  />

      
      <glyph glyph-name="uni6a" unicode="&#x6a;" d="M66-71L66 544L147 544L147-71Q147-118 135-148.50Q123-179 97.50-194Q72-209 31-209Q23-209 12-207.50Q1-206-7-204L-10-132Q-2-133 5-134Q12-135 18-135Q35-135 45.50-128Q56-121 61-107Q66-93 66-71M62 628L62 727L151 727L151 628L62 628Z"  horiz-adv-x="214" vert-adv-y="1000"  />

      
      <glyph glyph-name="uni6b" unicode="&#x6b;" d="M66 0L66 750L145 750L145 301L318 544L404 544L231 308L419 0L329 0L180 243L145 190L145 0L66 0Z"  horiz-adv-x="419" vert-adv-y="1000"  />

      
      <glyph glyph-name="uni6c" unicode="&#x6c;" d="M147 0L66 0L66 750L147 750L147 0Z"  horiz-adv-x="214" vert-adv-y="1000"  />

      
      <glyph glyph-name="uni6d" unicode="&#x6d;" d="M66 0L66 544L134 544L141 466Q155 495 175 514Q195 533 220 543Q245 553 273 553Q302 553 324 543Q346 533 362 513Q378 493 386 463Q397 485 410.50 501.50Q424 518 441.50 529.50Q459 541 479 547Q499 553 521 553Q549 553 571.50 543Q594 533 609.50 512.50Q625 492 633.50 462.50Q642 433 642 394L642 0L560 0L560 371Q560 406 552 429Q544 452 528 463.50Q512 475 487 475Q466 475 449 465.50Q432 456 419.50 437.50Q407 419 400.50 393Q394 367 394 333L394 0L313 0L313 371Q313 406 305 429Q297 452 280.50 463.50Q264 475 240 475Q220 475 203 465.50Q186 456 173.50 437.50Q161 419 154 393Q147 367 147 333L147 0L66 0Z"  horiz-adv-x="705" vert-adv-y="1000"  />

      
      <glyph glyph-name="uni6e" unicode="&#x6e;" d="M66 0L66 544L134 544L141 461Q155 491 176 511.50Q197 532 223.50 542.50Q250 553 280 553Q321 553 350.50 534.50Q380 516 395.50 479.50Q411 443 411 389L411 0L329 0L329 371Q329 406 320.50 429Q312 452 295 463.50Q278 475 252 475Q230 475 211 465.50Q192 456 177.50 437.50Q163 419 155 391.50Q147 364 147 328L147 0L66 0Z"  horiz-adv-x="474" vert-adv-y="1000"  />

      
      <glyph glyph-name="uni6f" unicode="&#x6f;" d="M225-9Q189-9 160 2.50Q131 14 109.50 36Q88 58 73.50 92Q59 126 52 170.50Q45 215 45 271Q45 327 52 372Q59 417 73.50 451Q88 485 109.50 507.50Q131 530 160 541.50Q189 553 225 553Q261 553 290 541.50Q319 530 341 507.50Q363 485 377.50 451.50Q392 418 399 373Q406 328 406 272Q406 216 399 171Q392 126 377.50 92.50Q363 59 341 36.50Q319 14 290 2.50Q261-9 225-9M225 58Q245 58 260.50 66Q276 74 287.50 90.50Q299 107 306.50 132.50Q314 158 318 193Q322 228 322 272Q322 316 318 351Q314 386 306.50 411.50Q299 437 287.50 453.50Q276 470 260.50 478Q245 486 225 486Q206 486 190.50 478Q175 470 163.50 453.50Q152 437 144 411Q136 385 132.50 350.50Q129 316 129 271Q129 227 132.50 192.50Q136 158 144 132.50Q152 107 163.50 90.50Q175 74 190.50 66Q206 58 225 58Z"  horiz-adv-x="451" vert-adv-y="1000"  />

      
      <glyph glyph-name="uni70" unicode="&#x70;" d="M134 544L142 448Q148 463 155 475Q175 512 205.50 532.50Q236 553 275 553Q305 553 329 541.50Q353 530 371.50 507.50Q390 485 402.50 451Q415 417 421 372.50Q427 328 427 272Q427 217 421 172Q415 127 402.50 93Q390 59 371.50 36.50Q353 14 329 2.50Q305-9 275-9Q235-9 204.50 11Q174 31 154 68Q150 74 147 81L147-200L66-200L66 544L134 544M245 64Q265 64 280.50 72Q296 80 308 96.50Q320 113 327.50 138Q335 163 339 196.50Q343 230 343 272Q343 315 339 349Q335 383 327.50 408Q320 433 308.50 449.50Q297 466 281.50 474Q266 482 246 482Q214 482 192 455.50Q170 429 158.50 381.50Q147 334 147 271Q147 225 153.50 187Q160 149 172.50 121.50Q185 94 203 79Q221 64 245 64Z"  horiz-adv-x="472" vert-adv-y="1000"  />

      
      <glyph glyph-name="uni71" unicode="&#x71;" d="M337 544L405 544L405-200L324-200L324 80Q321 74 318 68Q298 31 268.50 11Q239-9 200-9Q169-9 144.50 2.50Q120 14 101.50 36.50Q83 59 70.50 93Q58 127 51.50 172Q45 217 45 272Q45 327 51.50 372Q58 417 70.50 451Q83 485 101.50 507.50Q120 530 144.50 541.50Q169 553 200 553Q238 553 267.50 533.50Q297 514 318 477Q324 465 329 452L337 544M229 64Q252 64 270 79Q288 94 300 121.50Q312 149 318 187Q324 225 324 271Q324 334 313 381.50Q302 429 281 455.50Q260 482 229 482Q209 482 192.50 474Q176 466 164 449.50Q152 433 144.50 408Q137 383 133 349Q129 315 129 272Q129 230 133 196.50Q137 163 145 138Q153 113 165 96.50Q177 80 193 72Q209 64 229 64Z"  horiz-adv-x="472" vert-adv-y="1000"  />

      
      <glyph glyph-name="uni72" unicode="&#x72;" d="M66 0L66 544L134 544L144 434Q154 464 169 487Q188 518 214 535.50Q240 553 271 553Q273 553 276 552.50Q279 552 280 552L277 456Q273 458 269 458L260 458Q240 458 222.50 450Q205 442 191 426.50Q177 411 167 389Q157 367 152 339Q147 311 147 278L147 0L66 0Z"  horiz-adv-x="289" vert-adv-y="1000"  />

      
      <glyph glyph-name="uni73" unicode="&#x73;" d="M194 486Q170 486 152.50 477Q135 468 126 451.50Q117 435 117 412Q117 388 125.50 371.50Q134 355 150.50 343.50Q167 332 192 322L244 300Q278 286 303.50 265.50Q329 245 343 215.50Q357 186 357 143Q357 95 337.50 61Q318 27 282.50 9Q247-9 199-9Q147-9 110 10.50Q73 30 53 70.50Q33 111 30 172L102 184Q102 124 127 91Q152 58 200 58Q218 58 233 63.50Q248 69 258.50 79Q269 89 275 104Q281 119 281 138Q281 162 272.50 179.50Q264 197 249 209.50Q234 222 212 231L160 253Q126 267 99 286.50Q72 306 56 335.50Q40 365 40 407Q40 452 59 485Q78 518 112.50 535.50Q147 553 194 553Q242 553 275 534.50Q308 516 326.50 478Q345 440 347 382L276 371Q276 410 266.50 435.50Q257 461 239 473.50Q221 486 194 486Z"  horiz-adv-x="387" vert-adv-y="1000"  />

      
      <glyph glyph-name="uni74" unicode="&#x74;" d="M76 116L76 475L12 475L12 544L51 544Q63 544 70.50 547.50Q78 551 82.50 564Q87 577 89 605Q91 633 93 682L157 682L157 544L260 544L260 475L157 475L157 133Q157 111 162.50 95Q168 79 182.50 70.50Q197 62 223 62Q230 62 237.50 62.50Q245 63 253 64Q261 65 268 66L265-2Q255-4 243.50-5.50Q232-7 221-7.50Q210-8 198-8Q168-8 145.50-1Q123 6 107.50 21Q92 36 84 59.50Q76 83 76 116Z"  horiz-adv-x="279" vert-adv-y="1000"  />

      
      <glyph glyph-name="uni75" unicode="&#x75;" d="M398 544L398 0L330 0L322 74Q313 54 300 38.50Q287 23 271 12.50Q255 2 236-3.50Q217-9 195-9Q165-9 140.50 1Q116 11 98.50 31Q81 51 71.50 80Q62 109 62 148L62 544L144 544L144 169Q144 144 148.50 125.50Q153 107 163 94.50Q173 82 187.50 75.50Q202 69 221 69Q239 69 254 75.50Q269 82 280.50 95.50Q292 109 300.50 128Q309 147 313 171.50Q317 196 317 226L317 544L398 544Z"  horiz-adv-x="465" vert-adv-y="1000"  />

      
      <glyph glyph-name="uni76" unicode="&#x76;" d="M150 0L11 544L92 544L194 117L302 544L380 544L232 0L150 0Z"  horiz-adv-x="391" vert-adv-y="1000"  />

      
      <glyph glyph-name="uni77" unicode="&#x77;" d="M130 0L12 544L89 544L170 124L268 544L338 544L433 119L520 544L594 544L469 0L397 0L302 422L202 0L130 0Z"  horiz-adv-x="606" vert-adv-y="1000"  />

      
      <glyph glyph-name="uni78" unicode="&#x78;" d="M296 0L190 218L91 0L11 0L144 283L15 544L99 544L194 344L285 544L366 544L239 281L379 0L296 0Z"  horiz-adv-x="390" vert-adv-y="1000"  />

      
      <glyph glyph-name="uni79" unicode="&#x79;" d="M304 544L384 544L220-67Q210-106 197.50-133.50Q185-161 169-177.50Q153-194 132-201.50Q111-209 83-209Q73-209 63-207.50Q53-206 42-203L39-132Q46-133 53.50-134Q61-135 70-135Q88-135 100.50-129.50Q113-124 122.50-111.50Q132-99 141-77.50Q150-56 160-24L165-9L10 544L94 544L203 121L304 544Z"  horiz-adv-x="394" vert-adv-y="1000"  />

      
      <glyph glyph-name="uni7a" unicode="&#x7a;" d="M30 475L30 544L318 544L318 475L105 68L317 68L317 0L22 0L22 68L237 475L30 475Z"  horiz-adv-x="338" vert-adv-y="1000"  />

      
      <glyph glyph-name="unie6" unicode="&#xe6;" d="M179-9Q146-9 119.50 1Q93 11 74.50 30.50Q56 50 46.50 77.50Q37 105 37 139Q37 186 54.50 220.50Q72 255 106.50 278Q141 301 192 313L291 336L291 384Q291 410 286.50 429.50Q282 449 272.50 461.50Q263 474 248.50 480Q234 486 214 486Q183 486 164 472.50Q145 459 135.50 433Q126 407 124 368L49 377Q53 420 65 453Q77 486 97.50 508Q118 530 148 541.50Q178 553 218 553Q245 553 267 547Q289 541 306.50 529.50Q324 518 336 500Q341 491 345 482Q351 492 359 501Q374 519 392.50 530.50Q411 542 432.50 547.50Q454 553 477 553Q521 553 553.50 537Q586 521 608.50 489Q631 457 642 409.50Q653 362 653 299Q653 289 652 275Q651 261 649 250L375 250Q376 220 379 196Q383 160 391.50 134Q400 108 412.50 91Q425 74 442 66Q459 58 481 58Q508 58 527.50 70.50Q547 83 559.50 108.50Q572 134 576 173L652 162Q646 107 624.50 69Q603 31 567.50 11Q532-9 481-9Q453-9 428-1.50Q403 6 382 22.50Q361 39 346 65Q338 78 331 94Q324 79 316 66Q300 40 278.50 23.50Q257 7 231.50-1Q206-9 179-9M291 273L216 255Q181 247 159 231.50Q137 216 127.50 194.50Q118 173 118 145Q118 115 127 95.50Q136 76 152.50 66.50Q169 57 191 57Q215 57 233.50 68.50Q252 80 265 101.50Q278 123 284.50 153.50Q291 184 291 223L291 273M376 319L572 319Q572 358 566 388Q560 420 548 442Q536 464 518.50 475Q501 486 478 486Q457 486 440 478Q423 470 411 453.50Q399 437 391 412Q383 387 379 354Q377 337 376 319Z"  horiz-adv-x="690" vert-adv-y="1000"  />

      
      <glyph glyph-name="uni0153" unicode="&#x0153;" d="M225-9Q189-9 160 2.50Q131 14 109.50 36Q88 58 73.50 92Q59 126 52 170.50Q45 215 45 271Q45 327 52 372Q59 417 73.50 451Q88 485 109.50 507.50Q131 530 160 541.50Q189 553 225 553Q264 553 293.50 539Q323 525 344 498Q356 481 366 459Q372 472 379 484Q393 506 412.50 521.50Q432 537 456.50 545Q481 553 510 553Q554 553 586.50 537Q619 521 641.50 489Q664 457 675 409.50Q686 362 686 299Q686 285 685 273Q684 261 682 250L408 250Q409 220 412 196Q416 160 424.50 134Q433 108 445.50 91Q458 74 475 66Q492 58 514 58Q541 58 560.50 70.50Q580 83 592.50 108.50Q605 134 609 173L685 162Q679 107 657.50 69Q636 31 600.50 11Q565-9 514-9Q488-9 464-2.50Q440 4 419.50 19Q399 34 383 57Q374 70 367 86Q360 71 352 58Q336 34 316.50 19.50Q297 5 274-2Q251-9 225-9M225 58Q245 58 260.50 66Q276 74 287.50 90.50Q299 107 306.50 132.50Q314 158 318 193Q322 228 322 272Q322 316 318 351Q314 386 306.50 411.50Q299 437 287.50 453.50Q276 470 260.50 478Q245 486 225 486Q206 486 190.50 478Q175 470 163.50 453.50Q152 437 144 411.50Q136 386 132.50 351Q129 316 129 271Q129 227 132.50 192.50Q136 158 144 132.50Q152 107 163.50 90.50Q175 74 190.50 66Q206 58 225 58M409 319L605 319Q605 358 599 388Q593 420 581 442Q569 464 551.50 475Q534 486 511 486Q490 486 473 478Q456 470 444 453.50Q432 437 424 412Q416 387 412 354Q410 337 409 319Z"  horiz-adv-x="723" vert-adv-y="1000"  />

      
      <glyph glyph-name="uni0142" unicode="&#x0142;" d="M9 291L9 361L85 392L85 750L167 750L167 424L243 455L243 384L167 354L167 0L85 0L85 321L9 291Z"  horiz-adv-x="252" vert-adv-y="1000"  />

      
      <glyph glyph-name="unif8" unicode="&#xf8;" d="M50 0L86 68Q79 79 74 92Q59 126 52 170.50Q45 215 45 271Q45 327 52 372Q59 417 73.50 451Q88 485 109.50 507.50Q131 530 160 541.50Q189 553 225 553Q261 553 290 542Q310 534 326 521L338 544L403 544L366 474Q372 464 378 452Q392 418 399 373Q406 328 406 272Q406 216 399 171Q392 126 377.50 92.50Q363 59 341 36.50Q319 14 290 2.50Q261-9 225-9Q189-9 160 3Q142 10 126 21L115 0L50 0M133 157L291 456Q291 456 291 456Q279 473 262.50 481Q246 489 225 489Q204 489 188 481Q172 473 160 456Q148 439 140 413Q132 387 128 351.50Q124 316 124 271Q124 226 128 191Q130 173 133 157M225 55Q246 55 262.50 63Q279 71 291 88Q303 105 311 131Q319 157 323 192Q327 227 327 272Q327 317 323 352Q321 369 318 384L161 87Q173 71 188 63Q204 55 225 55Z"  horiz-adv-x="451" vert-adv-y="1000"  />

      
      <glyph glyph-name="unif0" unicode="&#xf0;" d="M226-9Q190-9 161 1.50Q132 12 110.50 32Q89 52 74.50 82Q60 112 52.50 151Q45 190 45 238Q45 287 52 326.50Q59 366 73 396Q87 426 108.50 446Q130 466 158.50 476Q187 486 222 486Q251 486 275 476Q294 467 309 451Q307 460 304 470Q294 502 280 534Q267 562 250 590L132 544L132 614L213 646Q205 656 197 667Q170 702 134 741L214 760Q253 717 283 673L397 718L397 648L318 617Q332 593 343 569Q366 519 380 467Q394 415 401 359Q408 303 408 243Q408 194 400.50 154Q393 114 378.50 83.50Q364 53 342 32.50Q320 12 291 1.50Q262-9 226-9M226 55Q246 55 262 62Q278 69 289.50 83Q301 97 308.50 119Q316 141 320 170.50Q324 200 324 238Q324 276 320 305.50Q316 335 308.50 357Q301 379 289.50 393.50Q278 408 262 415Q246 422 226 422Q201 422 183 411Q165 400 153 377.50Q141 355 135 320Q129 285 129 238Q129 191 135 156.50Q141 122 153 99.50Q165 77 183 66Q201 55 226 55Z"  horiz-adv-x="453" vert-adv-y="1000"  />

      
      <glyph glyph-name="unife" unicode="&#xfe;" d="M147 750L147 460Q151 468 155 475Q175 512 205.50 532.50Q236 553 275 553Q305 553 329 541.50Q353 530 371.50 507.50Q390 485 402.50 451Q415 417 421 372.50Q427 328 427 272Q427 217 421 172Q415 127 402.50 93Q390 59 371.50 36.50Q353 14 329 2.50Q305-9 275-9Q235-9 204.50 11Q174 31 154 68Q150 74 147 81L147-200L66-200L66 750L147 750M245 64Q265 64 280.50 72Q296 80 308 96.50Q320 113 327.50 138Q335 163 339 196.50Q343 230 343 272Q343 315 339 349Q335 383 327.50 408Q320 433 308.50 449.50Q297 466 281.50 474Q266 482 246 482Q214 482 192 455.50Q170 429 158.50 381.50Q147 334 147 271Q147 225 153.50 187Q160 149 172.50 121.50Q185 94 203 79Q221 64 245 64Z"  horiz-adv-x="472" vert-adv-y="1000"  />

      
      <glyph glyph-name="uni0192" unicode="&#x0192;" d="M18 544L80 544L80 600Q80 656 95 691Q110 726 140.50 742.50Q171 759 216 759Q227 759 240 757.50Q253 756 264 753L261 681Q256 682 250 683Q244 684 238 684.50Q232 685 227 685Q205 685 190.50 677Q176 669 168.50 651.50Q161 634 161 605L161 544L258 544L258 475L161 475L161-71Q161-118 149-148.50Q137-179 111.50-194Q86-209 45-209Q37-209 26-207.50Q15-206 7-204L4-132Q12-133 19-134Q26-135 32-135Q49-135 59.50-128Q70-121 75-107Q80-93 80-71L80 475L18 475L18 544Z"  horiz-adv-x="257" vert-adv-y="1000"  />

      
      <glyph glyph-name="unidf" unicode="&#xdf;" d="M66 0L66 574Q66 617 79 651Q92 685 115.50 709Q139 733 172 746Q205 759 246 759Q285 759 316 746Q347 733 368 709Q389 685 400 651Q411 617 411 575Q411 542 403 513.50Q395 485 380.50 464Q366 443 345 430Q336 424 327 420Q339 417 350 412Q374 401 392.50 382.50Q411 364 423.50 338Q436 312 442.50 279Q449 246 449 207Q449 156 435.50 115.50Q422 75 397 47.50Q372 20 337.50 5.50Q303-9 261-9Q247-9 234-7Q221-5 209-1Q197 3 185 8L202 78Q211 74 221 70.50Q231 67 241 65Q251 63 261 63Q286 63 305.50 73Q325 83 338 102Q351 121 358 150Q365 179 365 216Q365 247 360 272.50Q355 298 345.50 318Q336 338 322 351Q308 364 289 371Q270 378 247 378L214 378L214 445L244 445Q261 445 275 450.50Q289 456 299.50 466.50Q310 477 317 492.50Q324 508 327.50 527.50Q331 547 331 570Q331 599 325 621.50Q319 644 307.50 660Q296 676 279.50 684Q263 692 243 692Q222 692 204 684.50Q186 677 173 662.50Q160 648 153 626Q146 604 146 574L146 0L66 0Z"  horiz-adv-x="484" vert-adv-y="1000"  />

      
      <glyph glyph-name="uni0131" unicode="&#x0131;" d="M66 0L66 544L147 544L147 0L66 0Z"  horiz-adv-x="214" vert-adv-y="1000"  />

      
      <glyph glyph-name="uni0237" unicode="&#x0237;" d="M66-71L66 544L147 544L147-71Q147-118 135-148.50Q123-179 97.50-194Q72-209 31-209Q23-209 12-207.50Q1-206-7-204L-10-132Q-2-133 5-134Q12-135 18-135Q44-135 55-119.50Q66-104 66-71Z"  horiz-adv-x="214" vert-adv-y="1000"  />

      
      <glyph glyph-name="unic1" unicode="&#xc1;" d="M389 0L343 186L139 186L93 0L12 0L196 700L292 700L475 0L389 0M325 261L242 597L158 261L325 261M211 764L291 922L386 922L278 764L211 764Z"  horiz-adv-x="487" vert-adv-y="1000"  />

      
      <glyph glyph-name="unic2" unicode="&#xc2;" d="M389 0L343 186L139 186L93 0L12 0L196 700L292 700L475 0L389 0M325 261L242 597L158 261L325 261M243 875L167 764L103 764L195 922L292 922L384 764L319 764L243 875Z"  horiz-adv-x="487" vert-adv-y="1000"  />

      
      <glyph glyph-name="unic4" unicode="&#xc4;" d="M389 0L343 186L139 186L93 0L12 0L196 700L292 700L475 0L389 0M325 261L242 597L158 261L325 261M276 783L276 887L355 887L355 783L276 783M132 783L132 887L211 887L211 783L132 783Z"  horiz-adv-x="487" vert-adv-y="1000"  />

      
      <glyph glyph-name="unic0" unicode="&#xc0;" d="M389 0L343 186L139 186L93 0L12 0L196 700L292 700L475 0L389 0M325 261L242 597L158 261L325 261M277 764L209 764L101 922L196 922L277 764Z"  horiz-adv-x="487" vert-adv-y="1000"  />

      
      <glyph glyph-name="unic5" unicode="&#xc5;" d="M389 0L343 186L139 186L93 0L12 0L196 700L292 700L475 0L389 0M325 261L242 597L158 261L325 261M245 751Q213 751 188.50 763.50Q164 776 151 799Q138 822 138 853Q138 883 151 905.50Q164 928 188.50 940Q213 952 245 952Q277 952 300 940Q323 928 336 905.50Q349 883 349 853Q349 822 336 799Q323 776 300 763.50Q277 751 245 751M245 796Q270 796 284 811Q298 826 298 853Q298 879 284 893.50Q270 908 245 908Q219 908 204 893.50Q189 879 189 853Q189 826 204 811Q219 796 245 796Z"  horiz-adv-x="487" vert-adv-y="1000"  />

      
      <glyph glyph-name="unic3" unicode="&#xc3;" d="M389 0L343 186L139 186L93 0L12 0L196 700L292 700L475 0L389 0M325 261L242 597L158 261L325 261M368 912Q377 855 369.50 823Q362 791 345 778.50Q328 766 307 766Q290 766 276 774.50Q262 783 251 796Q240 809 230.50 822Q221 835 212 843.50Q203 852 193 852Q186 852 180 845.50Q174 839 171.50 821.50Q169 804 174 771L119 771Q111 829 118.50 860.50Q126 892 143 905Q160 918 180 918Q197 918 210.50 909.50Q224 901 235 888Q246 875 256 862.50Q266 850 275 841.50Q284 833 294 833Q299 833 304 836.50Q309 840 312.50 848.50Q316 857 316.50 872.50Q317 888 313 912L368 912Z"  horiz-adv-x="487" vert-adv-y="1000"  />

      
      <glyph glyph-name="uni0102" unicode="&#x0102;" d="M389 0L343 186L139 186L93 0L12 0L196 700L292 700L475 0L389 0M325 261L242 597L158 261L325 261M305 914L370 914Q370 864 356.50 830.50Q343 797 315.50 780.50Q288 764 244 764Q200 764 172 780.50Q144 797 130.50 830.50Q117 864 117 914L182 914Q182 866 197.50 844Q213 822 244 822Q276 822 290.50 844Q305 866 305 914Z"  horiz-adv-x="487" vert-adv-y="1000"  />

      
      <glyph glyph-name="uni0100" unicode="&#x0100;" d="M389 0L343 186L139 186L93 0L12 0L196 700L292 700L475 0L389 0M325 261L242 597L158 261L325 261M127 793L127 860L360 860L360 793L127 793Z"  horiz-adv-x="487" vert-adv-y="1000"  />

      
      <glyph glyph-name="uni0104" unicode="&#x0104;" d="M306-120Q306-103 311.50-84Q317-65 332-45Q347-25 376-5Q382-2 388 2L342 186L138 186L92 0L11 0L195 700L291 700L474 0Q446-15 427-27.50Q408-40 396.50-52Q385-64 380.50-76Q376-88 376-100Q376-122 388.50-132.50Q401-143 426-143Q438-143 449.50-140.50Q461-138 474-134L471-197Q456-203 439.50-206Q423-209 405-209Q358-209 332-186Q306-163 306-120M324 261L241 597L157 261L324 261Z"  horiz-adv-x="486" vert-adv-y="1000"  />

      
      <glyph glyph-name="unic7" unicode="&#xc7;" d="M52 349Q52 418 61.50 474.50Q71 531 90 574.50Q109 618 137 648Q165 678 201.50 693.50Q238 709 282 709Q343 709 386.50 681.50Q430 654 457 599.50Q484 545 494 464L410 447Q403 509 386 550.50Q369 592 343.50 612.50Q318 633 282 633Q254 633 231.50 621.50Q209 610 192 587Q175 564 163.50 529.50Q152 495 146 450Q140 405 140 349Q140 294 145.50 249Q151 204 162.50 169.50Q174 135 191 112Q208 89 230 77.50Q252 66 280 66Q320 66 347 87.50Q374 109 390 151.50Q406 194 413 258L498 242Q486 158 459 102.50Q432 47 388 19Q350-5 298-8L292-58Q293-58 295-57Q310-51 326-51Q362-51 382.50-70.50Q403-90 403-125Q403-153 389.50-171.50Q376-190 351-199.50Q326-209 290-210Q269-210 247.50-207Q226-204 203-199L205-156Q230-162 248.50-164.50Q267-167 284-167Q304-167 317-162.50Q330-158 336.50-148.50Q343-139 343-126Q343-109 334.50-100.50Q326-92 309-92Q299-92 291-95Q283-98 275-104L237-99L248-7Q229-4 212 2Q181 12 155.50 33Q130 54 111 84.50Q92 115 78.50 154.50Q65 194 58.50 243Q52 292 52 349Z"  horiz-adv-x="538" vert-adv-y="1000"  />

      
      <glyph glyph-name="uni0106" unicode="&#x0106;" d="M52 349Q52 418 61.50 474.50Q71 531 90 574.50Q109 618 137 648Q165 678 201.50 693.50Q238 709 282 709Q343 709 386.50 681.50Q430 654 457 599.50Q484 545 494 464L410 447Q403 509 386 550.50Q369 592 343.50 612.50Q318 633 282 633Q254 633 231.50 621.50Q209 610 192 587Q175 564 163.50 529.50Q152 495 146 450Q140 405 140 349Q140 294 145.50 249Q151 204 162.50 169.50Q174 135 191 112Q208 89 230 77.50Q252 66 280 66Q320 66 347 87.50Q374 109 390 151.50Q406 194 413 258L498 242Q486 158 459 102.50Q432 47 388 19Q344-9 280-9Q243-9 212 1.50Q181 12 155.50 33Q130 54 111 84.50Q92 115 78.50 154.50Q65 194 58.50 243Q52 292 52 349M246 764L326 922L421 922L313 764L246 764Z"  horiz-adv-x="538" vert-adv-y="1000"  />

      
      <glyph glyph-name="uni010C" unicode="&#x010C;" d="M52 349Q52 418 61.50 474.50Q71 531 90 574.50Q109 618 137 648Q165 678 201.50 693.50Q238 709 282 709Q343 709 386.50 681.50Q430 654 457 599.50Q484 545 494 464L410 447Q403 509 386 550.50Q369 592 343.50 612.50Q318 633 282 633Q254 633 231.50 621.50Q209 610 192 587Q175 564 163.50 529.50Q152 495 146 450Q140 405 140 349Q140 294 145.50 249Q151 204 162.50 169.50Q174 135 191 112Q208 89 230 77.50Q252 66 280 66Q320 66 347 87.50Q374 109 390 151.50Q406 194 413 258L498 242Q486 158 459 102.50Q432 47 388 19Q344-9 280-9Q243-9 212 1.50Q181 12 155.50 33Q130 54 111 84.50Q92 115 78.50 154.50Q65 194 58.50 243Q52 292 52 349M279 811L355 922L419 922L327 764L230 764L138 922L203 922L279 811Z"  horiz-adv-x="538" vert-adv-y="1000"  />

      
      <glyph glyph-name="uni0108" unicode="&#x0108;" d="M52 349Q52 418 61.50 474.50Q71 531 90 574.50Q109 618 137 648Q165 678 201.50 693.50Q238 709 282 709Q343 709 386.50 681.50Q430 654 457 599.50Q484 545 494 464L410 447Q403 509 386 550.50Q369 592 343.50 612.50Q318 633 282 633Q254 633 231.50 621.50Q209 610 192 587Q175 564 163.50 529.50Q152 495 146 450Q140 405 140 349Q140 294 145.50 249Q151 204 162.50 169.50Q174 135 191 112Q208 89 230 77.50Q252 66 280 66Q320 66 347 87.50Q374 109 390 151.50Q406 194 413 258L498 242Q486 158 459 102.50Q432 47 388 19Q344-9 280-9Q243-9 212 1.50Q181 12 155.50 33Q130 54 111 84.50Q92 115 78.50 154.50Q65 194 58.50 243Q52 292 52 349M278 875L202 764L138 764L230 922L327 922L419 764L354 764L278 875Z"  horiz-adv-x="538" vert-adv-y="1000"  />

      
      <glyph glyph-name="uni010A" unicode="&#x010A;" d="M52 349Q52 418 61.50 474.50Q71 531 90 574.50Q109 618 137 648Q165 678 201.50 693.50Q238 709 282 709Q343 709 386.50 681.50Q430 654 457 599.50Q484 545 494 464L410 447Q403 509 386 550.50Q369 592 343.50 612.50Q318 633 282 633Q254 633 231.50 621.50Q209 610 192 587Q175 564 163.50 529.50Q152 495 146 450Q140 405 140 349Q140 294 145.50 249Q151 204 162.50 169.50Q174 135 191 112Q208 89 230 77.50Q252 66 280 66Q320 66 347 87.50Q374 109 390 151.50Q406 194 413 258L498 242Q486 158 459 102.50Q432 47 388 19Q344-9 280-9Q243-9 212 1.50Q181 12 155.50 33Q130 54 111 84.50Q92 115 78.50 154.50Q65 194 58.50 243Q52 292 52 349M232 783L232 882L325 882L325 783L232 783Z"  horiz-adv-x="538" vert-adv-y="1000"  />

      
      <glyph glyph-name="uni010E" unicode="&#x010E;" d="M83 0L83 700L249 700Q301 700 343 685.50Q385 671 416.50 642.50Q448 614 469.50 572Q491 530 501.50 474Q512 418 512 348Q512 279 501.50 223.50Q491 168 469.50 126Q448 84 416.50 56Q385 28 343 14Q301 0 249 0L83 0M249 75Q284 75 312 86Q340 97 361 118.50Q382 140 396 173Q410 206 417 249.50Q424 293 424 348Q424 404 417 448Q410 492 396 525.50Q382 559 361 580.50Q340 602 312 613Q284 624 249 624L169 624L169 75L249 75M282 811L358 922L422 922L330 764L233 764L141 922L206 922L282 811Z"  horiz-adv-x="564" vert-adv-y="1000"  />

      
      <glyph glyph-name="uni0110" unicode="&#x0110;" d="M10 316L10 383L83 383L83 700L249 700Q301 700 343 685.50Q385 671 416.50 642.50Q448 614 469.50 572Q491 530 501.50 474Q512 418 512 348Q512 279 501.50 223.50Q491 168 469.50 126Q448 84 416.50 56Q385 28 343 14Q301 0 249 0L83 0L83 316L10 316M249 75Q284 75 312 86Q340 97 361 118.50Q382 140 396 173Q410 206 417 249.50Q424 293 424 348Q424 404 417 448Q410 492 396 525.50Q382 559 361 580.50Q340 602 312 613Q284 624 249 624L169 624L169 383L281 383L281 316L169 316L169 75L249 75Z"  horiz-adv-x="564" vert-adv-y="1000"  />

      
      <glyph glyph-name="unic9" unicode="&#xc9;" d="M83 0L83 700L407 700L407 624L167 624L167 397L381 397L381 321L167 321L167 75L414 75L414 0L83 0M204 764L284 922L379 922L271 764L204 764Z"  horiz-adv-x="452" vert-adv-y="1000"  />

      
      <glyph glyph-name="unica" unicode="&#xca;" d="M83 0L83 700L407 700L407 624L167 624L167 397L381 397L381 321L167 321L167 75L414 75L414 0L83 0M244 875L168 764L104 764L196 922L293 922L385 764L320 764L244 875Z"  horiz-adv-x="452" vert-adv-y="1000"  />

      
      <glyph glyph-name="unicb" unicode="&#xcb;" d="M83 0L83 700L407 700L407 624L167 624L167 397L381 397L381 321L167 321L167 75L414 75L414 0L83 0M278 783L278 887L357 887L357 783L278 783M134 783L134 887L213 887L213 783L134 783Z"  horiz-adv-x="452" vert-adv-y="1000"  />

      
      <glyph glyph-name="unic8" unicode="&#xc8;" d="M83 0L83 700L407 700L407 624L167 624L167 397L381 397L381 321L167 321L167 75L414 75L414 0L83 0M280 764L212 764L104 922L199 922L280 764Z"  horiz-adv-x="452" vert-adv-y="1000"  />

      
      <glyph glyph-name="uni0114" unicode="&#x0114;" d="M83 0L83 700L407 700L407 624L167 624L167 397L381 397L381 321L167 321L167 75L414 75L414 0L83 0M298 914L363 914Q363 864 349.50 830.50Q336 797 308.50 780.50Q281 764 237 764Q193 764 165 780.50Q137 797 123.50 830.50Q110 864 110 914L175 914Q175 866 190.50 844Q206 822 237 822Q269 822 283.50 844Q298 866 298 914Z"  horiz-adv-x="452" vert-adv-y="1000"  />

      
      <glyph glyph-name="uni011A" unicode="&#x011A;" d="M83 0L83 700L407 700L407 624L167 624L167 397L381 397L381 321L167 321L167 75L414 75L414 0L83 0M245 811L321 922L385 922L293 764L196 764L104 922L169 922L245 811Z"  horiz-adv-x="452" vert-adv-y="1000"  />

      
      <glyph glyph-name="uni0116" unicode="&#x0116;" d="M83 0L83 700L407 700L407 624L167 624L167 397L381 397L381 321L167 321L167 75L414 75L414 0L83 0M202 783L202 882L295 882L295 783L202 783Z"  horiz-adv-x="452" vert-adv-y="1000"  />

      
      <glyph glyph-name="uni0112" unicode="&#x0112;" d="M83 0L83 700L407 700L407 624L167 624L167 397L381 397L381 321L167 321L167 75L414 75L414 0L83 0M128 793L128 860L361 860L361 793L128 793Z"  horiz-adv-x="452" vert-adv-y="1000"  />

      
      <glyph glyph-name="uni0118" unicode="&#x0118;" d="M83 0L83 700L407 700L407 624L167 624L167 397L381 397L381 321L167 321L167 75L414 75L414 0Q386-15 367-27.50Q348-40 336.50-52Q325-64 320.50-76Q316-88 316-100Q316-122 329-132.50Q342-143 366-143Q378-143 389.50-140.50Q401-138 414-134L411-197Q396-202 379.50-205.50Q363-209 345-209Q299-209 272.50-187Q246-165 246-124Q246-107 251.50-88Q257-69 272.50-49.50Q288-30 317-10Q324-5 333 0L83 0Z"  horiz-adv-x="452" vert-adv-y="1000"  />

      
      <glyph glyph-name="uni018F" unicode="&#x018F;" d="M268 709Q314 709 350.50 694.50Q387 680 415 650.50Q443 621 461.50 577.50Q480 534 489 475.50Q498 417 498 344Q498 274 489 218Q480 162 461.50 119.50Q443 77 416 48.50Q389 20 352.50 5.50Q316-9 270-9Q227-9 192 4Q157 17 130.50 42.50Q104 68 87 105.50Q70 143 61 191.50Q52 240 52 299Q52 319 53 338Q54 357 57 373L409 373Q408 415 404 451Q398 498 387 532.50Q376 567 359 589Q342 611 319.50 622Q297 633 268 633Q234 633 209.50 617Q185 601 170 569.50Q155 538 150 490L74 502Q82 568 106 614.50Q130 661 171 685Q212 709 268 709M408 299L139 299Q139 293 139 287Q139 233 147.50 192Q156 151 172.50 123Q189 95 213.50 81Q238 67 269 67Q298 67 320.50 77.50Q343 88 359.50 110Q376 132 387 165Q398 198 404 243Q407 269 408 299Z"  horiz-adv-x="550" vert-adv-y="1000"  />

      
      <glyph glyph-name="uni011E" unicode="&#x011E;" d="M284 274L284 343L503 343L503 0L445 0L436 108Q426 82 412 62Q387 27 353.50 9Q320-9 277-9Q235-9 200 6Q165 21 137.50 51Q110 81 91 124Q72 167 62 223.50Q52 280 52 349Q52 419 62 476.50Q72 534 92 577.50Q112 621 141 650Q170 679 207.50 694Q245 709 290 709Q350 709 392 683Q434 657 459.50 605.50Q485 554 496 477L413 461Q406 519 390.50 557Q375 595 349.50 614Q324 633 288 633Q260 633 236.50 622Q213 611 195 588Q177 565 165 531Q153 497 146.50 451.50Q140 406 140 349Q140 292 146 246.50Q152 201 164 167Q176 133 194 110.50Q212 88 235.50 77Q259 66 287 66Q330 66 360.50 92Q391 118 407 167Q422 212 422 274L284 274M342 914L407 914Q407 864 393.50 830.50Q380 797 352.50 780.50Q325 764 281 764Q237 764 209 780.50Q181 797 167.50 830.50Q154 864 154 914L219 914Q219 866 234.50 844Q250 822 281 822Q313 822 327.50 844Q342 866 342 914Z"  horiz-adv-x="560" vert-adv-y="1000"  />

      
      <glyph glyph-name="uni011C" unicode="&#x011C;" d="M284 274L284 343L503 343L503 0L445 0L436 108Q426 82 412 62Q387 27 353.50 9Q320-9 277-9Q235-9 200 6Q165 21 137.50 51Q110 81 91 124Q72 167 62 223.50Q52 280 52 349Q52 419 62 476.50Q72 534 92 577.50Q112 621 141 650Q170 679 207.50 694Q245 709 290 709Q350 709 392 683Q434 657 459.50 605.50Q485 554 496 477L413 461Q406 519 390.50 557Q375 595 349.50 614Q324 633 288 633Q260 633 236.50 622Q213 611 195 588Q177 565 165 531Q153 497 146.50 451.50Q140 406 140 349Q140 292 146 246.50Q152 201 164 167Q176 133 194 110.50Q212 88 235.50 77Q259 66 287 66Q330 66 360.50 92Q391 118 407 167Q422 212 422 274L284 274M280 875L204 764L140 764L232 922L329 922L421 764L356 764L280 875Z"  horiz-adv-x="560" vert-adv-y="1000"  />

      
      <glyph glyph-name="uni0122" unicode="&#x0122;" d="M284 274L284 343L503 343L503 0L445 0L436 108Q426 82 412 62Q387 27 353.50 9Q320-9 277-9Q235-9 200 6Q165 21 137.50 51Q110 81 91 124Q72 167 62 223.50Q52 280 52 349Q52 419 62 476.50Q72 534 92 577.50Q112 621 141 650Q170 679 207.50 694Q245 709 290 709Q350 709 392 683Q434 657 459.50 605.50Q485 554 496 477L413 461Q406 519 390.50 557Q375 595 349.50 614Q324 633 288 633Q260 633 236.50 622Q213 611 195 588Q177 565 165 531Q153 497 146.50 451.50Q140 406 140 349Q140 292 146 246.50Q152 201 164 167Q176 133 194 110.50Q212 88 235.50 77Q259 66 287 66Q330 66 360.50 92Q391 118 407 167Q422 212 422 274L284 274M166-213L235-64L329-64L236-213L166-213Z"  horiz-adv-x="560" vert-adv-y="1000"  />

      
      <glyph glyph-name="uni0120" unicode="&#x0120;" d="M284 274L284 343L503 343L503 0L445 0L436 108Q426 82 412 62Q387 27 353.50 9Q320-9 277-9Q235-9 200 6Q165 21 137.50 51Q110 81 91 124Q72 167 62 223.50Q52 280 52 349Q52 419 62 476.50Q72 534 92 577.50Q112 621 141 650Q170 679 207.50 694Q245 709 290 709Q350 709 392 683Q434 657 459.50 605.50Q485 554 496 477L413 461Q406 519 390.50 557Q375 595 349.50 614Q324 633 288 633Q260 633 236.50 622Q213 611 195 588Q177 565 165 531Q153 497 146.50 451.50Q140 406 140 349Q140 292 146 246.50Q152 201 164 167Q176 133 194 110.50Q212 88 235.50 77Q259 66 287 66Q330 66 360.50 92Q391 118 407 167Q422 212 422 274L284 274M234 783L234 882L327 882L327 783L234 783Z"  horiz-adv-x="560" vert-adv-y="1000"  />

      
      <glyph glyph-name="uni0126" unicode="&#x0126;" d="M10 524L10 587L83 587L83 700L169 700L169 587L410 587L410 700L496 700L496 587L569 587L569 524L496 524L496 0L410 0L410 322L169 322L169 0L83 0L83 524L10 524M169 524L169 398L410 398L410 524L169 524Z"  horiz-adv-x="579" vert-adv-y="1000"  />

      
      <glyph glyph-name="uni0124" unicode="&#x0124;" d="M83 0L83 700L169 700L169 398L410 398L410 700L496 700L496 0L410 0L410 322L169 322L169 0L83 0M288 875L212 764L148 764L240 922L337 922L429 764L364 764L288 875Z"  horiz-adv-x="579" vert-adv-y="1000"  />

      
      <glyph glyph-name="unicd" unicode="&#xcd;" d="M83 0L83 700L169 700L169 0L83 0M94 764L174 922L269 922L161 764L94 764Z"  horiz-adv-x="252" vert-adv-y="1000"  />

      
      <glyph glyph-name="unice" unicode="&#xce;" d="M83 0L83 700L169 700L169 0L83 0M126 875L50 764L-14 764L78 922L175 922L267 764L202 764L126 875Z"  horiz-adv-x="252" vert-adv-y="1000"  />

      
      <glyph glyph-name="unicf" unicode="&#xcf;" d="M83 0L83 700L169 700L169 0L83 0M159 783L159 887L238 887L238 783L159 783M15 783L15 887L94 887L94 783L15 783Z"  horiz-adv-x="252" vert-adv-y="1000"  />

      
      <glyph glyph-name="unicc" unicode="&#xcc;" d="M83 0L83 700L169 700L169 0L83 0M160 764L92 764L-16 922L79 922L160 764Z"  horiz-adv-x="252" vert-adv-y="1000"  />

      
      <glyph glyph-name="uni012C" unicode="&#x012C;" d="M83 0L83 700L169 700L169 0L83 0M188 914L253 914Q253 864 239.50 830.50Q226 797 198.50 780.50Q171 764 127 764Q83 764 55 780.50Q27 797 13.50 830.50Q0 864 0 914L65 914Q65 866 80.50 844Q96 822 127 822Q159 822 173.50 844Q188 866 188 914Z"  horiz-adv-x="252" vert-adv-y="1000"  />

      
      <glyph glyph-name="uni0130" unicode="&#x0130;" d="M83 0L83 700L169 700L169 0L83 0M80 783L80 882L173 882L173 783L80 783Z"  horiz-adv-x="252" vert-adv-y="1000"  />

      
      <glyph glyph-name="uni012A" unicode="&#x012A;" d="M83 0L83 700L169 700L169 0L83 0M10 793L10 860L243 860L243 793L10 793Z"  horiz-adv-x="252" vert-adv-y="1000"  />

      
      <glyph glyph-name="uni012E" unicode="&#x012E;" d="M25-117Q25-99 30-79Q35-59 49-38Q61-18 83 0L83 0L83 700L169 700L169 0Q144-16 127.50-33Q111-50 103-66.50Q95-83 95-100Q95-122 108-132.50Q121-143 145-143Q157-143 169-140.50Q181-138 193-134L190-197Q176-203 159.50-206Q143-209 125-209Q94-209 71.50-198Q49-187 37-166.50Q25-146 25-117Z"  horiz-adv-x="252" vert-adv-y="1000"  />

      
      <glyph glyph-name="uni0128" unicode="&#x0128;" d="M83 0L83 700L169 700L169 0L83 0M251 912Q260 855 252.50 823Q245 791 228 778.50Q211 766 190 766Q173 766 159 774.50Q145 783 134 796Q123 809 113.50 822Q104 835 95 843.50Q86 852 76 852Q69 852 63 845.50Q57 839 54.50 821.50Q52 804 57 771L2 771Q-6 829 1.50 860.50Q9 892 26 905Q43 918 63 918Q80 918 93.50 909.50Q107 901 118 888Q129 875 139 862.50Q149 850 158 841.50Q167 833 177 833Q182 833 187 836.50Q192 840 195.50 848.50Q199 857 199.50 872.50Q200 888 196 912L251 912Z"  horiz-adv-x="252" vert-adv-y="1000"  />

      
      <glyph glyph-name="uni0134" unicode="&#x0134;" d="M193 130Q193 94 185 67.50Q177 41 160.50 24Q144 7 119.50-1Q95-9 62-9Q49-9 34.50-7.50Q20-6 9-3L7 69Q12 68 17.50 67.50Q23 67 29 66.50Q35 66 40 66Q65 66 79.50 73Q94 80 100.50 96.50Q107 113 107 140L107 700L193 700L193 130M150 875L74 764L10 764L102 922L199 922L291 764L226 764L150 875Z"  horiz-adv-x="273" vert-adv-y="1000"  />

      
      <glyph glyph-name="uni0132" unicode="&#x0132;" d="M83 0L83 700L169 700L169 0L83 0M445 130Q445 94 437 67.50Q429 41 412.50 24Q396 7 371.50-1Q347-9 314-9Q301-9 286.50-7.50Q272-6 261-3L259 69Q264 68 269.50 67.50Q275 67 281 66.50Q287 66 292 66Q317 66 331.50 73Q346 80 352.50 96.50Q359 113 359 140L359 700L445 700L445 130Z"  horiz-adv-x="525" vert-adv-y="1000"  />

      
      <glyph glyph-name="uni0136" unicode="&#x0136;" d="M83 0L83 700L166 700L166 365L409 700L501 700L270 384L512 0L414 0L219 313L166 241L166 0L83 0M152-213L221-64L315-64L222-213L152-213Z"  horiz-adv-x="509" vert-adv-y="1000"  />

      
      <glyph glyph-name="uni0139" unicode="&#x0139;" d="M83 0L83 700L169 700L169 75L407 75L407 0L83 0M94 764L174 922L269 922L161 764L94 764Z"  horiz-adv-x="432" vert-adv-y="1000"  />

      
      <glyph glyph-name="uni013D" unicode="&#x013D;" d="M83 0L83 700L169 700L169 75L407 75L407 0L83 0M279 487L279 700L365 700L341 487L279 487Z"  horiz-adv-x="432" vert-adv-y="1000"  />

      
      <glyph glyph-name="uni013B" unicode="&#x013B;" d="M83 0L83 700L169 700L169 75L407 75L407 0L83 0M126-213L195-64L289-64L196-213L126-213Z"  horiz-adv-x="432" vert-adv-y="1000"  />

      
      <glyph glyph-name="uni013F" unicode="&#x013F;" d="M83 0L83 700L169 700L169 75L407 75L407 0L83 0M295 308L295 407L388 407L388 308L295 308Z"  horiz-adv-x="432" vert-adv-y="1000"  />

      
      <glyph glyph-name="unid1" unicode="&#xd1;" d="M83 0L83 700L173 700L416 154L416 700L495 700L495 0L405 0L162 545L162 0L83 0M413 912Q422 855 414.50 823Q407 791 390 778.50Q373 766 352 766Q335 766 321 774.50Q307 783 296 796Q285 809 275.50 822Q266 835 257 843.50Q248 852 238 852Q231 852 225 845.50Q219 839 216.50 821.50Q214 804 219 771L164 771Q156 829 163.50 860.50Q171 892 188 905Q205 918 225 918Q242 918 255.50 909.50Q269 901 280 888Q291 875 301 862.50Q311 850 320 841.50Q329 833 339 833Q344 833 349 836.50Q354 840 357.50 848.50Q361 857 361.50 872.50Q362 888 358 912L413 912Z"  horiz-adv-x="578" vert-adv-y="1000"  />

      
      <glyph glyph-name="uni0143" unicode="&#x0143;" d="M83 0L83 700L173 700L416 154L416 700L495 700L495 0L405 0L162 545L162 0L83 0M256 764L336 922L431 922L323 764L256 764Z"  horiz-adv-x="578" vert-adv-y="1000"  />

      
      <glyph glyph-name="uni0147" unicode="&#x0147;" d="M83 0L83 700L173 700L416 154L416 700L495 700L495 0L405 0L162 545L162 0L83 0M289 811L365 922L429 922L337 764L240 764L148 922L213 922L289 811Z"  horiz-adv-x="578" vert-adv-y="1000"  />

      
      <glyph glyph-name="uni0145" unicode="&#x0145;" d="M83 0L83 700L173 700L416 154L416 700L495 700L495 0L405 0L162 545L162 0L83 0M167-213L236-64L330-64L237-213L167-213Z"  horiz-adv-x="578" vert-adv-y="1000"  />

      
      <glyph glyph-name="uni014A" unicode="&#x014A;" d="M83 0L83 700L171 700L416 163L416 700L495 700L495-60Q495-99 487.50-127Q480-155 464.50-173Q449-191 424.50-200Q400-209 367-209Q358-209 348-208.50Q338-208 328.50-206.50Q319-205 311-203L309-131L320-132Q325-133 331-133.50Q337-134 342-134Q369-134 385-126.50Q401-119 408.50-102.50Q416-86 416-59L416 0L162 556L162 0L83 0Z"  horiz-adv-x="578" vert-adv-y="1000"  />

      
      <glyph glyph-name="unid3" unicode="&#xd3;" d="M279-9Q236-9 200.50 5Q165 19 137.50 47Q110 75 91 117.50Q72 160 62 218Q52 276 52 349Q52 422 62 480.50Q72 539 91 582Q110 625 137.50 653Q165 681 200.50 695Q236 709 279 709Q322 709 357.50 695Q393 681 420.50 653Q448 625 467.50 582Q487 539 497 481Q507 423 507 350Q507 277 497 219Q487 161 467.50 118Q448 75 420.50 47Q393 19 357.50 5Q322-9 279-9M279 67Q306 67 328 78Q350 89 366.50 111Q383 133 394.50 167Q406 201 412 246.50Q418 292 418 350Q418 408 412 453.50Q406 499 394.50 533Q383 567 366.50 589Q350 611 328 622Q306 633 279 633Q253 633 231 622Q209 611 192 588.50Q175 566 163.50 532Q152 498 146 452.50Q140 407 140 349Q140 291 146 245.50Q152 200 163.50 166.50Q175 133 192 111Q209 89 231 78Q253 67 279 67M246 764L326 922L421 922L313 764L246 764Z"  horiz-adv-x="559" vert-adv-y="1000"  />

      
      <glyph glyph-name="unid4" unicode="&#xd4;" d="M279-9Q236-9 200.50 5Q165 19 137.50 47Q110 75 91 117.50Q72 160 62 218Q52 276 52 349Q52 422 62 480.50Q72 539 91 582Q110 625 137.50 653Q165 681 200.50 695Q236 709 279 709Q322 709 357.50 695Q393 681 420.50 653Q448 625 467.50 582Q487 539 497 481Q507 423 507 350Q507 277 497 219Q487 161 467.50 118Q448 75 420.50 47Q393 19 357.50 5Q322-9 279-9M279 67Q306 67 328 78Q350 89 366.50 111Q383 133 394.50 167Q406 201 412 246.50Q418 292 418 350Q418 408 412 453.50Q406 499 394.50 533Q383 567 366.50 589Q350 611 328 622Q306 633 279 633Q253 633 231 622Q209 611 192 588.50Q175 566 163.50 532Q152 498 146 452.50Q140 407 140 349Q140 291 146 245.50Q152 200 163.50 166.50Q175 133 192 111Q209 89 231 78Q253 67 279 67M278 875L202 764L138 764L230 922L327 922L419 764L354 764L278 875Z"  horiz-adv-x="559" vert-adv-y="1000"  />

      
      <glyph glyph-name="unid6" unicode="&#xd6;" d="M279-9Q236-9 200.50 5Q165 19 137.50 47Q110 75 91 117.50Q72 160 62 218Q52 276 52 349Q52 422 62 480.50Q72 539 91 582Q110 625 137.50 653Q165 681 200.50 695Q236 709 279 709Q322 709 357.50 695Q393 681 420.50 653Q448 625 467.50 582Q487 539 497 481Q507 423 507 350Q507 277 497 219Q487 161 467.50 118Q448 75 420.50 47Q393 19 357.50 5Q322-9 279-9M279 67Q306 67 328 78Q350 89 366.50 111Q383 133 394.50 167Q406 201 412 246.50Q418 292 418 350Q418 408 412 453.50Q406 499 394.50 533Q383 567 366.50 589Q350 611 328 622Q306 633 279 633Q253 633 231 622Q209 611 192 588.50Q175 566 163.50 532Q152 498 146 452.50Q140 407 140 349Q140 291 146 245.50Q152 200 163.50 166.50Q175 133 192 111Q209 89 231 78Q253 67 279 67M311 783L311 887L390 887L390 783L311 783M167 783L167 887L246 887L246 783L167 783Z"  horiz-adv-x="559" vert-adv-y="1000"  />

      
      <glyph glyph-name="unid2" unicode="&#xd2;" d="M279-9Q236-9 200.50 5Q165 19 137.50 47Q110 75 91 117.50Q72 160 62 218Q52 276 52 349Q52 422 62 480.50Q72 539 91 582Q110 625 137.50 653Q165 681 200.50 695Q236 709 279 709Q322 709 357.50 695Q393 681 420.50 653Q448 625 467.50 582Q487 539 497 481Q507 423 507 350Q507 277 497 219Q487 161 467.50 118Q448 75 420.50 47Q393 19 357.50 5Q322-9 279-9M279 67Q306 67 328 78Q350 89 366.50 111Q383 133 394.50 167Q406 201 412 246.50Q418 292 418 350Q418 408 412 453.50Q406 499 394.50 533Q383 567 366.50 589Q350 611 328 622Q306 633 279 633Q253 633 231 622Q209 611 192 588.50Q175 566 163.50 532Q152 498 146 452.50Q140 407 140 349Q140 291 146 245.50Q152 200 163.50 166.50Q175 133 192 111Q209 89 231 78Q253 67 279 67M312 764L244 764L136 922L231 922L312 764Z"  horiz-adv-x="559" vert-adv-y="1000"  />

      
      <glyph glyph-name="unid5" unicode="&#xd5;" d="M279-9Q236-9 200.50 5Q165 19 137.50 47Q110 75 91 117.50Q72 160 62 218Q52 276 52 349Q52 422 62 480.50Q72 539 91 582Q110 625 137.50 653Q165 681 200.50 695Q236 709 279 709Q322 709 357.50 695Q393 681 420.50 653Q448 625 467.50 582Q487 539 497 481Q507 423 507 350Q507 277 497 219Q487 161 467.50 118Q448 75 420.50 47Q393 19 357.50 5Q322-9 279-9M279 67Q306 67 328 78Q350 89 366.50 111Q383 133 394.50 167Q406 201 412 246.50Q418 292 418 350Q418 408 412 453.50Q406 499 394.50 533Q383 567 366.50 589Q350 611 328 622Q306 633 279 633Q253 633 231 622Q209 611 192 588.50Q175 566 163.50 532Q152 498 146 452.50Q140 407 140 349Q140 291 146 245.50Q152 200 163.50 166.50Q175 133 192 111Q209 89 231 78Q253 67 279 67M403 912Q412 855 404.50 823Q397 791 380 778.50Q363 766 342 766Q325 766 311 774.50Q297 783 286 796Q275 809 265.50 822Q256 835 247 843.50Q238 852 228 852Q221 852 215 845.50Q209 839 206.50 821.50Q204 804 209 771L154 771Q146 829 153.50 860.50Q161 892 178 905Q195 918 215 918Q232 918 245.50 909.50Q259 901 270 888Q281 875 291 862.50Q301 850 310 841.50Q319 833 329 833Q334 833 339 836.50Q344 840 347.50 848.50Q351 857 351.50 872.50Q352 888 348 912L403 912Z"  horiz-adv-x="559" vert-adv-y="1000"  />

      
      <glyph glyph-name="uni014E" unicode="&#x014E;" d="M279-9Q236-9 200.50 5Q165 19 137.50 47Q110 75 91 117.50Q72 160 62 218Q52 276 52 349Q52 422 62 480.50Q72 539 91 582Q110 625 137.50 653Q165 681 200.50 695Q236 709 279 709Q322 709 357.50 695Q393 681 420.50 653Q448 625 467.50 582Q487 539 497 481Q507 423 507 350Q507 277 497 219Q487 161 467.50 118Q448 75 420.50 47Q393 19 357.50 5Q322-9 279-9M279 67Q306 67 328 78Q350 89 366.50 111Q383 133 394.50 167Q406 201 412 246.50Q418 292 418 350Q418 408 412 453.50Q406 499 394.50 533Q383 567 366.50 589Q350 611 328 622Q306 633 279 633Q253 633 231 622Q209 611 192 588.50Q175 566 163.50 532Q152 498 146 452.50Q140 407 140 349Q140 291 146 245.50Q152 200 163.50 166.50Q175 133 192 111Q209 89 231 78Q253 67 279 67M340 914L405 914Q405 864 391.50 830.50Q378 797 350.50 780.50Q323 764 279 764Q235 764 207 780.50Q179 797 165.50 830.50Q152 864 152 914L217 914Q217 866 232.50 844Q248 822 279 822Q311 822 325.50 844Q340 866 340 914Z"  horiz-adv-x="559" vert-adv-y="1000"  />

      
      <glyph glyph-name="uni0150" unicode="&#x0150;" d="M279-9Q236-9 200.50 5Q165 19 137.50 47Q110 75 91 117.50Q72 160 62 218Q52 276 52 349Q52 422 62 480.50Q72 539 91 582Q110 625 137.50 653Q165 681 200.50 695Q236 709 279 709Q322 709 357.50 695Q393 681 420.50 653Q448 625 467.50 582Q487 539 497 481Q507 423 507 350Q507 277 497 219Q487 161 467.50 118Q448 75 420.50 47Q393 19 357.50 5Q322-9 279-9M279 67Q306 67 328 78Q350 89 366.50 111Q383 133 394.50 167Q406 201 412 246.50Q418 292 418 350Q418 408 412 453.50Q406 499 394.50 533Q383 567 366.50 589Q350 611 328 622Q306 633 279 633Q253 633 231 622Q209 611 192 588.50Q175 566 163.50 532Q152 498 146 452.50Q140 407 140 349Q140 291 146 245.50Q152 200 163.50 166.50Q175 133 192 111Q209 89 231 78Q253 67 279 67M181 764L249 922L329 922L238 764L181 764M313 764L380 922L460 922L369 764L313 764Z"  horiz-adv-x="559" vert-adv-y="1000"  />

      
      <glyph glyph-name="uni014C" unicode="&#x014C;" d="M279-9Q236-9 200.50 5Q165 19 137.50 47Q110 75 91 117.50Q72 160 62 218Q52 276 52 349Q52 422 62 480.50Q72 539 91 582Q110 625 137.50 653Q165 681 200.50 695Q236 709 279 709Q322 709 357.50 695Q393 681 420.50 653Q448 625 467.50 582Q487 539 497 481Q507 423 507 350Q507 277 497 219Q487 161 467.50 118Q448 75 420.50 47Q393 19 357.50 5Q322-9 279-9M279 67Q306 67 328 78Q350 89 366.50 111Q383 133 394.50 167Q406 201 412 246.50Q418 292 418 350Q418 408 412 453.50Q406 499 394.50 533Q383 567 366.50 589Q350 611 328 622Q306 633 279 633Q253 633 231 622Q209 611 192 588.50Q175 566 163.50 532Q152 498 146 452.50Q140 407 140 349Q140 291 146 245.50Q152 200 163.50 166.50Q175 133 192 111Q209 89 231 78Q253 67 279 67M162 793L162 860L395 860L395 793L162 793Z"  horiz-adv-x="559" vert-adv-y="1000"  />

      
      <glyph glyph-name="uni0154" unicode="&#x0154;" d="M83 0L83 700L272 700Q320 700 356.50 686.50Q393 673 418 646.50Q443 620 455.50 580.50Q468 541 468 490Q468 424 444 378Q420 332 377 309Q358 298 337 293L498 0L403 0L252 280L169 280L169 0L83 0M169 626L169 354L269 354Q293 354 313.50 363Q334 372 349.50 389.50Q365 407 374 432Q383 457 383 490Q383 523 375.50 548.50Q368 574 352.50 591.50Q337 609 315 617.50Q293 626 264 626L169 626M224 764L304 922L399 922L291 764L224 764Z"  horiz-adv-x="520" vert-adv-y="1000"  />

      
      <glyph glyph-name="uni0158" unicode="&#x0158;" d="M83 0L83 700L272 700Q320 700 356.50 686.50Q393 673 418 646.50Q443 620 455.50 580.50Q468 541 468 490Q468 424 444 378Q420 332 377 309Q358 298 337 293L498 0L403 0L252 280L169 280L169 0L83 0M169 626L169 354L269 354Q293 354 313.50 363Q334 372 349.50 389.50Q365 407 374 432Q383 457 383 490Q383 523 375.50 548.50Q368 574 352.50 591.50Q337 609 315 617.50Q293 626 264 626L169 626M257 811L333 922L397 922L305 764L208 764L116 922L181 922L257 811Z"  horiz-adv-x="520" vert-adv-y="1000"  />

      
      <glyph glyph-name="uni0156" unicode="&#x0156;" d="M83 0L83 700L272 700Q320 700 356.50 686.50Q393 673 418 646.50Q443 620 455.50 580.50Q468 541 468 490Q468 424 444 378Q420 332 377 309Q358 298 337 293L498 0L403 0L252 280L169 280L169 0L83 0M169 626L169 354L269 354Q293 354 313.50 363Q334 372 349.50 389.50Q365 407 374 432Q383 457 383 490Q383 523 375.50 548.50Q368 574 352.50 591.50Q337 609 315 617.50Q293 626 264 626L169 626M156-213L225-64L319-64L226-213L156-213Z"  horiz-adv-x="520" vert-adv-y="1000"  />

      
      <glyph glyph-name="uni0160" unicode="&#x0160;" d="M35 219L116 230Q118 173 134.50 136Q151 99 180.50 81.50Q210 64 249 64Q276 64 296.50 71.50Q317 79 331 93.50Q345 108 352.50 128.50Q360 149 360 176Q360 211 347.50 234Q335 257 312.50 273.50Q290 290 259 303L205 326Q175 339 147.50 356.50Q120 374 98.50 398Q77 422 64.50 454Q52 486 52 526Q52 569 65 603Q78 637 102 660.50Q126 684 161.50 696.50Q197 709 242 709Q304 709 346 685Q388 661 411.50 614.50Q435 568 440 498L359 487Q356 564 325 599.50Q294 635 243 635Q218 635 198 628Q178 621 164 607.50Q150 594 143 575Q136 556 136 531Q136 496 151 472.50Q166 449 193 432Q220 415 254 399L305 377Q348 359 379.50 333.50Q411 308 429 271.50Q447 235 447 181Q447 136 433.50 101Q420 66 394.50 41.50Q369 17 332.50 4Q296-9 249-9Q200-9 162 4Q124 17 97 44.50Q70 72 54.50 115.50Q39 159 35 219M246 811L322 922L386 922L294 764L197 764L105 922L170 922L246 811Z"  horiz-adv-x="490" vert-adv-y="1000"  />

      
      <glyph glyph-name="uni015A" unicode="&#x015A;" d="M35 219L116 230Q118 173 134.50 136Q151 99 180.50 81.50Q210 64 249 64Q276 64 296.50 71.50Q317 79 331 93.50Q345 108 352.50 128.50Q360 149 360 176Q360 211 347.50 234Q335 257 312.50 273.50Q290 290 259 303L205 326Q175 339 147.50 356.50Q120 374 98.50 398Q77 422 64.50 454Q52 486 52 526Q52 569 65 603Q78 637 102 660.50Q126 684 161.50 696.50Q197 709 242 709Q304 709 346 685Q388 661 411.50 614.50Q435 568 440 498L359 487Q356 564 325 599.50Q294 635 243 635Q218 635 198 628Q178 621 164 607.50Q150 594 143 575Q136 556 136 531Q136 496 151 472.50Q166 449 193 432Q220 415 254 399L305 377Q348 359 379.50 333.50Q411 308 429 271.50Q447 235 447 181Q447 136 433.50 101Q420 66 394.50 41.50Q369 17 332.50 4Q296-9 249-9Q200-9 162 4Q124 17 97 44.50Q70 72 54.50 115.50Q39 159 35 219M208 764L288 922L383 922L275 764L208 764Z"  horiz-adv-x="490" vert-adv-y="1000"  />

      
      <glyph glyph-name="uni015E" unicode="&#x015E;" d="M35 219L116 230Q118 173 134.50 136Q151 99 180.50 81.50Q210 64 249 64Q276 64 296.50 71.50Q317 79 331 93.50Q345 108 352.50 128.50Q360 149 360 176Q360 211 347.50 234Q335 257 312.50 273.50Q290 290 259 303L205 326Q175 339 147.50 356.50Q120 374 98.50 398Q77 422 64.50 454Q52 486 52 526Q52 569 65 603Q78 637 102 660.50Q126 684 161.50 696.50Q197 709 242 709Q304 709 346 685Q388 661 411.50 614.50Q435 568 440 498L359 487Q356 564 325 599.50Q294 635 243 635Q218 635 198 628Q178 621 164 607.50Q150 594 143 575Q136 556 136 531Q136 496 151 472.50Q166 449 193 432Q220 415 254 399L305 377Q348 359 379.50 333.50Q411 308 429 271.50Q447 235 447 181Q447 136 433.50 101Q420 66 394.50 41.50Q369 17 333 4Q299-8 257-9L251-58Q252-58 254-57Q269-51 285-51Q321-51 341.50-70.50Q362-90 362-125Q362-153 348.50-171.50Q335-190 310-199.50Q285-209 249-210Q228-210 206.50-207Q185-204 162-199L164-156Q189-162 207.50-164.50Q226-167 243-167Q263-167 276-162.50Q289-158 295.50-148.50Q302-139 302-126Q302-109 293.50-100.50Q285-92 268-92Q258-92 250-95Q242-98 234-104L196-99L207-6Q183-3 162 4Q124 17 97 44.50Q70 72 54.50 115.50Q39 159 35 219Z"  horiz-adv-x="490" vert-adv-y="1000"  />

      
      <glyph glyph-name="uni015C" unicode="&#x015C;" d="M35 219L116 230Q118 173 134.50 136Q151 99 180.50 81.50Q210 64 249 64Q276 64 296.50 71.50Q317 79 331 93.50Q345 108 352.50 128.50Q360 149 360 176Q360 211 347.50 234Q335 257 312.50 273.50Q290 290 259 303L205 326Q175 339 147.50 356.50Q120 374 98.50 398Q77 422 64.50 454Q52 486 52 526Q52 569 65 603Q78 637 102 660.50Q126 684 161.50 696.50Q197 709 242 709Q304 709 346 685Q388 661 411.50 614.50Q435 568 440 498L359 487Q356 564 325 599.50Q294 635 243 635Q218 635 198 628Q178 621 164 607.50Q150 594 143 575Q136 556 136 531Q136 496 151 472.50Q166 449 193 432Q220 415 254 399L305 377Q348 359 379.50 333.50Q411 308 429 271.50Q447 235 447 181Q447 136 433.50 101Q420 66 394.50 41.50Q369 17 332.50 4Q296-9 249-9Q200-9 162 4Q124 17 97 44.50Q70 72 54.50 115.50Q39 159 35 219M245 875L169 764L105 764L197 922L294 922L386 764L321 764L245 875Z"  horiz-adv-x="490" vert-adv-y="1000"  />

      
      <glyph glyph-name="uni0218" unicode="&#x0218;" d="M35 219L116 230Q118 173 134.50 136Q151 99 180.50 81.50Q210 64 249 64Q276 64 296.50 71.50Q317 79 331 93.50Q345 108 352.50 128.50Q360 149 360 176Q360 211 347.50 234Q335 257 312.50 273.50Q290 290 259 303L205 326Q175 339 147.50 356.50Q120 374 98.50 398Q77 422 64.50 454Q52 486 52 526Q52 569 65 603Q78 637 102 660.50Q126 684 161.50 696.50Q197 709 242 709Q304 709 346 685Q388 661 411.50 614.50Q435 568 440 498L359 487Q356 564 325 599.50Q294 635 243 635Q218 635 198 628Q178 621 164 607.50Q150 594 143 575Q136 556 136 531Q136 496 151 472.50Q166 449 193 432Q220 415 254 399L305 377Q348 359 379.50 333.50Q411 308 429 271.50Q447 235 447 181Q447 136 433.50 101Q420 66 394.50 41.50Q369 17 332.50 4Q296-9 249-9Q200-9 162 4Q124 17 97 44.50Q70 72 54.50 115.50Q39 159 35 219M135-213L204-64L298-64L205-213L135-213Z"  horiz-adv-x="490" vert-adv-y="1000"  />

      
      <glyph glyph-name="uni0166" unicode="&#x0166;" d="M79 318L79 382L178 382L178 624L15 624L15 700L427 700L427 624L263 624L263 382L362 382L362 318L263 318L263 0L178 0L178 318L79 318Z"  horiz-adv-x="442" vert-adv-y="1000"  />

      
      <glyph glyph-name="uni0164" unicode="&#x0164;" d="M178 0L178 624L15 624L15 700L427 700L427 624L263 624L263 0L178 0M222 811L298 922L362 922L270 764L173 764L81 922L146 922L222 811Z"  horiz-adv-x="442" vert-adv-y="1000"  />

      
      <glyph glyph-name="uni0162" unicode="&#x0162;" d="M178 0L178 624L15 624L15 700L427 700L427 624L263 624L263 0L178 0M105-213L174-64L268-64L175-213L105-213Z"  horiz-adv-x="442" vert-adv-y="1000"  />

      
      <glyph glyph-name="uni021A" unicode="&#x021A;" d="M178 0L178 624L15 624L15 700L427 700L427 624L263 624L263 0L178 0M105-213L174-64L268-64L175-213L105-213Z"  horiz-adv-x="442" vert-adv-y="1000"  />

      
      <glyph glyph-name="unida" unicode="&#xda;" d="M480 210Q480 155 467 114Q454 73 428.50 45.50Q403 18 365 4.50Q327-9 277-9Q227-9 189 4.50Q151 18 125 45.50Q99 73 86 114Q73 155 73 210L73 700L159 700L159 202Q159 157 172 127Q185 97 211.50 81.50Q238 66 277 66Q306 66 328 74.50Q350 83 365 100Q380 117 387.50 142.50Q395 168 395 202L395 700L480 700L480 210M245 764L325 922L420 922L312 764L245 764Z"  horiz-adv-x="554" vert-adv-y="1000"  />

      
      <glyph glyph-name="unidb" unicode="&#xdb;" d="M480 210Q480 155 467 114Q454 73 428.50 45.50Q403 18 365 4.50Q327-9 277-9Q227-9 189 4.50Q151 18 125 45.50Q99 73 86 114Q73 155 73 210L73 700L159 700L159 202Q159 157 172 127Q185 97 211.50 81.50Q238 66 277 66Q306 66 328 74.50Q350 83 365 100Q380 117 387.50 142.50Q395 168 395 202L395 700L480 700L480 210M277 875L201 764L137 764L229 922L326 922L418 764L353 764L277 875Z"  horiz-adv-x="554" vert-adv-y="1000"  />

      
      <glyph glyph-name="unidc" unicode="&#xdc;" d="M480 210Q480 155 467 114Q454 73 428.50 45.50Q403 18 365 4.50Q327-9 277-9Q227-9 189 4.50Q151 18 125 45.50Q99 73 86 114Q73 155 73 210L73 700L159 700L159 202Q159 157 172 127Q185 97 211.50 81.50Q238 66 277 66Q306 66 328 74.50Q350 83 365 100Q380 117 387.50 142.50Q395 168 395 202L395 700L480 700L480 210M310 783L310 887L389 887L389 783L310 783M166 783L166 887L245 887L245 783L166 783Z"  horiz-adv-x="554" vert-adv-y="1000"  />

      
      <glyph glyph-name="unid9" unicode="&#xd9;" d="M480 210Q480 155 467 114Q454 73 428.50 45.50Q403 18 365 4.50Q327-9 277-9Q227-9 189 4.50Q151 18 125 45.50Q99 73 86 114Q73 155 73 210L73 700L159 700L159 202Q159 157 172 127Q185 97 211.50 81.50Q238 66 277 66Q306 66 328 74.50Q350 83 365 100Q380 117 387.50 142.50Q395 168 395 202L395 700L480 700L480 210M311 764L243 764L135 922L230 922L311 764Z"  horiz-adv-x="554" vert-adv-y="1000"  />

      
      <glyph glyph-name="uni016C" unicode="&#x016C;" d="M480 210Q480 155 467 114Q454 73 428.50 45.50Q403 18 365 4.50Q327-9 277-9Q227-9 189 4.50Q151 18 125 45.50Q99 73 86 114Q73 155 73 210L73 700L159 700L159 202Q159 157 172 127Q185 97 211.50 81.50Q238 66 277 66Q306 66 328 74.50Q350 83 365 100Q380 117 387.50 142.50Q395 168 395 202L395 700L480 700L480 210M339 914L404 914Q404 864 390.50 830.50Q377 797 349.50 780.50Q322 764 278 764Q234 764 206 780.50Q178 797 164.50 830.50Q151 864 151 914L216 914Q216 866 231.50 844Q247 822 278 822Q310 822 324.50 844Q339 866 339 914Z"  horiz-adv-x="554" vert-adv-y="1000"  />

      
      <glyph glyph-name="uni0170" unicode="&#x0170;" d="M480 210Q480 155 467 114Q454 73 428.50 45.50Q403 18 365 4.50Q327-9 277-9Q227-9 189 4.50Q151 18 125 45.50Q99 73 86 114Q73 155 73 210L73 700L159 700L159 202Q159 157 172 127Q185 97 211.50 81.50Q238 66 277 66Q306 66 328 74.50Q350 83 365 100Q380 117 387.50 142.50Q395 168 395 202L395 700L480 700L480 210M180 764L248 922L328 922L237 764L180 764M312 764L379 922L459 922L368 764L312 764Z"  horiz-adv-x="554" vert-adv-y="1000"  />

      
      <glyph glyph-name="uni016A" unicode="&#x016A;" d="M480 210Q480 155 467 114Q454 73 428.50 45.50Q403 18 365 4.50Q327-9 277-9Q227-9 189 4.50Q151 18 125 45.50Q99 73 86 114Q73 155 73 210L73 700L159 700L159 202Q159 157 172 127Q185 97 211.50 81.50Q238 66 277 66Q306 66 328 74.50Q350 83 365 100Q380 117 387.50 142.50Q395 168 395 202L395 700L480 700L480 210M161 793L161 860L394 860L394 793L161 793Z"  horiz-adv-x="554" vert-adv-y="1000"  />

      
      <glyph glyph-name="uni0172" unicode="&#x0172;" d="M314-209Q268-209 241.50-184.50Q215-160 215-117Q215-99 220.50-80Q226-61 241-41Q253-25 275-9Q210-9 166 15Q120 39 96.50 88Q73 137 73 210L73 700L159 700L159 202Q159 157 172 127Q185 97 211.50 81.50Q238 66 277 66Q316 66 342 81.50Q368 97 381.50 127Q395 157 395 202L395 700L480 700L480 210Q480 169 473 135Q466 101 451.50 75.50Q437 50 414 32Q398 20 382.50 9Q367-2 352.50-12.50Q338-23 325.50-33Q313-43 304-53.50Q295-64 290-75.50Q285-87 285-100Q285-122 297.50-132.50Q310-143 335-143Q347-143 358.50-140.50Q370-138 383-134L380-197Q365-203 349-206Q333-209 314-209Z"  horiz-adv-x="554" vert-adv-y="1000"  />

      
      <glyph glyph-name="uni016E" unicode="&#x016E;" d="M480 210Q480 155 467 114Q454 73 428.50 45.50Q403 18 365 4.50Q327-9 277-9Q227-9 189 4.50Q151 18 125 45.50Q99 73 86 114Q73 155 73 210L73 700L159 700L159 202Q159 157 172 127Q185 97 211.50 81.50Q238 66 277 66Q306 66 328 74.50Q350 83 365 100Q380 117 387.50 142.50Q395 168 395 202L395 700L480 700L480 210M279 751Q247 751 222.50 763.50Q198 776 185 799Q172 822 172 853Q172 883 185 905.50Q198 928 222.50 940Q247 952 279 952Q311 952 334 940Q357 928 370 905.50Q383 883 383 853Q383 822 370 799Q357 776 334 763.50Q311 751 279 751M279 796Q304 796 318 811Q332 826 332 853Q332 879 318 893.50Q304 908 279 908Q253 908 238 893.50Q223 879 223 853Q223 826 238 811Q253 796 279 796Z"  horiz-adv-x="554" vert-adv-y="1000"  />

      
      <glyph glyph-name="uni0168" unicode="&#x0168;" d="M480 210Q480 155 467 114Q454 73 428.50 45.50Q403 18 365 4.50Q327-9 277-9Q227-9 189 4.50Q151 18 125 45.50Q99 73 86 114Q73 155 73 210L73 700L159 700L159 202Q159 157 172 127Q185 97 211.50 81.50Q238 66 277 66Q306 66 328 74.50Q350 83 365 100Q380 117 387.50 142.50Q395 168 395 202L395 700L480 700L480 210M402 912Q411 855 403.50 823Q396 791 379 778.50Q362 766 341 766Q324 766 310 774.50Q296 783 285 796Q274 809 264.50 822Q255 835 246 843.50Q237 852 227 852Q220 852 214 845.50Q208 839 205.50 821.50Q203 804 208 771L153 771Q145 829 152.50 860.50Q160 892 177 905Q194 918 214 918Q231 918 244.50 909.50Q258 901 269 888Q280 875 290 862.50Q300 850 309 841.50Q318 833 328 833Q333 833 338 836.50Q343 840 346.50 848.50Q350 857 350.50 872.50Q351 888 347 912L402 912Z"  horiz-adv-x="554" vert-adv-y="1000"  />

      
      <glyph glyph-name="uni1E82" unicode="&#x1E82;" d="M175 0L23 700L109 700L223 154L353 700L435 700L566 150L680 700L767 700L610 0L523 0L393 544L262 0L175 0M362 764L442 922L537 922L429 764L362 764Z"  horiz-adv-x="790" vert-adv-y="1000"  />

      
      <glyph glyph-name="uni0174" unicode="&#x0174;" d="M175 0L23 700L109 700L223 154L353 700L435 700L566 150L680 700L767 700L610 0L523 0L393 544L262 0L175 0M394 875L318 764L254 764L346 922L443 922L535 764L470 764L394 875Z"  horiz-adv-x="790" vert-adv-y="1000"  />

      
      <glyph glyph-name="uni1E84" unicode="&#x1E84;" d="M175 0L23 700L109 700L223 154L353 700L435 700L566 150L680 700L767 700L610 0L523 0L393 544L262 0L175 0M427 783L427 887L506 887L506 783L427 783M283 783L283 887L362 887L362 783L283 783Z"  horiz-adv-x="790" vert-adv-y="1000"  />

      
      <glyph glyph-name="uni1E80" unicode="&#x1E80;" d="M175 0L23 700L109 700L223 154L353 700L435 700L566 150L680 700L767 700L610 0L523 0L393 544L262 0L175 0M428 764L360 764L252 922L347 922L428 764Z"  horiz-adv-x="790" vert-adv-y="1000"  />

      
      <glyph glyph-name="unidd" unicode="&#xdd;" d="M197 0L197 270L10 700L99 700L242 363L384 700L470 700L283 270L283 0L197 0M208 764L288 922L383 922L275 764L208 764Z"  horiz-adv-x="480" vert-adv-y="1000"  />

      
      <glyph glyph-name="uni0178" unicode="&#x0178;" d="M197 0L197 270L10 700L99 700L242 363L384 700L470 700L283 270L283 0L197 0M273 783L273 887L352 887L352 783L273 783M129 783L129 887L208 887L208 783L129 783Z"  horiz-adv-x="480" vert-adv-y="1000"  />

      
      <glyph glyph-name="uni0176" unicode="&#x0176;" d="M197 0L197 270L10 700L99 700L242 363L384 700L470 700L283 270L283 0L197 0M240 875L164 764L100 764L192 922L289 922L381 764L316 764L240 875Z"  horiz-adv-x="480" vert-adv-y="1000"  />

      
      <glyph glyph-name="uni1EF2" unicode="&#x1EF2;" d="M197 0L197 270L10 700L99 700L242 363L384 700L470 700L283 270L283 0L197 0M274 764L206 764L98 922L193 922L274 764Z"  horiz-adv-x="480" vert-adv-y="1000"  />

      
      <glyph glyph-name="uni017D" unicode="&#x017D;" d="M35 619L35 700L400 700L400 619L128 80L400 80L400 0L35 0L35 80L311 619L35 619M216 811L292 922L356 922L264 764L167 764L75 922L140 922L216 811Z"  horiz-adv-x="430" vert-adv-y="1000"  />

      
      <glyph glyph-name="uni0179" unicode="&#x0179;" d="M35 619L35 700L400 700L400 619L128 80L400 80L400 0L35 0L35 80L311 619L35 619M183 764L263 922L358 922L250 764L183 764Z"  horiz-adv-x="430" vert-adv-y="1000"  />

      
      <glyph glyph-name="uni017B" unicode="&#x017B;" d="M35 619L35 700L400 700L400 619L128 80L400 80L400 0L35 0L35 80L311 619L35 619M169 783L169 882L262 882L262 783L169 783Z"  horiz-adv-x="430" vert-adv-y="1000"  />

      
      <glyph glyph-name="unie1" unicode="&#xe1;" d="M45 377Q49 420 61 453Q73 486 93.50 508Q114 530 144 541.50Q174 553 214 553Q253 553 281.50 543Q310 533 329 512.50Q348 492 357.50 461Q367 430 367 388L367 86Q367 76 370 70Q373 64 378 61Q383 58 389 58L396 58Q398 58 402 59L400-1Q387-5 378.50-6Q370-7 358-7Q333-7 317 2Q301 11 294 30Q288 46 287 67Q274 44 258 27Q239 9 215.50 0Q192-9 164-9Q123-9 93.50 9Q64 27 48.50 60Q33 93 33 139Q33 186 50.50 220.50Q68 255 102.50 278Q137 301 188 313L287 336L287 384Q287 410 282.50 429.50Q278 449 268.50 461.50Q259 474 244.50 480Q230 486 210 486Q179 486 160 472.50Q141 459 131.50 433Q122 407 120 368L45 377M287 273L212 255Q177 247 155 231.50Q133 216 123.50 194.50Q114 173 114 145Q114 115 123 95.50Q132 76 148.50 66.50Q165 57 187 57Q206 57 221.50 64.50Q237 72 249.50 86Q262 100 270 120Q278 140 282.50 166Q287 192 287 223L287 273M181 609L261 767L356 767L248 609L181 609Z"  horiz-adv-x="430" vert-adv-y="1000"  />

      
      <glyph glyph-name="unie2" unicode="&#xe2;" d="M45 377Q49 420 61 453Q73 486 93.50 508Q114 530 144 541.50Q174 553 214 553Q253 553 281.50 543Q310 533 329 512.50Q348 492 357.50 461Q367 430 367 388L367 86Q367 76 370 70Q373 64 378 61Q383 58 389 58L396 58Q398 58 402 59L400-1Q387-5 378.50-6Q370-7 358-7Q333-7 317 2Q301 11 294 30Q288 46 287 67Q274 44 258 27Q239 9 215.50 0Q192-9 164-9Q123-9 93.50 9Q64 27 48.50 60Q33 93 33 139Q33 186 50.50 220.50Q68 255 102.50 278Q137 301 188 313L287 336L287 384Q287 410 282.50 429.50Q278 449 268.50 461.50Q259 474 244.50 480Q230 486 210 486Q179 486 160 472.50Q141 459 131.50 433Q122 407 120 368L45 377M287 273L212 255Q177 247 155 231.50Q133 216 123.50 194.50Q114 173 114 145Q114 115 123 95.50Q132 76 148.50 66.50Q165 57 187 57Q206 57 221.50 64.50Q237 72 249.50 86Q262 100 270 120Q278 140 282.50 166Q287 192 287 223L287 273M213 720L137 609L73 609L165 767L262 767L354 609L289 609L213 720Z"  horiz-adv-x="430" vert-adv-y="1000"  />

      
      <glyph glyph-name="unie4" unicode="&#xe4;" d="M45 377Q49 420 61 453Q73 486 93.50 508Q114 530 144 541.50Q174 553 214 553Q253 553 281.50 543Q310 533 329 512.50Q348 492 357.50 461Q367 430 367 388L367 86Q367 76 370 70Q373 64 378 61Q383 58 389 58L396 58Q398 58 402 59L400-1Q387-5 378.50-6Q370-7 358-7Q333-7 317 2Q301 11 294 30Q288 46 287 67Q274 44 258 27Q239 9 215.50 0Q192-9 164-9Q123-9 93.50 9Q64 27 48.50 60Q33 93 33 139Q33 186 50.50 220.50Q68 255 102.50 278Q137 301 188 313L287 336L287 384Q287 410 282.50 429.50Q278 449 268.50 461.50Q259 474 244.50 480Q230 486 210 486Q179 486 160 472.50Q141 459 131.50 433Q122 407 120 368L45 377M287 273L212 255Q177 247 155 231.50Q133 216 123.50 194.50Q114 173 114 145Q114 115 123 95.50Q132 76 148.50 66.50Q165 57 187 57Q206 57 221.50 64.50Q237 72 249.50 86Q262 100 270 120Q278 140 282.50 166Q287 192 287 223L287 273M246 628L246 732L325 732L325 628L246 628M102 628L102 732L181 732L181 628L102 628Z"  horiz-adv-x="430" vert-adv-y="1000"  />

      
      <glyph glyph-name="unie0" unicode="&#xe0;" d="M45 377Q49 420 61 453Q73 486 93.50 508Q114 530 144 541.50Q174 553 214 553Q253 553 281.50 543Q310 533 329 512.50Q348 492 357.50 461Q367 430 367 388L367 86Q367 76 370 70Q373 64 378 61Q383 58 389 58L396 58Q398 58 402 59L400-1Q387-5 378.50-6Q370-7 358-7Q333-7 317 2Q301 11 294 30Q288 46 287 67Q274 44 258 27Q239 9 215.50 0Q192-9 164-9Q123-9 93.50 9Q64 27 48.50 60Q33 93 33 139Q33 186 50.50 220.50Q68 255 102.50 278Q137 301 188 313L287 336L287 384Q287 410 282.50 429.50Q278 449 268.50 461.50Q259 474 244.50 480Q230 486 210 486Q179 486 160 472.50Q141 459 131.50 433Q122 407 120 368L45 377M287 273L212 255Q177 247 155 231.50Q133 216 123.50 194.50Q114 173 114 145Q114 115 123 95.50Q132 76 148.50 66.50Q165 57 187 57Q206 57 221.50 64.50Q237 72 249.50 86Q262 100 270 120Q278 140 282.50 166Q287 192 287 223L287 273M247 609L179 609L71 767L166 767L247 609Z"  horiz-adv-x="430" vert-adv-y="1000"  />

      
      <glyph glyph-name="unie5" unicode="&#xe5;" d="M45 377Q49 420 61 453Q73 486 93.50 508Q114 530 144 541.50Q174 553 214 553Q253 553 281.50 543Q310 533 329 512.50Q348 492 357.50 461Q367 430 367 388L367 86Q367 76 370 70Q373 64 378 61Q383 58 389 58L396 58Q398 58 402 59L400-1Q387-5 378.50-6Q370-7 358-7Q333-7 317 2Q301 11 294 30Q288 46 287 67Q274 44 258 27Q239 9 215.50 0Q192-9 164-9Q123-9 93.50 9Q64 27 48.50 60Q33 93 33 139Q33 186 50.50 220.50Q68 255 102.50 278Q137 301 188 313L287 336L287 384Q287 410 282.50 429.50Q278 449 268.50 461.50Q259 474 244.50 480Q230 486 210 486Q179 486 160 472.50Q141 459 131.50 433Q122 407 120 368L45 377M287 273L212 255Q177 247 155 231.50Q133 216 123.50 194.50Q114 173 114 145Q114 115 123 95.50Q132 76 148.50 66.50Q165 57 187 57Q206 57 221.50 64.50Q237 72 249.50 86Q262 100 270 120Q278 140 282.50 166Q287 192 287 223L287 273M215 596Q183 596 158.50 608.50Q134 621 121 644Q108 667 108 698Q108 728 121 750.50Q134 773 158.50 785Q183 797 215 797Q247 797 270 785Q293 773 306 750.50Q319 728 319 698Q319 667 306 644Q293 621 270 608.50Q247 596 215 596M215 641Q240 641 254 656Q268 671 268 698Q268 724 254 738.50Q240 753 215 753Q189 753 174 738.50Q159 724 159 698Q159 671 174 656Q189 641 215 641Z"  horiz-adv-x="430" vert-adv-y="1000"  />

      
      <glyph glyph-name="unie3" unicode="&#xe3;" d="M45 377Q49 420 61 453Q73 486 93.50 508Q114 530 144 541.50Q174 553 214 553Q253 553 281.50 543Q310 533 329 512.50Q348 492 357.50 461Q367 430 367 388L367 86Q367 76 370 70Q373 64 378 61Q383 58 389 58L396 58Q398 58 402 59L400-1Q387-5 378.50-6Q370-7 358-7Q333-7 317 2Q301 11 294 30Q288 46 287 67Q274 44 258 27Q239 9 215.50 0Q192-9 164-9Q123-9 93.50 9Q64 27 48.50 60Q33 93 33 139Q33 186 50.50 220.50Q68 255 102.50 278Q137 301 188 313L287 336L287 384Q287 410 282.50 429.50Q278 449 268.50 461.50Q259 474 244.50 480Q230 486 210 486Q179 486 160 472.50Q141 459 131.50 433Q122 407 120 368L45 377M287 273L212 255Q177 247 155 231.50Q133 216 123.50 194.50Q114 173 114 145Q114 115 123 95.50Q132 76 148.50 66.50Q165 57 187 57Q206 57 221.50 64.50Q237 72 249.50 86Q262 100 270 120Q278 140 282.50 166Q287 192 287 223L287 273M338 757Q347 700 339.50 668Q332 636 315 623.50Q298 611 277 611Q260 611 246 619.50Q232 628 221 641Q210 654 200.50 667Q191 680 182 688.50Q173 697 163 697Q156 697 150 690.50Q144 684 141.50 666.50Q139 649 144 616L89 616Q81 674 88.50 705.50Q96 737 113 750Q130 763 150 763Q167 763 180.50 754.50Q194 746 205 733Q216 720 226 707.50Q236 695 245 686.50Q254 678 264 678Q269 678 274 681.50Q279 685 282.50 693.50Q286 702 286.50 717.50Q287 733 283 757L338 757Z"  horiz-adv-x="430" vert-adv-y="1000"  />

      
      <glyph glyph-name="uni0103" unicode="&#x0103;" d="M45 377Q49 420 61 453Q73 486 93.50 508Q114 530 144 541.50Q174 553 214 553Q253 553 281.50 543Q310 533 329 512.50Q348 492 357.50 461Q367 430 367 388L367 86Q367 76 370 70Q373 64 378 61Q383 58 389 58L396 58Q398 58 402 59L400-1Q387-5 378.50-6Q370-7 358-7Q333-7 317 2Q301 11 294 30Q288 46 287 67Q274 44 258 27Q239 9 215.50 0Q192-9 164-9Q123-9 93.50 9Q64 27 48.50 60Q33 93 33 139Q33 186 50.50 220.50Q68 255 102.50 278Q137 301 188 313L287 336L287 384Q287 410 282.50 429.50Q278 449 268.50 461.50Q259 474 244.50 480Q230 486 210 486Q179 486 160 472.50Q141 459 131.50 433Q122 407 120 368L45 377M287 273L212 255Q177 247 155 231.50Q133 216 123.50 194.50Q114 173 114 145Q114 115 123 95.50Q132 76 148.50 66.50Q165 57 187 57Q206 57 221.50 64.50Q237 72 249.50 86Q262 100 270 120Q278 140 282.50 166Q287 192 287 223L287 273M275 759L340 759Q340 709 326.50 675.50Q313 642 285.50 625.50Q258 609 214 609Q170 609 142 625.50Q114 642 100.50 675.50Q87 709 87 759L152 759Q152 711 167.50 689Q183 667 214 667Q246 667 260.50 689Q275 711 275 759Z"  horiz-adv-x="430" vert-adv-y="1000"  />

      
      <glyph glyph-name="uni0101" unicode="&#x0101;" d="M45 377Q49 420 61 453Q73 486 93.50 508Q114 530 144 541.50Q174 553 214 553Q253 553 281.50 543Q310 533 329 512.50Q348 492 357.50 461Q367 430 367 388L367 86Q367 76 370 70Q373 64 378 61Q383 58 389 58L396 58Q398 58 402 59L400-1Q387-5 378.50-6Q370-7 358-7Q333-7 317 2Q301 11 294 30Q288 46 287 67Q274 44 258 27Q239 9 215.50 0Q192-9 164-9Q123-9 93.50 9Q64 27 48.50 60Q33 93 33 139Q33 186 50.50 220.50Q68 255 102.50 278Q137 301 188 313L287 336L287 384Q287 410 282.50 429.50Q278 449 268.50 461.50Q259 474 244.50 480Q230 486 210 486Q179 486 160 472.50Q141 459 131.50 433Q122 407 120 368L45 377M287 273L212 255Q177 247 155 231.50Q133 216 123.50 194.50Q114 173 114 145Q114 115 123 95.50Q132 76 148.50 66.50Q165 57 187 57Q206 57 221.50 64.50Q237 72 249.50 86Q262 100 270 120Q278 140 282.50 166Q287 192 287 223L287 273M97 638L97 705L330 705L330 638L97 638Z"  horiz-adv-x="430" vert-adv-y="1000"  />

      
      <glyph glyph-name="uni0105" unicode="&#x0105;" d="M327-1Q324 0 321 2Q305 11 298 30Q292 46 291 67Q278 44 262 27Q243 9 219.50 0Q196-9 168-9Q127-9 97.50 9Q68 27 52.50 60Q37 93 37 139Q37 186 54.50 220.50Q72 255 106 278Q140 301 192 313L291 336L291 384Q291 410 286.50 429.50Q282 449 272.50 461.50Q263 474 248.50 480Q234 486 214 486Q183 486 164 472.50Q145 459 135.50 433Q126 407 124 368L49 377Q53 420 65 453Q77 486 97.50 508Q118 530 148 541.50Q178 553 218 553Q257 553 285.50 543Q314 533 333 512.50Q352 492 361.50 461Q371 430 371 388L371 86Q371 76 374 70Q377 64 382 61Q387 58 393 58L400 58Q402 58 406 59L404-1Q376-16 357.50-29Q339-42 328-53.50Q317-65 312.50-76.50Q308-88 308-100Q308-122 320.50-132.50Q333-143 358-143Q370-143 381.50-140.50Q393-138 405-134L402-197Q388-203 371.50-206Q355-209 337-209Q290-209 263.50-187Q237-165 237-125Q237-107 242.50-88Q248-69 263.50-50Q279-31 308-12Q317-6 327-1M291 223L291 273L216 255Q180 246 158.50 231Q137 216 127.50 194.50Q118 173 118 145Q118 115 127 95.50Q136 76 152.50 66.50Q169 57 191 57Q210 57 225.50 64.50Q241 72 253.50 86Q266 100 274 120Q282 140 286.50 166Q291 192 291 223Z"  horiz-adv-x="430" vert-adv-y="1000"  />

      
      <glyph glyph-name="unie7" unicode="&#xe7;" d="M397 355L321 344Q317 393 306 424.50Q295 456 276.50 471Q258 486 230 486Q209 486 193 478Q177 470 165 453.50Q153 437 145 411Q137 385 133 350.50Q129 316 129 271Q129 227 133 192Q137 157 144.50 132Q152 107 164 90.50Q176 74 192 66Q208 58 229 58Q256 58 275 73.50Q294 89 306 120.50Q318 152 323 201L400 189Q392 124 370 80Q348 36 312 14Q279-7 236-9L230-58Q231-58 233-57Q248-51 264-51Q300-51 320.50-70.50Q341-90 341-125Q341-153 327.50-171.50Q314-190 289-199.50Q264-209 228-210Q207-210 185.50-207Q164-204 141-199L143-156Q168-162 186.50-164.50Q205-167 222-167Q242-167 255-162.50Q268-158 274.50-148.50Q281-139 281-126Q281-109 272.50-100.50Q264-92 247-92Q237-92 229-95Q221-98 213-104L175-99L186-5Q173-3 161 2Q132 13 110 35.50Q88 58 73.50 91.50Q59 125 52 170Q45 215 45 271Q45 327 52.50 372.50Q60 418 74.50 451.50Q89 485 111 507.50Q133 530 163 541.50Q193 553 230 553Q280 553 314 531.50Q348 510 368.50 466Q389 422 397 355Z"  horiz-adv-x="432" vert-adv-y="1000"  />

      
      <glyph glyph-name="uni0107" unicode="&#x0107;" d="M397 355L321 344Q317 393 306 424.50Q295 456 276.50 471Q258 486 230 486Q209 486 193 478Q177 470 165 453.50Q153 437 145 411Q137 385 133 350.50Q129 316 129 271Q129 227 133 192Q137 157 144.50 132Q152 107 164 90.50Q176 74 192 66Q208 58 229 58Q256 58 275 73.50Q294 89 306 120.50Q318 152 323 201L400 189Q392 124 370 80Q348 36 312 13.50Q276-9 226-9Q190-9 161 2Q132 13 110 35.50Q88 58 73.50 91.50Q59 125 52 170Q45 215 45 271Q45 327 52.50 372.50Q60 418 74.50 451.50Q89 485 111 507.50Q133 530 163 541.50Q193 553 230 553Q280 553 314 531.50Q348 510 368.50 466Q389 422 397 355M191 609L271 767L366 767L258 609L191 609Z"  horiz-adv-x="432" vert-adv-y="1000"  />

      
      <glyph glyph-name="uni010D" unicode="&#x010D;" d="M397 355L321 344Q317 393 306 424.50Q295 456 276.50 471Q258 486 230 486Q209 486 193 478Q177 470 165 453.50Q153 437 145 411Q137 385 133 350.50Q129 316 129 271Q129 227 133 192Q137 157 144.50 132Q152 107 164 90.50Q176 74 192 66Q208 58 229 58Q256 58 275 73.50Q294 89 306 120.50Q318 152 323 201L400 189Q392 124 370 80Q348 36 312 13.50Q276-9 226-9Q190-9 161 2Q132 13 110 35.50Q88 58 73.50 91.50Q59 125 52 170Q45 215 45 271Q45 327 52.50 372.50Q60 418 74.50 451.50Q89 485 111 507.50Q133 530 163 541.50Q193 553 230 553Q280 553 314 531.50Q348 510 368.50 466Q389 422 397 355M224 656L300 767L364 767L272 609L175 609L83 767L148 767L224 656Z"  horiz-adv-x="432" vert-adv-y="1000"  />

      
      <glyph glyph-name="uni0109" unicode="&#x0109;" d="M397 355L321 344Q317 393 306 424.50Q295 456 276.50 471Q258 486 230 486Q209 486 193 478Q177 470 165 453.50Q153 437 145 411Q137 385 133 350.50Q129 316 129 271Q129 227 133 192Q137 157 144.50 132Q152 107 164 90.50Q176 74 192 66Q208 58 229 58Q256 58 275 73.50Q294 89 306 120.50Q318 152 323 201L400 189Q392 124 370 80Q348 36 312 13.50Q276-9 226-9Q190-9 161 2Q132 13 110 35.50Q88 58 73.50 91.50Q59 125 52 170Q45 215 45 271Q45 327 52.50 372.50Q60 418 74.50 451.50Q89 485 111 507.50Q133 530 163 541.50Q193 553 230 553Q280 553 314 531.50Q348 510 368.50 466Q389 422 397 355M223 720L147 609L83 609L175 767L272 767L364 609L299 609L223 720Z"  horiz-adv-x="432" vert-adv-y="1000"  />

      
      <glyph glyph-name="uni010B" unicode="&#x010B;" d="M397 355L321 344Q317 393 306 424.50Q295 456 276.50 471Q258 486 230 486Q209 486 193 478Q177 470 165 453.50Q153 437 145 411Q137 385 133 350.50Q129 316 129 271Q129 227 133 192Q137 157 144.50 132Q152 107 164 90.50Q176 74 192 66Q208 58 229 58Q256 58 275 73.50Q294 89 306 120.50Q318 152 323 201L400 189Q392 124 370 80Q348 36 312 13.50Q276-9 226-9Q190-9 161 2Q132 13 110 35.50Q88 58 73.50 91.50Q59 125 52 170Q45 215 45 271Q45 327 52.50 372.50Q60 418 74.50 451.50Q89 485 111 507.50Q133 530 163 541.50Q193 553 230 553Q280 553 314 531.50Q348 510 368.50 466Q389 422 397 355M177 628L177 727L270 727L270 628L177 628Z"  horiz-adv-x="432" vert-adv-y="1000"  />

      
      <glyph glyph-name="uni010F" unicode="&#x010F;" d="M324 750L405 750L405 0L337 0L329 92Q324 79 318 68Q298 31 268.50 11Q239-9 200-9Q169-9 144.50 2.50Q120 14 101.50 36.50Q83 59 70.50 93Q58 127 51.50 172Q45 217 45 272Q45 327 51.50 372Q58 417 70.50 451Q83 485 101.50 507.50Q120 530 144.50 541.50Q169 553 200 553Q239 553 269 533.50Q299 514 319 477Q322 472 324 467L324 750M229 64Q260 64 281 90Q302 116 313 163Q324 210 324 271Q324 318 318 357Q312 396 300 424Q288 452 270 467Q252 482 229 482Q209 482 192.50 474Q176 466 164 449.50Q152 433 144.50 408Q137 383 133 349Q129 315 129 272Q129 230 133 196.50Q137 163 145 138Q153 113 165 96.50Q177 80 193 72Q209 64 229 64M473 537L473 750L559 750L535 537L473 537Z"  horiz-adv-x="527" vert-adv-y="1000"  />

      
      <glyph glyph-name="uni0111" unicode="&#x0111;" d="M219 615L219 677L324 677L324 750L405 750L405 677L473 677L473 615L405 615L405 0L337 0L330 91Q324 78 318 67Q298 30 268.50 10.50Q239-9 200-9Q169-9 144.50 2Q120 13 101.50 35.50Q83 58 70.50 91Q58 124 51.50 168Q45 212 45 267Q45 322 51.50 366Q58 410 70.50 443Q83 476 101.50 498.50Q120 521 144.50 532.50Q169 544 200 544Q239 544 269 524.50Q299 505 319 469Q322 464 324 459L324 615L219 615M229 64Q260 64 281 89.50Q302 115 313 161Q324 207 324 267Q324 313 318 350.50Q312 388 300 415.50Q288 443 270 458Q252 473 229 473Q209 473 192.50 465Q176 457 164 441Q152 425 144.50 400Q137 375 133 342Q129 309 129 267Q129 226 133 193Q137 160 145 136Q153 112 165 96Q177 80 193 72Q209 64 229 64Z"  horiz-adv-x="471" vert-adv-y="1000"  />

      
      <glyph glyph-name="unie9" unicode="&#xe9;" d="M232-9Q194-9 164 2.50Q134 14 111 36.50Q88 59 72.50 93.50Q57 128 49.50 173.50Q42 219 42 277Q42 331 49.50 375Q57 419 72 452.50Q87 486 109 508Q131 530 161 541.50Q191 553 228 553Q272 553 304.50 537Q337 521 359.50 489Q382 457 393 409.50Q404 362 404 299Q404 289 403 275Q402 261 400 250L126 250Q127 220 130 196Q134 160 142.50 134Q151 108 163.50 91Q176 74 193 66Q210 58 232 58Q260 58 279.50 70.50Q299 83 311 108.50Q323 134 327 173L403 162Q397 107 375.50 69Q354 31 318.50 11Q283-9 232-9M127 319L323 319Q323 358 317 388Q311 420 299 442Q287 464 269.50 475Q252 486 229 486Q208 486 191 478Q174 470 162 453.50Q150 437 142 412Q134 387 130 354Q128 337 127 319M188 609L268 767L363 767L255 609L188 609Z"  horiz-adv-x="441" vert-adv-y="1000"  />

      
      <glyph glyph-name="uniea" unicode="&#xea;" d="M232-9Q194-9 164 2.50Q134 14 111 36.50Q88 59 72.50 93.50Q57 128 49.50 173.50Q42 219 42 277Q42 331 49.50 375Q57 419 72 452.50Q87 486 109 508Q131 530 161 541.50Q191 553 228 553Q272 553 304.50 537Q337 521 359.50 489Q382 457 393 409.50Q404 362 404 299Q404 289 403 275Q402 261 400 250L126 250Q127 220 130 196Q134 160 142.50 134Q151 108 163.50 91Q176 74 193 66Q210 58 232 58Q260 58 279.50 70.50Q299 83 311 108.50Q323 134 327 173L403 162Q397 107 375.50 69Q354 31 318.50 11Q283-9 232-9M127 319L323 319Q323 358 317 388Q311 420 299 442Q287 464 269.50 475Q252 486 229 486Q208 486 191 478Q174 470 162 453.50Q150 437 142 412Q134 387 130 354Q128 337 127 319M220 720L144 609L80 609L172 767L269 767L361 609L296 609L220 720Z"  horiz-adv-x="441" vert-adv-y="1000"  />

      
      <glyph glyph-name="unieb" unicode="&#xeb;" d="M232-9Q194-9 164 2.50Q134 14 111 36.50Q88 59 72.50 93.50Q57 128 49.50 173.50Q42 219 42 277Q42 331 49.50 375Q57 419 72 452.50Q87 486 109 508Q131 530 161 541.50Q191 553 228 553Q272 553 304.50 537Q337 521 359.50 489Q382 457 393 409.50Q404 362 404 299Q404 289 403 275Q402 261 400 250L126 250Q127 220 130 196Q134 160 142.50 134Q151 108 163.50 91Q176 74 193 66Q210 58 232 58Q260 58 279.50 70.50Q299 83 311 108.50Q323 134 327 173L403 162Q397 107 375.50 69Q354 31 318.50 11Q283-9 232-9M127 319L323 319Q323 358 317 388Q311 420 299 442Q287 464 269.50 475Q252 486 229 486Q208 486 191 478Q174 470 162 453.50Q150 437 142 412Q134 387 130 354Q128 337 127 319M253 628L253 732L332 732L332 628L253 628M109 628L109 732L188 732L188 628L109 628Z"  horiz-adv-x="441" vert-adv-y="1000"  />

      
      <glyph glyph-name="unie8" unicode="&#xe8;" d="M232-9Q194-9 164 2.50Q134 14 111 36.50Q88 59 72.50 93.50Q57 128 49.50 173.50Q42 219 42 277Q42 331 49.50 375Q57 419 72 452.50Q87 486 109 508Q131 530 161 541.50Q191 553 228 553Q272 553 304.50 537Q337 521 359.50 489Q382 457 393 409.50Q404 362 404 299Q404 289 403 275Q402 261 400 250L126 250Q127 220 130 196Q134 160 142.50 134Q151 108 163.50 91Q176 74 193 66Q210 58 232 58Q260 58 279.50 70.50Q299 83 311 108.50Q323 134 327 173L403 162Q397 107 375.50 69Q354 31 318.50 11Q283-9 232-9M127 319L323 319Q323 358 317 388Q311 420 299 442Q287 464 269.50 475Q252 486 229 486Q208 486 191 478Q174 470 162 453.50Q150 437 142 412Q134 387 130 354Q128 337 127 319M254 609L186 609L78 767L173 767L254 609Z"  horiz-adv-x="441" vert-adv-y="1000"  />

      
      <glyph glyph-name="uni0115" unicode="&#x0115;" d="M232-9Q194-9 164 2.50Q134 14 111 36.50Q88 59 72.50 93.50Q57 128 49.50 173.50Q42 219 42 277Q42 331 49.50 375Q57 419 72 452.50Q87 486 109 508Q131 530 161 541.50Q191 553 228 553Q272 553 304.50 537Q337 521 359.50 489Q382 457 393 409.50Q404 362 404 299Q404 289 403 275Q402 261 400 250L126 250Q127 220 130 196Q134 160 142.50 134Q151 108 163.50 91Q176 74 193 66Q210 58 232 58Q260 58 279.50 70.50Q299 83 311 108.50Q323 134 327 173L403 162Q397 107 375.50 69Q354 31 318.50 11Q283-9 232-9M127 319L323 319Q323 358 317 388Q311 420 299 442Q287 464 269.50 475Q252 486 229 486Q208 486 191 478Q174 470 162 453.50Q150 437 142 412Q134 387 130 354Q128 337 127 319M282 759L347 759Q347 709 333.50 675.50Q320 642 292.50 625.50Q265 609 221 609Q177 609 149 625.50Q121 642 107.50 675.50Q94 709 94 759L159 759Q159 711 174.50 689Q190 667 221 667Q253 667 267.50 689Q282 711 282 759Z"  horiz-adv-x="441" vert-adv-y="1000"  />

      
      <glyph glyph-name="uni011B" unicode="&#x011B;" d="M232-9Q194-9 164 2.50Q134 14 111 36.50Q88 59 72.50 93.50Q57 128 49.50 173.50Q42 219 42 277Q42 331 49.50 375Q57 419 72 452.50Q87 486 109 508Q131 530 161 541.50Q191 553 228 553Q272 553 304.50 537Q337 521 359.50 489Q382 457 393 409.50Q404 362 404 299Q404 289 403 275Q402 261 400 250L126 250Q127 220 130 196Q134 160 142.50 134Q151 108 163.50 91Q176 74 193 66Q210 58 232 58Q260 58 279.50 70.50Q299 83 311 108.50Q323 134 327 173L403 162Q397 107 375.50 69Q354 31 318.50 11Q283-9 232-9M127 319L323 319Q323 358 317 388Q311 420 299 442Q287 464 269.50 475Q252 486 229 486Q208 486 191 478Q174 470 162 453.50Q150 437 142 412Q134 387 130 354Q128 337 127 319M221 656L297 767L361 767L269 609L172 609L80 767L145 767L221 656Z"  horiz-adv-x="441" vert-adv-y="1000"  />

      
      </font>
</defs>
</svg>
