<?xml version="1.0" standalone="no"?>
  <!DOCTYPE svg PUBLIC "-//W3C//DTD SVG 1.1//EN" "http://www.w3.org/Graphics/SVG/1.1/DTD/svg11.dtd" >
  <svg>
  <metadata>
  Created by font-carrier
  </metadata>
  <defs>
  <font id="TRYGrtsk-SemiBoldTera" horiz-adv-x="1563" vert-adv-y="1563" >
    <font-face
      
      font-family="TRY Grtsk SemiBold Tera"
      
      font-weight="400"
      
      font-stretch="normal"
      
      units-per-em="1000"
      
      ascent="1000"
      
      descent="-200"
      
    />
      <missing-glyph />

      

      
      <glyph glyph-name="uni41" unicode="&#x41;" d="M746 0L668 150L260 150L182 0L5 0L381 700L553 700L930 0L746 0M602 276L464 542L326 276L602 276Z"  horiz-adv-x="935" vert-adv-y="1000"  />

      
      <glyph glyph-name="uni42" unicode="&#x42;" d="M105 0L105 700L616 700Q671 700 715 688Q759 676 789.50 652.50Q820 629 836.50 596Q853 563 853 521Q853 491 843.50 464.50Q834 438 814.50 416Q795 394 766 378Q751 369 732 362Q768 353 796 338Q838 314 860.50 277Q883 240 883 192Q883 132 853 89Q823 46 767 23Q711 0 631 0L105 0M270 292L270 122L599 122Q636 122 660.50 131.50Q685 141 697 159.50Q709 178 709 205Q709 234 696 253Q683 272 658.50 282Q634 292 598 292L270 292M270 578L270 414L585 414Q609 414 627.50 419.50Q646 425 659.50 435.50Q673 446 679.50 461.50Q686 477 686 497Q686 524 674.50 542Q663 560 640 569Q617 578 584 578L270 578Z"  horiz-adv-x="941" vert-adv-y="1000"  />

      
      <glyph glyph-name="uni43" unicode="&#x43;" d="M52 350Q52 416 71.50 472Q91 528 128.50 572Q166 616 219.50 647Q273 678 342 694.50Q411 711 492 711Q606 711 691 683Q776 655 830.50 601Q885 547 905 468L731 434Q719 481 688.50 513Q658 545 609 561.50Q560 578 492 578Q439 578 396.50 568Q354 558 321.50 539.50Q289 521 267.50 493.50Q246 466 235 430Q224 394 224 350Q224 305 235 269.50Q246 234 267.50 206.50Q289 179 321.50 160Q354 141 396.50 131.50Q439 122 492 122Q562 122 612 139Q662 156 692 189Q722 222 732 271L905 237Q886 156 832 100.50Q778 45 692.50 17Q607-11 492-11Q422-11 362 0Q302 11 253 33Q204 55 166.50 86.50Q129 118 103.50 158.50Q78 199 65 247Q52 295 52 350Z"  horiz-adv-x="948" vert-adv-y="1000"  />

      
      <glyph glyph-name="uni44" unicode="&#x44;" d="M105 0L105 700L523 700Q600 700 663.50 684.50Q727 669 776 639.50Q825 610 858 567.50Q891 525 908 469.50Q925 414 925 348Q925 283 908 228Q891 173 858 131Q825 89 776 59.50Q727 30 663.50 15Q600 0 523 0L105 0M529 133Q574 133 609.50 142.50Q645 152 672 169.50Q699 187 716.50 213Q734 239 743.50 273Q753 307 753 348Q753 390 743.50 424.50Q734 459 716.50 485.50Q699 512 672 530Q645 548 609.50 557.50Q574 567 529 567L274 567L274 133L529 133Z"  horiz-adv-x="983" vert-adv-y="1000"  />

      
      <glyph glyph-name="uni45" unicode="&#x45;" d="M105 0L105 700L783 700L783 572L271 572L271 420L725 420L725 294L271 294L271 128L791 128L791 0L105 0Z"  horiz-adv-x="845" vert-adv-y="1000"  />

      
      <glyph glyph-name="uni46" unicode="&#x46;" d="M105 0L105 700L783 700L783 567L274 567L274 390L725 390L725 256L274 256L274 0L105 0Z"  horiz-adv-x="826" vert-adv-y="1000"  />

      
      <glyph glyph-name="uni47" unicode="&#x47;" d="M492 254L492 375L928 375L928 0L804 0L791 118Q766 82 730 56Q685 23 623.50 6Q562-11 482-11Q402-11 334.50 5Q267 21 214.50 51.50Q162 82 125.50 126Q89 170 70.50 226Q52 282 52 349Q52 416 71.50 472.50Q91 529 129.50 573Q168 617 223 648Q278 679 349 695Q420 711 505 711Q619 711 703 686Q787 661 840 611.50Q893 562 915 489L746 453Q733 493 702.50 521Q672 549 623 563.50Q574 578 505 578Q449 578 404.50 568Q360 558 326 539.50Q292 521 269.50 493.50Q247 466 235.50 430Q224 394 224 349Q224 305 235.50 269Q247 233 269.50 205.50Q292 178 325.50 159.50Q359 141 403.50 131.50Q448 122 504 122Q590 122 648 142.50Q706 163 736 202Q754 225 762 254L492 254Z"  horiz-adv-x="1003" vert-adv-y="1000"  />

      
      <glyph glyph-name="uni48" unicode="&#x48;" d="M105 0L105 700L274 700L274 427L749 427L749 700L918 700L918 0L749 0L749 293L274 293L274 0L105 0Z"  horiz-adv-x="1023" vert-adv-y="1000"  />

      
      <glyph glyph-name="uni49" unicode="&#x49;" d="M105 0L105 700L274 700L274 0L105 0Z"  horiz-adv-x="379" vert-adv-y="1000"  />

      
      <glyph glyph-name="uni4a" unicode="&#x4a;" d="M467 262Q467 192 450.50 141Q434 90 399 56Q364 22 309.50 5.50Q255-11 178-11Q145-11 109.50-8Q74-5 35 2L29 137Q50 134 70 132Q90 130 109.50 129Q129 128 147 128Q204 128 237 141Q270 154 284 183Q298 212 298 259L298 700L467 700L467 262Z"  horiz-adv-x="563" vert-adv-y="1000"  />

      
      <glyph glyph-name="uni4b" unicode="&#x4b;" d="M105 0L105 700L271 700L271 389L665 700L891 700L482 381L919 0L678 0L353 280L271 216L271 0L105 0Z"  horiz-adv-x="914" vert-adv-y="1000"  />

      
      <glyph glyph-name="uni4c" unicode="&#x4c;" d="M105 0L105 700L274 700L274 133L729 133L729 0L105 0Z"  horiz-adv-x="764" vert-adv-y="1000"  />

      
      <glyph glyph-name="uni4d" unicode="&#x4d;" d="M105 0L105 700L285 700L595 260L902 700L1079 700L1079 0L922 0L922 489L666 115L521 115L263 484L263 0L105 0Z"  horiz-adv-x="1184" vert-adv-y="1000"  />

      
      <glyph glyph-name="uni4e" unicode="&#x4e;" d="M105 0L105 700L270 700L745 187L745 700L900 700L900 0L735 0L260 513L260 0L105 0Z"  horiz-adv-x="1006" vert-adv-y="1000"  />

      
      <glyph glyph-name="uni4f" unicode="&#x4f;" d="M499-11Q415-11 344.50 5Q274 21 220 52Q166 83 128.50 127Q91 171 71.50 227Q52 283 52 349Q52 416 71.50 472Q91 528 128.50 572.50Q166 617 220 648Q274 679 344.50 695Q415 711 499 711Q584 711 654 695Q724 679 778.50 648Q833 617 870.50 572.50Q908 528 927.50 472Q947 416 947 349Q947 283 927.50 227Q908 171 870.50 127Q833 83 778.50 52Q724 21 654 5Q584-11 499-11M499 122Q554 122 598 132Q642 142 675.50 160.50Q709 179 731 206.50Q753 234 764 269.50Q775 305 775 349Q775 393 764 429Q753 465 731 493Q709 521 675.50 539.50Q642 558 598 568Q554 578 499 578Q445 578 400.50 568Q356 558 323 539.50Q290 521 268 493Q246 465 235 429Q224 393 224 349Q224 305 235 269.50Q246 234 268 206.50Q290 179 323 160.50Q356 142 400.50 132Q445 122 499 122Z"  horiz-adv-x="999" vert-adv-y="1000"  />

      
      <glyph glyph-name="uni50" unicode="&#x50;" d="M105 0L105 700L567 700Q631 700 682 682.50Q733 665 769.50 632.50Q806 600 825 554Q844 508 844 450Q844 375 809.50 319Q775 263 711.50 233Q648 203 560 203L274 203L274 0L105 0M274 568L274 335L534 335Q580 335 610.50 348Q641 361 657 387Q673 413 673 449Q673 489 657 515Q641 541 610.50 554.50Q580 568 534 568L274 568Z"  horiz-adv-x="886" vert-adv-y="1000"  />

      
      <glyph glyph-name="uni51" unicode="&#x51;" d="M499-11Q415-11 344.50 5Q274 21 220 52Q166 83 128.50 127Q91 171 71.50 227Q52 283 52 349Q52 416 71.50 472Q91 528 128.50 572.50Q166 617 220 648Q274 679 344.50 695Q415 711 499 711Q584 711 654 695Q724 679 778.50 648Q833 617 870.50 572.50Q908 528 927.50 472Q947 416 947 349Q947 283 927.50 227Q908 171 871 127Q840 91 798 64L920-81L735-81L660 6Q657 6 654 5Q584-11 499-11M457 260L631 260L701 177Q718 190 731 206Q753 234 764 269.50Q775 305 775 349Q775 393 764 429Q753 465 731 493Q709 521 675.50 539.50Q642 558 598 568Q554 578 499 578Q445 578 400.50 568Q356 558 323 539.50Q290 521 268 493Q246 465 235 429Q224 393 224 349Q224 305 235 269.50Q246 234 268 206.50Q290 179 323 160Q356 141 400.50 131.50Q445 122 499 122Q537 122 569 127L457 260Z"  horiz-adv-x="1010" vert-adv-y="1000"  />

      
      <glyph glyph-name="uni52" unicode="&#x52;" d="M105 0L105 700L581 700Q643 700 691.50 684.50Q740 669 772.50 640Q805 611 822.50 569.50Q840 528 840 476Q840 410 809 361Q778 312 721 285Q680 266 626 260L867 0L658 0L435 246L274 246L274 0L105 0M274 572L274 374L551 374Q581 374 603 380.50Q625 387 640.50 399.50Q656 412 663.50 430.50Q671 449 671 473Q671 497 663.50 515.50Q656 534 641 546.50Q626 559 603.50 565.50Q581 572 551 572L274 572Z"  horiz-adv-x="908" vert-adv-y="1000"  />

      
      <glyph glyph-name="uni53" unicode="&#x53;" d="M42 213L213 237Q222 197 251.50 169.50Q281 142 331 128.50Q381 115 452 115Q511 115 553.50 120.50Q596 126 622.50 136.50Q649 147 661 162Q673 177 673 197Q673 222 659.50 238Q646 254 612.50 263.50Q579 273 519 279L327 292Q261 298 211.50 313.50Q162 329 129.50 353.50Q97 378 80.50 412Q64 446 64 491Q64 542 88.50 582.50Q113 623 161 652Q209 681 279 696Q349 711 441 711Q557 711 637.50 687.50Q718 664 765 617.50Q812 571 827 501L656 476Q642 532 590.50 558.50Q539 585 438 585Q383 585 344 579.50Q305 574 281 564Q257 554 246 539Q235 524 235 506Q235 481 249.50 466Q264 451 296 442Q328 433 382 427L578 414Q669 405 728 381Q787 357 815.50 315.50Q844 274 844 213Q844 160 820 118.50Q796 77 746.50 48Q697 19 623 4Q549-11 449-11Q358-11 287.50 2.50Q217 16 166.50 43.50Q116 71 85 113.50Q54 156 42 213Z"  horiz-adv-x="892" vert-adv-y="1000"  />

      
      <glyph glyph-name="uni54" unicode="&#x54;" d="M332 0L332 567L27 567L27 700L809 700L809 567L501 567L501 0L332 0Z"  horiz-adv-x="835" vert-adv-y="1000"  />

      
      <glyph glyph-name="uni55" unicode="&#x55;" d="M870 313Q870 236 843.50 175.50Q817 115 767 73.50Q717 32 644.50 10.50Q572-11 479-11Q386-11 313.50 10.50Q241 32 190.50 73.50Q140 115 114 175.50Q88 236 88 313L88 700L257 700L257 314Q257 250 282 207.50Q307 165 356.50 143.50Q406 122 478 122Q534 122 575.50 134Q617 146 645 170.50Q673 195 687 230.50Q701 266 701 314L701 700L870 700L870 313Z"  horiz-adv-x="958" vert-adv-y="1000"  />

      
      <glyph glyph-name="uni56" unicode="&#x56;" d="M198 700L452 176L708 700L888 700L534 0L362 0L9 700L198 700Z"  horiz-adv-x="897" vert-adv-y="1000"  />

      
      <glyph glyph-name="uni57" unicode="&#x57;" d="M274 0L9 700L189 700L366 192L563 700L724 700L924 194L1100 700L1277 700L1012 0L848 0L641 513L435 0L274 0Z"  horiz-adv-x="1286" vert-adv-y="1000"  />

      
      <glyph glyph-name="uni58" unicode="&#x58;" d="M623 0L412 249L209 0L8 0L312 358L14 700L222 700L426 459L624 700L824 700L524 353L831 0L623 0Z"  horiz-adv-x="839" vert-adv-y="1000"  />

      
      <glyph glyph-name="uni59" unicode="&#x59;" d="M332 0L332 275L0 700L207 700L421 415L638 700L835 700L501 272L501 0L332 0Z"  horiz-adv-x="835" vert-adv-y="1000"  />

      
      <glyph glyph-name="uni5a" unicode="&#x5a;" d="M51 569L51 700L779 700L779 577L275 131L779 131L779 0L48 0L48 126L545 569L51 569Z"  horiz-adv-x="826" vert-adv-y="1000"  />

      
      <glyph glyph-name="unic6" unicode="&#xc6;" d="M693 0L693 156L301 156L187 0L0 0L511 700L1345 700L1345 572L859 572L859 420L1287 420L1287 294L859 294L859 128L1353 128L1353 0L693 0M693 282L693 572L607 572L394 282L693 282Z"  horiz-adv-x="1406" vert-adv-y="1000"  />

      
      <glyph glyph-name="uni0152" unicode="&#x0152;" d="M694 0L505 0Q420 0 348.50 15.50Q277 31 222 61Q167 91 129 133.50Q91 176 71.50 230.50Q52 285 52 349Q52 414 71.50 468.50Q91 523 129 566Q167 609 222 639Q277 669 348.50 684.50Q420 700 505 700L1345 700L1345 572L860 572L860 420L1287 420L1287 294L860 294L860 128L1353 128L1353 0L694 0M694 572L505 572Q449 572 404 562.50Q359 553 325.50 535Q292 517 269.50 489.50Q247 462 235.50 427Q224 392 224 349Q224 306 235.50 271Q247 236 269.50 209.50Q292 183 325.50 165Q359 147 404 137.50Q449 128 505 128L694 128L694 572Z"  horiz-adv-x="1406" vert-adv-y="1000"  />

      
      <glyph glyph-name="uni0141" unicode="&#x0141;" d="M9 255L9 344L118 378L118 700L287 700L287 430L469 486L469 398L287 341L287 133L742 133L742 0L118 0L118 289L9 255Z"  horiz-adv-x="778" vert-adv-y="1000"  />

      
      <glyph glyph-name="unid8" unicode="&#xd8;" d="M87 0L172 85Q148 104 128 127Q91 171 71.50 227Q52 283 52 349Q52 416 71.50 472Q91 528 128.50 572.50Q166 617 220 648Q274 679 344.50 695Q415 711 499 711Q584 711 654 695Q706 683 749 663L786 700L913 700L828 615Q851 595 871 573Q908 528 927.50 472Q947 416 947 349Q947 283 927.50 227Q908 171 870.50 127Q833 83 778.50 52Q724 21 654 5Q584-11 499-11Q415-11 345 5Q293 17 250 37L213 0L87 0M280 193L642 555Q622 563 598 568Q554 578 499 578Q445 578 400.50 568Q356 558 323 539.50Q290 521 268 493Q246 465 235 429Q224 393 224 349Q224 305 235 269.50Q246 234 268 206Q274 199 280 193M499 122Q554 122 598 132Q642 142 675.50 160.50Q709 179 731 206.50Q753 234 764 269.50Q775 305 775 349Q775 393 764 429Q753 465 731 493Q725 500 719 506L358 144Q378 137 401 132Q445 122 499 122Z"  horiz-adv-x="999" vert-adv-y="1000"  />

      
      <glyph glyph-name="unid0" unicode="&#xd0;" d="M8 308L8 394L117 394L117 700L535 700Q612 700 675.50 684.50Q739 669 788 639.50Q837 610 870 567.50Q903 525 920.50 469.50Q938 414 938 348Q938 283 920.50 228Q903 173 870 131Q837 89 788 59.50Q739 30 675.50 15Q612 0 535 0L117 0L117 308L8 308M541 133Q586 133 621.50 142.50Q657 152 684 169.50Q711 187 728.50 213Q746 239 755.50 273Q765 307 765 348Q765 390 755.50 424.50Q746 459 728.50 485.50Q711 512 684 530Q657 548 621.50 557.50Q586 567 541 567L286 567L286 394L476 394L476 308L286 308L286 133L541 133Z"  horiz-adv-x="995" vert-adv-y="1000"  />

      
      <glyph glyph-name="unide" unicode="&#xde;" d="M105 0L105 700L274 700L274 602L567 602Q631 602 682 584.50Q733 567 769 534.50Q805 502 824.50 456Q844 410 844 352Q844 276 809.50 220.50Q775 165 711.50 135Q648 105 560 105L274 105L274 0L105 0M274 470L274 236L534 236Q580 236 610.50 249.50Q641 263 657 289Q673 315 673 351Q673 390 657 416.50Q641 443 610.50 456.50Q580 470 534 470L274 470Z"  horiz-adv-x="886" vert-adv-y="1000"  />

      
      <glyph glyph-name="uni0191" unicode="&#x0191;" d="M105 700L783 700L783 567L274 567L274 390L725 390L725 256L274 256L274 59Q274-30 245-90Q216-150 157.50-180.50Q99-211 9-211Q-21-211-50.50-207.50Q-80-204-112-198L-118-63Q-97-67-72.50-70Q-48-73-27-73Q21-73 50-60Q79-47 92-18Q105 11 105 59L105 700Z"  horiz-adv-x="826" vert-adv-y="1000"  />

      
      <glyph glyph-name="uni1E9E" unicode="&#x1E9E;" d="M93 0L93 403Q93 500 135.50 568.50Q178 637 265.50 674Q353 711 486 711Q544 711 599.50 708.50Q655 706 709.50 702Q764 698 820 691L820 565L661 417L783 407Q868 395 918 368.50Q968 342 989.50 302.50Q1011 263 1011 211Q1011 161 988.50 120Q966 79 921 50Q876 21 807.50 5Q739-11 646-11Q595-11 545.50-6Q496-1 448 9.50Q400 20 356 37L398 163Q435 147 474 137Q513 127 553 122.50Q593 118 631 118Q679 118 714.50 122Q750 126 774.50 134Q799 142 814 153Q829 164 836 178Q843 192 843 208Q843 225 837.50 238.50Q832 252 818.50 261.50Q805 271 783 277Q761 283 728 287L486 306L486 406L661 573Q649 574 637 574Q599 577 562.50 577.50Q526 578 485 578Q407 578 357.50 559Q308 540 284.50 502Q261 464 261 407L261 0L93 0Z"  horiz-adv-x="1047" vert-adv-y="1000"  />

      
      <glyph glyph-name="uni61" unicode="&#x61;" d="M51 384Q63 428 88.50 461Q114 494 154 515.50Q194 537 248.50 548Q303 559 373 559Q453 559 511.50 546.50Q570 534 607.50 508Q645 482 663 442.50Q681 403 681 348L681 147Q681 133 685 124Q689 115 697 110.50Q705 106 718 106Q724 106 730 106.50Q736 107 741 108L738 1Q721-4 701.50-7Q682-10 664-10Q620-10 591 4.50Q562 19 548 47Q538 68 535 95Q527 86 519 78Q489 50 450 30Q411 10 363.50-0.50Q316-11 263-11Q190-11 138 8.50Q86 28 59 64.50Q32 101 32 152Q32 203 58 238.50Q84 274 139 294.50Q194 315 281 322L531 340Q531 366 522 386Q513 406 494 419Q475 432 444 438.50Q413 445 370 445Q319 445 284 436Q249 427 230 408Q211 389 206 359L51 384M534 246L277 226Q247 224 227 216Q207 208 197 194.50Q187 181 187 162Q187 142 198.50 128Q210 114 234.50 107Q259 100 296 100Q336 100 371.50 107Q407 114 436.50 126Q466 138 488 155Q510 172 522 192.50Q534 213 534 237L534 246Z"  horiz-adv-x="767" vert-adv-y="1000"  />

      
      <glyph glyph-name="uni62" unicode="&#x62;" d="M232 0L90 0L90 750L249 750L249 453Q261 466 274 479Q317 517 375 538Q433 559 503 559Q560 559 608.50 546Q657 533 694.50 508.50Q732 484 758 449Q784 414 797.50 370Q811 326 811 274Q811 222 797.50 178Q784 134 758 99Q732 64 694.50 39.50Q657 15 609 2Q561-11 503-11Q432-11 374 10Q316 31 274 69Q257 85 243 102L232 0M453 113Q492 113 523 120Q554 127 577 140.50Q600 154 616 173.50Q632 193 640 218.50Q648 244 648 274Q648 304 640 329Q632 354 616 374Q600 394 577 407.50Q554 421 523 428Q492 435 453 435Q389 435 343 415.50Q297 396 273 360Q249 324 249 274Q249 237 262.50 207Q276 177 302.50 156Q329 135 366.50 124Q404 113 453 113Z"  horiz-adv-x="860" vert-adv-y="1000"  />

      
      <glyph glyph-name="uni63" unicode="&#x63;" d="M749 356L591 327Q583 363 560 387.50Q537 412 499 424.50Q461 437 408 437Q369 437 337.50 430Q306 423 282.50 409.50Q259 396 243.50 376.50Q228 357 220.50 331Q213 305 213 274Q213 243 220.50 217Q228 191 243.50 171.50Q259 152 282.50 138.50Q306 125 337.50 118Q369 111 409 111Q463 111 501.50 123.50Q540 136 563 161Q586 186 593 225L751 195Q735 129 690 82.50Q645 36 574 12.50Q503-11 409-11Q340-11 284 1.50Q228 14 184 38.50Q140 63 110 97.50Q80 132 64.50 176.50Q49 221 49 274Q49 327 64.50 371.50Q80 416 110 450.50Q140 485 184 509.50Q228 534 284 546.50Q340 559 408 559Q503 559 573.50 536Q644 513 688.50 467.50Q733 422 749 356Z"  horiz-adv-x="783" vert-adv-y="1000"  />

      
      <glyph glyph-name="uni64" unicode="&#x64;" d="M611 750L771 750L771 0L627 0L617 102Q603 84 586 69Q544 31 486 10Q428-11 357-11Q300-11 251.50 2Q203 15 165.50 39.50Q128 64 102 99Q76 134 62.50 178Q49 222 49 274Q49 326 62.50 370Q76 414 102.50 449Q129 484 166.50 508.50Q204 533 252 546Q300 559 357 559Q428 559 486 538Q544 517 586 479Q600 466 611 453L611 750M407 113Q472 113 517.50 132.50Q563 152 587 188Q611 224 611 274Q611 311 597.50 340.50Q584 370 558 391.50Q532 413 494 424Q456 435 407 435Q369 435 337.50 428Q306 421 283 407.50Q260 394 244 374Q228 354 220.50 329Q213 304 213 274Q213 244 220.50 218.50Q228 193 244 173.50Q260 154 283 140.50Q306 127 337.50 120Q369 113 407 113Z"  horiz-adv-x="861" vert-adv-y="1000"  />

      
      <glyph glyph-name="uni65" unicode="&#x65;" d="M413-11Q345-11 287.50 2Q230 15 186 39Q142 63 111.50 98Q81 133 65 177.50Q49 222 49 275Q49 326 64.50 369.50Q80 413 110.50 448Q141 483 185 508Q229 533 285 546Q341 559 409 559Q490 559 555 540.50Q620 522 666.50 486.50Q713 451 737.50 401.50Q762 352 762 290Q762 275 761 262Q760 249 757 236L208 236Q209 225 212 216Q221 189 237.50 168.50Q254 148 279 134.50Q304 121 337.50 113.50Q371 106 414 106Q470 106 509 115Q548 124 571.50 142Q595 160 604 185L758 158Q740 102 698 64.50Q656 27 586.50 8Q517-11 413-11M211 330L604 330Q600 351 591 367Q577 393 552 410Q527 427 491.50 435.50Q456 444 411 444Q368 444 334.50 437Q301 430 277 416Q253 402 236.50 382Q220 362 212 335Q211 333 211 330Z"  horiz-adv-x="807" vert-adv-y="1000"  />

      
      <glyph glyph-name="uni66" unicode="&#x66;" d="M129 549Q129 620 157.50 667Q186 714 243 737.50Q300 761 387 761Q421 761 457 757.50Q493 754 523 748L518 631Q501 635 482.50 637Q464 639 445.50 640Q427 641 408 641Q366 641 339.50 632Q313 623 301 603Q289 583 289 549L289 548L521 548L521 428L289 428L289 0L129 0L129 428L14 428L14 548L129 548L129 549Z"  horiz-adv-x="532" vert-adv-y="1000"  />

      
      <glyph glyph-name="uni67" unicode="&#x67;" d="M375 559Q447 559 504 547.50Q561 536 602 513Q607 510 612 507Q635 542 670 560Q712 581 767 576L761 447Q729 452 702 451Q686 450 670 446Q684 418 684 383Q684 342 663.50 309.50Q643 277 603 254.50Q563 232 505.50 220.50Q448 209 375 209Q307 209 253 219Q234 216 224 209Q207 198 207 178Q207 164 215 154.50Q223 145 240 140.50Q257 136 282 135L538 130Q612 129 661 111.50Q710 94 735 62Q760 30 760-18Q760-66 735.50-102Q711-138 662-162Q613-186 540.50-198.50Q468-211 372-211Q284-211 218-202.50Q152-194 108-176.50Q64-159 42-132Q20-105 20-69Q20-34 40-9.50Q60 15 100 29Q121 35 146 40Q137 42 128 46Q95 61 77 85.50Q59 110 59 142Q59 180 82.50 206.50Q106 233 151 247Q154 248 158 249Q152 252 147 255Q107 277 86 309.50Q65 342 65 383Q65 425 86 457.50Q107 490 147 512.50Q187 535 244.50 547Q302 559 375 559M268 13Q242 13 224 7Q204 0 193.50-12.50Q183-25 183-43Q183-61 194.50-73Q206-85 229.50-93Q253-101 290-105Q327-109 378-109Q438-109 480.50-104Q523-99 550-89.50Q577-80 589.50-66Q602-52 602-35Q602-13 584-0.50Q566 12 523 12L268 13M525 383Q525 402 515.50 416.50Q506 431 487 441Q468 451 440 456Q412 461 375 461Q338 461 310 456Q282 451 263 441Q244 431 234.50 416.50Q225 402 225 383Q225 358 242 341Q259 324 293 315.50Q327 307 375 307Q424 307 457.50 315.50Q491 324 508 341Q525 358 525 383Z"  horiz-adv-x="783" vert-adv-y="1000"  />

      
      <glyph glyph-name="uni68" unicode="&#x68;" d="M90 0L90 750L249 750L249 442Q277 479 315.50 505Q354 531 401.50 545Q449 559 503 559Q583 559 638.50 531.50Q694 504 723 452.50Q752 401 752 327L752 0L593 0L593 294Q593 336 576.50 366Q560 396 528 412Q496 428 449 428Q403 428 366.50 415.50Q330 403 303.50 380.50Q277 358 263 325.50Q249 293 249 253L249 0L90 0Z"  horiz-adv-x="835" vert-adv-y="1000"  />

      
      <glyph glyph-name="uni69" unicode="&#x69;" d="M90 0L90 548L249 548L249 0L90 0M88 615L88 750L251 750L251 615L88 615Z"  horiz-adv-x="339" vert-adv-y="1000"  />

      
      <glyph glyph-name="uni6a" unicode="&#x6a;" d="M90 3L90 548L249 548L249 12Q249-69 226-118Q203-167 155-189Q107-211 32-211Q5-211-16.50-209Q-38-207-61-203L-66-83Q-49-85-33.50-86.50Q-18-88-4-88Q30-88 50-78.50Q70-69 80-49.50Q90-30 90 3M88 615L88 750L251 750L251 615L88 615Z"  horiz-adv-x="339" vert-adv-y="1000"  />

      
      <glyph glyph-name="uni6b" unicode="&#x6b;" d="M90 0L90 750L248 750L248 325L529 548L738 548L423 307L760 0L544 0L310 217L248 167L248 0L90 0Z"  horiz-adv-x="759" vert-adv-y="1000"  />

      
      <glyph glyph-name="uni6c" unicode="&#x6c;" d="M249 0L90 0L90 750L249 750L249 0Z"  horiz-adv-x="339" vert-adv-y="1000"  />

      
      <glyph glyph-name="uni6d" unicode="&#x6d;" d="M90 0L90 548L233 548L244 437Q269 475 304.50 502.50Q340 530 383.50 544.50Q427 559 476 559Q530 559 571.50 544.50Q613 530 643 501.50Q673 473 689 433Q708 462 733.50 485.50Q759 509 790.50 525Q822 541 858 550Q894 559 933 559Q988 559 1031 543Q1074 527 1104 497Q1134 467 1149.50 424.50Q1165 382 1165 328L1165 0L1006 0L1006 298Q1006 339 991 368Q976 397 947.50 412Q919 427 877 427Q838 427 806.50 415Q775 403 753 380.50Q731 358 719 326Q707 294 707 254L707 0L548 0L548 299Q548 340 533 368.50Q518 397 489.50 412Q461 427 419 427Q380 427 348.50 415Q317 403 295 380.50Q273 358 261 326Q249 294 249 254L249 0L90 0Z"  horiz-adv-x="1248" vert-adv-y="1000"  />

      
      <glyph glyph-name="uni6e" unicode="&#x6e;" d="M90 0L90 548L232 548L244 433Q271 473 310 501Q349 529 398 544Q447 559 503 559Q583 559 638.50 531.50Q694 504 723 452.50Q752 401 752 327L752 0L593 0L593 294Q593 336 576.50 366Q560 396 528 412Q496 428 449 428Q403 428 366.50 415.50Q330 403 303.50 380.50Q277 358 263 325.50Q249 293 249 253L249 0L90 0Z"  horiz-adv-x="835" vert-adv-y="1000"  />

      
      <glyph glyph-name="uni6f" unicode="&#x6f;" d="M411-11Q342-11 285 1.50Q228 14 184.50 38Q141 62 110.50 96.50Q80 131 64.50 176Q49 221 49 274Q49 327 64.50 371.50Q80 416 110.50 450.50Q141 485 184.50 509.50Q228 534 285 546.50Q342 559 411 559Q479 559 536 546.50Q593 534 637 509.50Q681 485 711 450.50Q741 416 756.50 371.50Q772 327 772 274Q772 220 757 175.50Q742 131 711.50 96.50Q681 62 637 38Q593 14 536.50 1.50Q480-11 411-11M411 111Q451 111 483 118Q515 125 538.50 138Q562 151 578 170.50Q594 190 601.50 216Q609 242 609 274Q609 306 601.50 332Q594 358 578 377.50Q562 397 538.50 410Q515 423 483 430Q451 437 411 437Q370 437 338 430Q306 423 282.50 410Q259 397 243 377.50Q227 358 219.50 332Q212 306 212 274Q212 242 220 216Q228 190 243.50 170.50Q259 151 282.50 138Q306 125 338 118Q370 111 411 111Z"  horiz-adv-x="821" vert-adv-y="1000"  />

      
      <glyph glyph-name="uni70" unicode="&#x70;" d="M233 548L243 445Q257 463 274 479Q316 517 374.50 538Q433 559 503 559Q560 559 608.50 546Q657 533 694.50 508.50Q732 484 758 449Q784 414 797.50 370Q811 326 811 274Q811 222 797.50 178Q784 134 758 99Q732 64 694.50 39.50Q657 15 609 2Q561-11 503-11Q432-11 374 10Q316 31 274 69Q261 81 249 95L249-200L90-200L90 548L233 548M453 113Q492 113 523 120Q554 127 577.50 140.50Q601 154 616.50 173.50Q632 193 640 218.50Q648 244 648 274Q648 304 640 329Q632 354 616.50 374Q601 394 577.50 407.50Q554 421 523 428Q492 435 453 435Q388 435 342.50 415.50Q297 396 273 360Q249 324 249 274Q249 237 262.50 207Q276 177 302.50 156Q329 135 366.50 124Q404 113 453 113Z"  horiz-adv-x="860" vert-adv-y="1000"  />

      
      <glyph glyph-name="uni71" unicode="&#x71;" d="M627 548L771 548L771-200L611-200L611 94Q600 81 586 69Q544 31 486 10Q428-11 357-11Q300-11 251.50 2Q203 15 165.50 39.50Q128 64 102 99Q76 134 62.50 178Q49 222 49 274Q49 326 62.50 370Q76 414 102.50 449Q129 484 166.50 508.50Q204 533 252 546Q300 559 357 559Q428 559 486 538Q544 517 586 479Q603 463 617 445L627 548M407 113Q456 113 494 124Q532 135 558 156Q584 177 597.50 207Q611 237 611 274Q611 324 587 360Q563 396 517.50 415.50Q472 435 407 435Q369 435 337.50 428Q306 421 283 407.50Q260 394 244 374Q228 354 220.50 329Q213 304 213 274Q213 244 220.50 218.50Q228 193 244 173.50Q260 154 283 140.50Q306 127 337.50 120Q369 113 407 113Z"  horiz-adv-x="861" vert-adv-y="1000"  />

      
      <glyph glyph-name="uni72" unicode="&#x72;" d="M90 0L90 548L233 548L246 415Q267 448 296 475Q339 515 392.50 537Q446 559 507 559Q515 559 523.50 558.50Q532 558 536 557L532 395Q518 399 501 401Q484 403 466 403Q428 403 394.50 395Q361 387 334.50 372Q308 357 289 334.50Q270 312 260 282Q250 252 249 215L249 0L90 0Z"  horiz-adv-x="556" vert-adv-y="1000"  />

      
      <glyph glyph-name="uni73" unicode="&#x73;" d="M362 451Q309 451 274.50 444.50Q240 438 222.50 426Q205 414 205 395Q205 378 215.50 367.50Q226 357 250.50 351Q275 345 317 341L455 333Q540 326 593.50 307.50Q647 289 672 256Q697 223 697 174Q697 116 660 74.50Q623 33 549.50 11Q476-11 367-11Q265-11 196.50 7.50Q128 26 89.50 64.50Q51 103 35 163L187 186Q197 139 241.50 118Q286 97 364 97Q412 97 445 101Q478 105 499 113Q520 121 530 131.50Q540 142 540 156Q540 175 530.50 186Q521 197 498 203.50Q475 210 435 213L295 221Q211 227 157.50 247Q104 267 78.50 301Q53 335 53 383Q53 438 89 477.50Q125 517 194 538Q263 559 361 559Q459 559 525.50 541.50Q592 524 631 487Q670 450 684 394L535 372Q529 399 509 416.50Q489 434 453 442.50Q417 451 362 451Z"  horiz-adv-x="738" vert-adv-y="1000"  />

      
      <glyph glyph-name="uni74" unicode="&#x74;" d="M122 202L122 428L11 428L11 548L76 548Q101 548 115.50 552Q130 556 138 569.50Q146 583 150.50 611Q155 639 158 688L282 688L282 548L530 548L530 428L282 428L282 222Q282 180 293.50 156.50Q305 133 332.50 123Q360 113 406 113Q425 113 447.50 115Q470 117 493.50 120Q517 123 538 127L533 6Q508 0 479-3.50Q450-7 421-9Q392-11 364-11Q303-11 257 0.50Q211 12 181 37.50Q151 63 136.50 103.50Q122 144 122 202Z"  horiz-adv-x="572" vert-adv-y="1000"  />

      
      <glyph glyph-name="uni75" unicode="&#x75;" d="M726 548L726 0L584 0L572 111Q552 83 526 60Q500 37 468.50 21.50Q437 6 400.50-2.50Q364-11 325-11Q268-11 223 4Q178 19 146 48.50Q114 78 97.50 121Q81 164 81 220L81 548L241 548L241 246Q241 215 250 191.50Q259 168 276.50 152Q294 136 318 128Q342 120 373 120Q407 120 436.50 127.50Q466 135 490 149.50Q514 164 531 185.50Q548 207 557 234Q566 261 566 295L566 548L726 548Z"  horiz-adv-x="816" vert-adv-y="1000"  />

      
      <glyph glyph-name="uni76" unicode="&#x76;" d="M295 0L6 548L183 548L365 178L544 548L710 548L426 0L295 0Z"  horiz-adv-x="716" vert-adv-y="1000"  />

      
      <glyph glyph-name="uni77" unicode="&#x77;" d="M239 0L8 548L174 548L318 178L471 548L604 548L765 181L905 548L1063 548L834 0L703 0L537 383L371 0L239 0Z"  horiz-adv-x="1071" vert-adv-y="1000"  />

      
      <glyph glyph-name="uni78" unicode="&#x78;" d="M536 0L366 188L199 0L11 0L268 285L21 548L216 548L376 375L537 548L722 548L470 281L732 0L536 0Z"  horiz-adv-x="743" vert-adv-y="1000"  />

      
      <glyph glyph-name="uni79" unicode="&#x79;" d="M538 548L704 548L431-10Q403-66 375.50-104.50Q348-143 317.50-166.50Q287-190 249-200.50Q211-211 162-211Q136-211 111-207.50Q86-204 65-198L59-79Q77-82 96-84Q115-86 131-86Q164-86 188-80Q212-74 230.50-59Q249-44 266-17Q275-1 286 19L7 548L183 548L367 172L538 548Z"  horiz-adv-x="711" vert-adv-y="1000"  />

      
      <glyph glyph-name="uni7a" unicode="&#x7a;" d="M52 430L52 548L650 548L650 431L258 117L652 117L652 0L48 0L48 117L440 430L52 430Z"  horiz-adv-x="697" vert-adv-y="1000"  />

      
      <glyph glyph-name="unie6" unicode="&#xe6;" d="M301-11Q228-11 177 1Q126 13 94 34.50Q62 56 47 86.50Q32 117 32 153Q32 204 58 239Q84 274 139 294.50Q194 315 281 322L531 340Q530 366 522 385Q513 405 494 418.50Q475 432 445.50 438.50Q416 445 373 445Q322 445 287 436Q252 427 233 408Q214 389 209 359L54 384Q66 428 92 461Q118 494 158 515.50Q198 537 252.50 548Q307 559 376 559Q424 559 464.50 553Q505 547 538 534.50Q571 522 596 502Q611 491 623 478Q637 491 654 502Q684 521 720 534Q756 547 796.50 553Q837 559 879 559Q957 559 1020 540Q1083 521 1127.50 486Q1172 451 1195.50 401.50Q1219 352 1219 290Q1219 274 1218 261.50Q1217 249 1214 236L684 236Q686 225 689 216Q697 189 712.50 168.50Q728 148 752 134.50Q776 121 808.50 113.50Q841 106 882 106Q935 106 971.50 115Q1008 124 1030 142Q1052 160 1061 185L1216 158Q1197 102 1155.50 64.50Q1114 27 1046.50 8Q979-11 882-11Q833-11 788.50-3.50Q744 4 706 20Q668 36 636 61Q616 77 599 97Q580 76 557 60Q524 35 483.50 19.50Q443 4 397-3.50Q351-11 301-11M533 246L277 226Q247 224 227 216Q207 208 197 194.50Q187 181 187 162Q187 142 199.50 128Q212 114 238 107Q264 100 304 100Q358 100 400.50 110.50Q443 121 473 140Q503 159 518.50 184Q534 209 533 239L533 246M688 331L1061 331Q1056 353 1046 370Q1031 396 1007 412Q983 428 950 436Q917 444 878 444Q838 444 806 437Q774 430 750.50 416Q727 402 711.50 382Q696 362 689 335Q688 333 688 331Z"  horiz-adv-x="1265" vert-adv-y="1000"  />

      
      <glyph glyph-name="uni0153" unicode="&#x0153;" d="M406-11Q338-11 282 1.50Q226 14 183 38Q140 62 110 96.50Q80 131 64.50 176Q49 221 49 274Q49 327 64.50 371.50Q80 416 110 450.50Q140 485 183 509.50Q226 534 282 546.50Q338 559 406 559Q471 559 527.50 546Q584 533 630 506Q664 486 689 457Q707 476 727 491Q759 514 797 529Q835 544 877.50 551.50Q920 559 967 559Q1044 559 1107.50 540.50Q1171 522 1216 487Q1261 452 1285.50 402.50Q1310 353 1310 290Q1310 274 1308.50 261Q1307 248 1304 236L772 236Q773 225 776 216Q784 189 800 168.50Q816 148 840 134.50Q864 121 896.50 113.50Q929 106 971 106Q1023 106 1060 115Q1097 124 1120 142Q1143 160 1152 185L1306 158Q1287 101 1245 63.50Q1203 26 1135.50 7.50Q1068-11 971-11Q922-11 878-3.50Q834 4 796 19Q758 34 726 57Q706 73 689 91Q672 72 651 57Q620 33 581.50 18Q543 3 498.50-4Q454-11 406-11M406 111Q445 111 476 118Q507 125 530.50 138Q554 151 569.50 170.50Q585 190 592.50 216Q600 242 600 274Q600 306 592.50 332Q585 358 569.50 377.50Q554 397 530.50 410Q507 423 476 430Q445 437 406 437Q367 437 335.50 430Q304 423 281 410Q258 397 242.50 377.50Q227 358 220 332Q213 306 213 274Q213 242 220 216Q227 190 242.50 170.50Q258 151 281 138Q304 125 335.50 118Q367 111 406 111M775 331L1152 331Q1148 352 1138 368Q1123 394 1098 411Q1073 428 1039.50 436Q1006 444 967 444Q926 444 894 437Q862 430 838 416Q814 402 798.50 382Q783 362 776 335Q775 333 775 331Z"  horiz-adv-x="1355" vert-adv-y="1000"  />

      
      <glyph glyph-name="uni0142" unicode="&#x0142;" d="M5 267L5 352L110 386L110 750L269 750L269 439L374 474L374 389L269 355L269 0L110 0L110 302L5 267Z"  horiz-adv-x="379" vert-adv-y="1000"  />

      
      <glyph glyph-name="unif8" unicode="&#xf8;" d="M54 0L134 73Q121 85 110 97Q80 131 64.50 176Q49 221 49 274Q49 327 64.50 371.50Q80 416 110.50 450.50Q141 485 184.50 509.50Q228 534 285 546.50Q342 559 411 559Q479 559 536 546Q582 537 619 519L650 548L767 548L688 474Q700 463 711 451Q741 416 756.50 371.50Q772 327 772 274Q772 220 757 175.50Q742 131 711.50 96.50Q681 62 637 38Q593 14 536.50 1.50Q480-11 411-11Q342-11 285 1Q240 11 203 29L171 0L54 0M240 171L515 423Q500 429 484 432Q452 439 411 439Q370 439 337.50 432Q305 425 281 412Q257 399 241.50 379Q226 359 218 332.50Q210 306 210 274Q210 242 218 215Q225 190 240 171M411 109Q452 109 484 116Q516 123 540 136Q564 149 580 169Q596 189 603.50 215.50Q611 242 611 274Q611 306 604 332Q596 357 581 377L307 125Q321 119 337 116Q370 109 411 109Z"  horiz-adv-x="821" vert-adv-y="1000"  />

      
      <glyph glyph-name="unif0" unicode="&#xf0;" d="M401-11Q334-11 278.50 0Q223 11 181 32.50Q139 54 110 84.50Q81 115 66.50 153.50Q52 192 52 237Q52 282 65.50 319Q79 356 105.50 386Q132 416 171.50 436.50Q211 457 262 468Q313 479 376 479Q430 479 476.50 468.50Q523 458 560 435Q581 423 598 406Q593 424 585 442Q573 472 550.50 503.50Q528 535 493 569Q486 576 478 584L302 531L302 614L407 645Q357 685 288 734L469 760Q518 724 557 689L713 735L713 653L623 626Q652 595 675 564Q709 517 729 471.50Q749 426 757.50 380.50Q766 335 766 288Q766 233 751.50 186.50Q737 140 708.50 103.50Q680 67 636.50 41.50Q593 16 534 2.50Q475-11 401-11M406 111Q446 111 477 116.50Q508 122 530.50 132Q553 142 568 157.50Q583 173 590 192.50Q597 212 597 236Q597 260 589.50 280Q582 300 567.50 315Q553 330 530 340.50Q507 351 476.50 356Q446 361 406 361Q357 361 320 353Q283 345 260 329Q237 313 225.50 289.50Q214 266 214 236Q214 206 225.50 182.50Q237 159 260.50 143.50Q284 128 320.50 119.50Q357 111 406 111Z"  horiz-adv-x="821" vert-adv-y="1000"  />

      
      <glyph glyph-name="unife" unicode="&#xfe;" d="M249 750L249 452Q261 466 275 479Q317 517 375 538Q433 559 503 559Q560 559 608.50 546Q657 533 694.50 508.50Q732 484 758 449Q784 414 797.50 370Q811 326 811 274Q811 222 797.50 178Q784 134 758 99Q732 64 694.50 39.50Q657 15 609 2Q561-11 503-11Q432-11 374 10Q316 31 274 69Q261 81 249 95L249-200L90-200L90 750L249 750M453 113Q492 113 523 120Q554 127 577.50 140.50Q601 154 616.50 173.50Q632 193 640 218.50Q648 244 648 274Q648 304 640 329Q632 354 616.50 374Q601 394 577.50 407.50Q554 421 523 428Q492 435 453 435Q388 435 342.50 415.50Q297 396 273 360Q249 324 249 274Q249 237 262.50 207Q276 177 302.50 156Q329 135 366.50 124Q404 113 453 113Z"  horiz-adv-x="860" vert-adv-y="1000"  />

      
      <glyph glyph-name="uni0192" unicode="&#x0192;" d="M15 548L131 548L131 549Q131 620 159 667Q187 714 244.50 737.50Q302 761 388 761Q422 761 458.50 757.50Q495 754 525 748L519 631Q502 635 483.50 637Q465 639 446.50 640Q428 641 409 641Q367 641 340.50 632Q314 623 302 603Q290 583 290 549L290 548L522 548L522 428L290 428L290 12Q290-69 267-118Q244-167 196-189Q148-211 73-211Q46-211 24-209Q2-207-20-203L-25-83Q-7-85 8-86.50Q23-88 37-88Q71-88 91.50-78.50Q112-69 121.50-49.50Q131-30 131 3L131 428L15 428L15 548Z"  horiz-adv-x="533" vert-adv-y="1000"  />

      
      <glyph glyph-name="unidf" unicode="&#xdf;" d="M80 0L80 481Q80 546 106 598Q132 650 181.50 686.50Q231 723 301.50 742Q372 761 461 761Q538 761 596 747Q654 733 694 707Q734 681 754 644.50Q774 608 774 562Q774 528 761.50 499Q749 470 724 447Q699 424 663 409Q662 409 662 408Q672 407 683 405Q728 396 762 379.50Q796 363 818 339Q840 315 850.50 284.50Q861 254 861 218Q861 164 838 121.50Q815 79 771 49.50Q727 20 663.50 4.50Q600-11 518-11Q481-11 445.50-8Q410-5 376 2Q342 9 309 21L337 143Q364 131 390.50 124.50Q417 118 444 115Q471 112 499 112Q553 112 590.50 119Q628 126 651.50 140Q675 154 686 174.50Q697 195 697 221Q697 241 691.50 257.50Q686 274 674 287Q662 300 643 308.50Q624 317 597.50 321Q571 325 536 325L361 325L361 447L473 447Q502 447 526 451Q550 455 567.50 463Q585 471 597.50 483Q610 495 615.50 510Q621 525 621 543Q621 567 612 585.50Q603 604 583 616Q563 628 532 634.50Q501 641 458 641Q406 641 365.50 631.50Q325 622 297 603.50Q269 585 254 557Q239 529 239 491L239 0L80 0Z"  horiz-adv-x="905" vert-adv-y="1000"  />

      
      <glyph glyph-name="uni0131" unicode="&#x0131;" d="M90 0L90 548L249 548L249 0L90 0Z"  horiz-adv-x="339" vert-adv-y="1000"  />

      
      <glyph glyph-name="uni0237" unicode="&#x0237;" d="M90 3L90 548L249 548L249 12Q249-69 226-118Q203-167 155-189Q107-211 32-211Q5-211-16.50-209Q-38-207-61-203L-66-83Q-49-85-33.50-86.50Q-18-88-4-88Q46-88 68-67Q90-46 90 3Z"  horiz-adv-x="339" vert-adv-y="1000"  />

      
      <glyph glyph-name="unic1" unicode="&#xc1;" d="M746 0L668 150L260 150L182 0L5 0L381 700L553 700L930 0L746 0M602 276L464 542L326 276L602 276M401 760L529 921L735 921L534 760L401 760Z"  horiz-adv-x="935" vert-adv-y="1000"  />

      
      <glyph glyph-name="unic2" unicode="&#xc2;" d="M746 0L668 150L260 150L182 0L5 0L381 700L553 700L930 0L746 0M602 276L464 542L326 276L602 276M464 846L350 760L228 760L375 921L562 921L705 760L581 760L464 846Z"  horiz-adv-x="935" vert-adv-y="1000"  />

      
      <glyph glyph-name="unic4" unicode="&#xc4;" d="M746 0L668 150L260 150L182 0L5 0L381 700L553 700L930 0L746 0M602 276L464 542L326 276L602 276M514 767L514 908L680 908L680 767L514 767M254 767L254 908L420 908L420 767L254 767Z"  horiz-adv-x="935" vert-adv-y="1000"  />

      
      <glyph glyph-name="unic0" unicode="&#xc0;" d="M746 0L668 150L260 150L182 0L5 0L381 700L553 700L930 0L746 0M602 276L464 542L326 276L602 276M532 760L399 760L199 921L405 921L532 760Z"  horiz-adv-x="935" vert-adv-y="1000"  />

      
      <glyph glyph-name="unic5" unicode="&#xc5;" d="M746 0L668 150L260 150L182 0L5 0L381 700L553 700L930 0L746 0M602 276L464 542L326 276L602 276M468 746Q420 746 385.50 760Q351 774 332 800.50Q313 827 313 863Q313 900 332 925.50Q351 951 385.50 965Q420 979 468 979Q516 979 550 965Q584 951 602 925.50Q620 900 620 864Q620 828 602 801Q584 774 550 760Q516 746 468 746M468 812Q503 812 520.50 826Q538 840 538 864Q538 887 520.50 900Q503 913 468 913Q432 913 414 900Q396 887 396 864Q396 840 414 826Q432 812 468 812Z"  horiz-adv-x="935" vert-adv-y="1000"  />

      
      <glyph glyph-name="unic3" unicode="&#xc3;" d="M746 0L668 150L260 150L182 0L5 0L381 700L553 700L930 0L746 0M602 276L464 542L326 276L602 276M672 921Q678 861 665.50 824Q653 787 627 770Q601 753 563 753Q539 753 518.50 760Q498 767 480.50 778Q463 789 448 799.50Q433 810 419.50 817.50Q406 825 391 825Q380 825 372 818.50Q364 812 360.50 798Q357 784 360 762L258 762Q253 823 265.50 861Q278 899 305.50 916Q333 933 371 933Q394 933 414 925.50Q434 918 451 907Q468 896 483.50 885Q499 874 513 866Q527 858 540 858Q549 858 555.50 862Q562 866 566 873.50Q570 881 571 892.50Q572 904 570 921L672 921Z"  horiz-adv-x="935" vert-adv-y="1000"  />

      
      <glyph glyph-name="uni0102" unicode="&#x0102;" d="M746 0L668 150L260 150L182 0L5 0L381 700L553 700L930 0L746 0M602 276L464 542L326 276L602 276M551 918L674 918Q674 863 651 826.50Q628 790 582.50 772Q537 754 468 754Q399 754 352.50 772Q306 790 283 826.50Q260 863 260 918L382 918Q382 878 404 860Q426 842 468 842Q509 842 530 860Q551 878 551 918Z"  horiz-adv-x="935" vert-adv-y="1000"  />

      
      <glyph glyph-name="uni0100" unicode="&#x0100;" d="M746 0L668 150L260 150L182 0L5 0L381 700L553 700L930 0L746 0M602 276L464 542L326 276L602 276M264 771L264 878L670 878L670 771L264 771Z"  horiz-adv-x="935" vert-adv-y="1000"  />

      
      <glyph glyph-name="uni0104" unicode="&#x0104;" d="M656-108Q656-81 668-57.50Q680-34 706-15Q721-4 742 6L667 150L260 150L182 0L5 0L381 700L553 700L930 0Q885-6 856-14Q827-22 811.50-31.50Q796-41 789.50-50.50Q783-60 783-69Q783-84 796.50-91.50Q810-99 838-99Q860-99 882.50-95.50Q905-92 931-84L927-197Q902-205 871.50-209.50Q841-214 809-214Q735-214 695.50-187Q656-160 656-108M602 276L464 542L326 276L602 276Z"  horiz-adv-x="935" vert-adv-y="1000"  />

      
      <glyph glyph-name="unic7" unicode="&#xc7;" d="M52 350Q52 416 71.50 472Q91 528 128.50 572Q166 616 219.50 647Q273 678 342 694.50Q411 711 492 711Q606 711 691 683Q776 655 830.50 601Q885 547 905 468L731 434Q719 481 688.50 513Q658 545 609 561.50Q560 578 492 578Q439 578 396.50 568Q354 558 321.50 539.50Q289 521 267.50 493.50Q246 466 235 430Q224 394 224 350Q224 305 235 269.50Q246 234 267.50 206.50Q289 179 321.50 160Q354 141 396.50 131.50Q439 122 492 122Q562 122 612 139Q662 156 692 189Q722 222 732 271L905 237Q886 156 832 100.50Q778 45 693 17Q616-8 517-11L512-44Q514-44 517-43Q543-37 571-37Q630-37 658.50-59Q687-81 687-119Q687-150 668.50-171Q650-192 609-203Q568-214 502-214Q467-214 428.50-210Q390-206 352-198L356-130Q398-137 428.50-140.50Q459-144 483-144Q514-144 530.50-141Q547-138 554-132Q561-126 561-117Q561-107 552.50-101Q544-95 525-95Q515-95 504-98Q493-101 483-106L404-97L417-8Q389-5 362 0Q302 11 253 33Q204 55 166.50 86.50Q129 118 103.50 158.50Q78 199 65 247Q52 295 52 350Z"  horiz-adv-x="948" vert-adv-y="1000"  />

      
      <glyph glyph-name="uni0106" unicode="&#x0106;" d="M52 350Q52 416 71.50 472Q91 528 128.50 572Q166 616 219.50 647Q273 678 342 694.50Q411 711 492 711Q606 711 691 683Q776 655 830.50 601Q885 547 905 468L731 434Q719 481 688.50 513Q658 545 609 561.50Q560 578 492 578Q439 578 396.50 568Q354 558 321.50 539.50Q289 521 267.50 493.50Q246 466 235 430Q224 394 224 350Q224 305 235 269.50Q246 234 267.50 206.50Q289 179 321.50 160Q354 141 396.50 131.50Q439 122 492 122Q562 122 612 139Q662 156 692 189Q722 222 732 271L905 237Q886 156 832 100.50Q778 45 692.50 17Q607-11 492-11Q422-11 362 0Q302 11 253 33Q204 55 166.50 86.50Q129 118 103.50 158.50Q78 199 65 247Q52 295 52 350M415 760L543 921L749 921L548 760L415 760Z"  horiz-adv-x="948" vert-adv-y="1000"  />

      
      <glyph glyph-name="uni010C" unicode="&#x010C;" d="M52 350Q52 416 71.50 472Q91 528 128.50 572Q166 616 219.50 647Q273 678 342 694.50Q411 711 492 711Q606 711 691 683Q776 655 830.50 601Q885 547 905 468L731 434Q719 481 688.50 513Q658 545 609 561.50Q560 578 492 578Q439 578 396.50 568Q354 558 321.50 539.50Q289 521 267.50 493.50Q246 466 235 430Q224 394 224 350Q224 305 235 269.50Q246 234 267.50 206.50Q289 179 321.50 160Q354 141 396.50 131.50Q439 122 492 122Q562 122 612 139Q662 156 692 189Q722 222 732 271L905 237Q886 156 832 100.50Q778 45 692.50 17Q607-11 492-11Q422-11 362 0Q302 11 253 33Q204 55 166.50 86.50Q129 118 103.50 158.50Q78 199 65 247Q52 295 52 350M485 835L599 921L720 921L574 760L387 760L243 921L368 921L485 835Z"  horiz-adv-x="948" vert-adv-y="1000"  />

      
      <glyph glyph-name="uni0108" unicode="&#x0108;" d="M52 350Q52 416 71.50 472Q91 528 128.50 572Q166 616 219.50 647Q273 678 342 694.50Q411 711 492 711Q606 711 691 683Q776 655 830.50 601Q885 547 905 468L731 434Q719 481 688.50 513Q658 545 609 561.50Q560 578 492 578Q439 578 396.50 568Q354 558 321.50 539.50Q289 521 267.50 493.50Q246 466 235 430Q224 394 224 350Q224 305 235 269.50Q246 234 267.50 206.50Q289 179 321.50 160Q354 141 396.50 131.50Q439 122 492 122Q562 122 612 139Q662 156 692 189Q722 222 732 271L905 237Q886 156 832 100.50Q778 45 692.50 17Q607-11 492-11Q422-11 362 0Q302 11 253 33Q204 55 166.50 86.50Q129 118 103.50 158.50Q78 199 65 247Q52 295 52 350M479 846L365 760L243 760L390 921L577 921L720 760L596 760L479 846Z"  horiz-adv-x="948" vert-adv-y="1000"  />

      
      <glyph glyph-name="uni010A" unicode="&#x010A;" d="M52 350Q52 416 71.50 472Q91 528 128.50 572Q166 616 219.50 647Q273 678 342 694.50Q411 711 492 711Q606 711 691 683Q776 655 830.50 601Q885 547 905 468L731 434Q719 481 688.50 513Q658 545 609 561.50Q560 578 492 578Q439 578 396.50 568Q354 558 321.50 539.50Q289 521 267.50 493.50Q246 466 235 430Q224 394 224 350Q224 305 235 269.50Q246 234 267.50 206.50Q289 179 321.50 160Q354 141 396.50 131.50Q439 122 492 122Q562 122 612 139Q662 156 692 189Q722 222 732 271L905 237Q886 156 832 100.50Q778 45 692.50 17Q607-11 492-11Q422-11 362 0Q302 11 253 33Q204 55 166.50 86.50Q129 118 103.50 158.50Q78 199 65 247Q52 295 52 350M401 767L401 917L563 917L563 767L401 767Z"  horiz-adv-x="948" vert-adv-y="1000"  />

      
      <glyph glyph-name="uni010E" unicode="&#x010E;" d="M105 0L105 700L523 700Q600 700 663.50 684.50Q727 669 776 639.50Q825 610 858 567.50Q891 525 908 469.50Q925 414 925 348Q925 283 908 228Q891 173 858 131Q825 89 776 59.50Q727 30 663.50 15Q600 0 523 0L105 0M529 133Q574 133 609.50 142.50Q645 152 672 169.50Q699 187 716.50 213Q734 239 743.50 273Q753 307 753 348Q753 390 743.50 424.50Q734 459 716.50 485.50Q699 512 672 530Q645 548 609.50 557.50Q574 567 529 567L274 567L274 133L529 133M495 835L609 921L730 921L584 760L397 760L253 921L378 921L495 835Z"  horiz-adv-x="983" vert-adv-y="1000"  />

      
      <glyph glyph-name="uni0110" unicode="&#x0110;" d="M8 308L8 394L117 394L117 700L535 700Q612 700 675.50 684.50Q739 669 788 639.50Q837 610 870 567.50Q903 525 920.50 469.50Q938 414 938 348Q938 283 920.50 228Q903 173 870 131Q837 89 788 59.50Q739 30 675.50 15Q612 0 535 0L117 0L117 308L8 308M541 133Q586 133 621.50 142.50Q657 152 684 169.50Q711 187 728.50 213Q746 239 755.50 273Q765 307 765 348Q765 390 755.50 424.50Q746 459 728.50 485.50Q711 512 684 530Q657 548 621.50 557.50Q586 567 541 567L286 567L286 394L476 394L476 308L286 308L286 133L541 133Z"  horiz-adv-x="995" vert-adv-y="1000"  />

      
      <glyph glyph-name="unic9" unicode="&#xc9;" d="M105 0L105 700L783 700L783 572L271 572L271 420L725 420L725 294L271 294L271 128L791 128L791 0L105 0M365 760L493 921L699 921L498 760L365 760Z"  horiz-adv-x="845" vert-adv-y="1000"  />

      
      <glyph glyph-name="unica" unicode="&#xca;" d="M105 0L105 700L783 700L783 572L271 572L271 420L725 420L725 294L271 294L271 128L791 128L791 0L105 0M440 846L326 760L204 760L351 921L538 921L681 760L557 760L440 846Z"  horiz-adv-x="845" vert-adv-y="1000"  />

      
      <glyph glyph-name="unicb" unicode="&#xcb;" d="M105 0L105 700L783 700L783 572L271 572L271 420L725 420L725 294L271 294L271 128L791 128L791 0L105 0M491 767L491 908L657 908L657 767L491 767M231 767L231 908L397 908L397 767L231 767Z"  horiz-adv-x="845" vert-adv-y="1000"  />

      
      <glyph glyph-name="unic8" unicode="&#xc8;" d="M105 0L105 700L783 700L783 572L271 572L271 420L725 420L725 294L271 294L271 128L791 128L791 0L105 0M512 760L379 760L179 921L385 921L512 760Z"  horiz-adv-x="845" vert-adv-y="1000"  />

      
      <glyph glyph-name="uni0114" unicode="&#x0114;" d="M105 0L105 700L783 700L783 572L271 572L271 420L725 420L725 294L271 294L271 128L791 128L791 0L105 0M527 918L650 918Q650 863 627 826.50Q604 790 558.50 772Q513 754 444 754Q375 754 328.50 772Q282 790 259 826.50Q236 863 236 918L358 918Q358 878 380 860Q402 842 444 842Q485 842 506 860Q527 878 527 918Z"  horiz-adv-x="845" vert-adv-y="1000"  />

      
      <glyph glyph-name="uni011A" unicode="&#x011A;" d="M105 0L105 700L783 700L783 572L271 572L271 420L725 420L725 294L271 294L271 128L791 128L791 0L105 0M446 835L560 921L681 921L535 760L348 760L204 921L329 921L446 835Z"  horiz-adv-x="845" vert-adv-y="1000"  />

      
      <glyph glyph-name="uni0116" unicode="&#x0116;" d="M105 0L105 700L783 700L783 572L271 572L271 420L725 420L725 294L271 294L271 128L791 128L791 0L105 0M363 767L363 917L525 917L525 767L363 767Z"  horiz-adv-x="845" vert-adv-y="1000"  />

      
      <glyph glyph-name="uni0112" unicode="&#x0112;" d="M105 0L105 700L783 700L783 572L271 572L271 420L725 420L725 294L271 294L271 128L791 128L791 0L105 0M240 771L240 878L646 878L646 771L240 771Z"  horiz-adv-x="845" vert-adv-y="1000"  />

      
      <glyph glyph-name="uni0118" unicode="&#x0118;" d="M105 0L105 700L783 700L783 572L271 572L271 420L725 420L725 294L271 294L271 128L791 128L791 0L791 0Q746-6 717-14Q688-22 672.50-31Q657-40 650.50-49.50Q644-59 644-68Q644-84 657.50-91.50Q671-99 699-99Q722-99 744.50-95.50Q767-92 792-84L788-197Q764-205 734.50-209.50Q705-214 675-214Q597-214 557.50-187.50Q518-161 518-110Q518-82 529.50-58.50Q541-35 567-16Q578-8 592 0L105 0Z"  horiz-adv-x="845" vert-adv-y="1000"  />

      
      <glyph glyph-name="uni018F" unicode="&#x018F;" d="M480 711Q566 711 636.50 696Q707 681 759.50 651.50Q812 622 847.50 578Q883 534 901 476.50Q919 419 919 348Q919 278 900.50 221Q882 164 847 121Q812 78 759.50 48.50Q707 19 638.50 4Q570-11 485-11Q403-11 335 3Q267 17 214 45Q161 73 125 113.50Q89 154 70.50 206.50Q52 259 52 322Q52 345 53 363Q54 381 58 398L747 398Q744 417 740 434Q730 472 709.50 499Q689 526 657.50 543.50Q626 561 582 569.50Q538 578 480 578Q414 578 370.50 566.50Q327 555 301.50 533Q276 511 261 479L98 507Q124 572 173 617.50Q222 663 297.50 687Q373 711 480 711M744 281L227 281Q233 244 249 216Q267 184 298.50 163.50Q330 143 376.50 133Q423 123 485 123Q542 123 585.50 131Q629 139 660 156Q691 173 711 199.50Q731 226 740 263Q743 272 744 281Z"  horiz-adv-x="970" vert-adv-y="1000"  />

      
      <glyph glyph-name="uni011E" unicode="&#x011E;" d="M492 254L492 375L928 375L928 0L804 0L791 118Q766 82 730 56Q685 23 623.50 6Q562-11 482-11Q402-11 334.50 5Q267 21 214.50 51.50Q162 82 125.50 126Q89 170 70.50 226Q52 282 52 349Q52 416 71.50 472.50Q91 529 129.50 573Q168 617 223 648Q278 679 349 695Q420 711 505 711Q619 711 703 686Q787 661 840 611.50Q893 562 915 489L746 453Q733 493 702.50 521Q672 549 623 563.50Q574 578 505 578Q449 578 404.50 568Q360 558 326 539.50Q292 521 269.50 493.50Q247 466 235.50 430Q224 394 224 349Q224 305 235.50 269Q247 233 269.50 205.50Q292 178 325.50 159.50Q359 141 403.50 131.50Q448 122 504 122Q590 122 648 142.50Q706 163 736 202Q754 225 762 254L492 254M579 918L702 918Q702 863 679 826.50Q656 790 610.50 772Q565 754 496 754Q427 754 380.50 772Q334 790 311 826.50Q288 863 288 918L410 918Q410 878 432 860Q454 842 496 842Q537 842 558 860Q579 878 579 918Z"  horiz-adv-x="1003" vert-adv-y="1000"  />

      
      <glyph glyph-name="uni011C" unicode="&#x011C;" d="M492 254L492 375L928 375L928 0L804 0L791 118Q766 82 730 56Q685 23 623.50 6Q562-11 482-11Q402-11 334.50 5Q267 21 214.50 51.50Q162 82 125.50 126Q89 170 70.50 226Q52 282 52 349Q52 416 71.50 472.50Q91 529 129.50 573Q168 617 223 648Q278 679 349 695Q420 711 505 711Q619 711 703 686Q787 661 840 611.50Q893 562 915 489L746 453Q733 493 702.50 521Q672 549 623 563.50Q574 578 505 578Q449 578 404.50 568Q360 558 326 539.50Q292 521 269.50 493.50Q247 466 235.50 430Q224 394 224 349Q224 305 235.50 269Q247 233 269.50 205.50Q292 178 325.50 159.50Q359 141 403.50 131.50Q448 122 504 122Q590 122 648 142.50Q706 163 736 202Q754 225 762 254L492 254M492 846L378 760L256 760L403 921L590 921L733 760L609 760L492 846Z"  horiz-adv-x="1003" vert-adv-y="1000"  />

      
      <glyph glyph-name="uni0122" unicode="&#x0122;" d="M492 254L492 375L928 375L928 0L804 0L791 118Q766 82 730 56Q685 23 623.50 6Q562-11 482-11Q402-11 334.50 5Q267 21 214.50 51.50Q162 82 125.50 126Q89 170 70.50 226Q52 282 52 349Q52 416 71.50 472.50Q91 529 129.50 573Q168 617 223 648Q278 679 349 695Q420 711 505 711Q619 711 703 686Q787 661 840 611.50Q893 562 915 489L746 453Q733 493 702.50 521Q672 549 623 563.50Q574 578 505 578Q449 578 404.50 568Q360 558 326 539.50Q292 521 269.50 493.50Q247 466 235.50 430Q224 394 224 349Q224 305 235.50 269Q247 233 269.50 205.50Q292 178 325.50 159.50Q359 141 403.50 131.50Q448 122 504 122Q590 122 648 142.50Q706 163 736 202Q754 225 762 254L492 254M306-205L384-60L571-60L430-205L306-205Z"  horiz-adv-x="1003" vert-adv-y="1000"  />

      
      <glyph glyph-name="uni0120" unicode="&#x0120;" d="M492 254L492 375L928 375L928 0L804 0L791 118Q766 82 730 56Q685 23 623.50 6Q562-11 482-11Q402-11 334.50 5Q267 21 214.50 51.50Q162 82 125.50 126Q89 170 70.50 226Q52 282 52 349Q52 416 71.50 472.50Q91 529 129.50 573Q168 617 223 648Q278 679 349 695Q420 711 505 711Q619 711 703 686Q787 661 840 611.50Q893 562 915 489L746 453Q733 493 702.50 521Q672 549 623 563.50Q574 578 505 578Q449 578 404.50 568Q360 558 326 539.50Q292 521 269.50 493.50Q247 466 235.50 430Q224 394 224 349Q224 305 235.50 269Q247 233 269.50 205.50Q292 178 325.50 159.50Q359 141 403.50 131.50Q448 122 504 122Q590 122 648 142.50Q706 163 736 202Q754 225 762 254L492 254M414 767L414 917L576 917L576 767L414 767Z"  horiz-adv-x="1003" vert-adv-y="1000"  />

      
      <glyph glyph-name="uni0126" unicode="&#x0126;" d="M5 526L5 602L105 602L105 700L274 700L274 602L749 602L749 700L918 700L918 602L1018 602L1018 526L918 526L918 0L749 0L749 293L274 293L274 0L105 0L105 526L5 526M274 526L274 427L749 427L749 526L274 526Z"  horiz-adv-x="1023" vert-adv-y="1000"  />

      
      <glyph glyph-name="uni0124" unicode="&#x0124;" d="M105 0L105 700L274 700L274 427L749 427L749 700L918 700L918 0L749 0L749 293L274 293L274 0L105 0M512 846L398 760L276 760L423 921L610 921L753 760L629 760L512 846Z"  horiz-adv-x="1023" vert-adv-y="1000"  />

      
      <glyph glyph-name="unicd" unicode="&#xcd;" d="M105 0L105 700L274 700L274 0L105 0M123 760L251 921L457 921L256 760L123 760Z"  horiz-adv-x="379" vert-adv-y="1000"  />

      
      <glyph glyph-name="unice" unicode="&#xce;" d="M105 0L105 700L274 700L274 0L105 0M187 846L73 760L-49 760L98 921L285 921L428 760L304 760L187 846Z"  horiz-adv-x="379" vert-adv-y="1000"  />

      
      <glyph glyph-name="unicf" unicode="&#xcf;" d="M105 0L105 700L274 700L274 0L105 0M237 767L237 908L403 908L403 767L237 767M-23 767L-23 908L143 908L143 767L-23 767Z"  horiz-adv-x="379" vert-adv-y="1000"  />

      
      <glyph glyph-name="unicc" unicode="&#xcc;" d="M105 0L105 700L274 700L274 0L105 0M255 760L122 760L-78 921L128 921L255 760Z"  horiz-adv-x="379" vert-adv-y="1000"  />

      
      <glyph glyph-name="uni012C" unicode="&#x012C;" d="M105 0L105 700L274 700L274 0L105 0M274 918L397 918Q397 863 374 826.50Q351 790 305.50 772Q260 754 191 754Q122 754 75.50 772Q29 790 6 826.50Q-17 863-17 918L105 918Q105 878 127 860Q149 842 191 842Q232 842 253 860Q274 878 274 918Z"  horiz-adv-x="379" vert-adv-y="1000"  />

      
      <glyph glyph-name="uni0130" unicode="&#x0130;" d="M105 0L105 700L274 700L274 0L105 0M109 767L109 917L271 917L271 767L109 767Z"  horiz-adv-x="379" vert-adv-y="1000"  />

      
      <glyph glyph-name="uni012A" unicode="&#x012A;" d="M105 0L105 700L274 700L274 0L105 0M-13 771L-13 878L393 878L393 771L-13 771Z"  horiz-adv-x="379" vert-adv-y="1000"  />

      
      <glyph glyph-name="uni012E" unicode="&#x012E;" d="M21-107Q21-79 32.50-55.50Q44-32 68-13Q84 0 105 10L105 700L274 700L274 0Q224-8 196.50-18.50Q169-29 158.50-41.50Q148-54 148-67Q148-83 163.50-91Q179-99 212-99Q234-99 257.50-95.50Q281-92 307-84L303-197Q277-205 245.50-209.50Q214-214 181-214Q130-214 94.50-202Q59-190 40-166Q21-142 21-107Z"  horiz-adv-x="379" vert-adv-y="1000"  />

      
      <glyph glyph-name="uni0128" unicode="&#x0128;" d="M105 0L105 700L274 700L274 0L105 0M395 921Q401 861 388.50 824Q376 787 350 770Q324 753 286 753Q262 753 241.50 760Q221 767 203.50 778Q186 789 171 799.50Q156 810 142.50 817.50Q129 825 114 825Q103 825 95 818.50Q87 812 83.50 798Q80 784 83 762L-19 762Q-24 823-11.50 861Q1 899 28.50 916Q56 933 94 933Q117 933 137 925.50Q157 918 174 907Q191 896 206.50 885Q222 874 236 866Q250 858 263 858Q272 858 278.50 862Q285 866 289 873.50Q293 881 294 892.50Q295 904 293 921L395 921Z"  horiz-adv-x="379" vert-adv-y="1000"  />

      
      <glyph glyph-name="uni0134" unicode="&#x0134;" d="M467 262Q467 192 450.50 141Q434 90 399 56Q364 22 309.50 5.50Q255-11 178-11Q145-11 109.50-8Q74-5 35 2L29 137Q50 134 70 132Q90 130 109.50 129Q129 128 147 128Q204 128 237 141Q270 154 284 183Q298 212 298 259L298 700L467 700L467 262M380 846L266 760L144 760L291 921L478 921L621 760L497 760L380 846Z"  horiz-adv-x="563" vert-adv-y="1000"  />

      
      <glyph glyph-name="uni0132" unicode="&#x0132;" d="M105 0L105 700L274 700L274 0L105 0M846 262Q846 192 829.50 141Q813 90 778 56Q743 22 688.50 5.50Q634-11 557-11Q524-11 488.50-8Q453-5 414 2L408 137Q429 134 449 132Q469 130 488.50 129Q508 128 526 128Q583 128 616 141Q649 154 663 183Q677 212 677 259L677 700L846 700L846 262Z"  horiz-adv-x="942" vert-adv-y="1000"  />

      
      <glyph glyph-name="uni0136" unicode="&#x0136;" d="M105 0L105 700L271 700L271 389L665 700L891 700L482 381L919 0L678 0L353 280L271 216L271 0L105 0M290-205L368-60L555-60L414-205L290-205Z"  horiz-adv-x="914" vert-adv-y="1000"  />

      
      <glyph glyph-name="uni0139" unicode="&#x0139;" d="M105 0L105 700L274 700L274 133L729 133L729 0L105 0M123 760L251 921L457 921L256 760L123 760Z"  horiz-adv-x="764" vert-adv-y="1000"  />

      
      <glyph glyph-name="uni013D" unicode="&#x013D;" d="M105 0L105 700L274 700L274 133L729 133L729 0L105 0M422 481L422 700L581 700L528 481L422 481Z"  horiz-adv-x="764" vert-adv-y="1000"  />

      
      <glyph glyph-name="uni013B" unicode="&#x013B;" d="M105 0L105 700L274 700L274 133L729 133L729 0L105 0M243-205L321-60L508-60L367-205L243-205Z"  horiz-adv-x="764" vert-adv-y="1000"  />

      
      <glyph glyph-name="uni013F" unicode="&#x013F;" d="M105 0L105 700L274 700L274 133L729 133L729 0L105 0M484 311L484 467L657 467L657 311L484 311Z"  horiz-adv-x="764" vert-adv-y="1000"  />

      
      <glyph glyph-name="unid1" unicode="&#xd1;" d="M105 0L105 700L270 700L745 187L745 700L900 700L900 0L735 0L260 513L260 0L105 0M712 921Q718 861 705.50 824Q693 787 667 770Q641 753 603 753Q579 753 558.50 760Q538 767 520.50 778Q503 789 488 799.50Q473 810 459.50 817.50Q446 825 431 825Q420 825 412 818.50Q404 812 400.50 798Q397 784 400 762L298 762Q293 823 305.50 861Q318 899 345.50 916Q373 933 411 933Q434 933 454 925.50Q474 918 491 907Q508 896 523.50 885Q539 874 553 866Q567 858 580 858Q589 858 595.50 862Q602 866 606 873.50Q610 881 611 892.50Q612 904 610 921L712 921Z"  horiz-adv-x="1006" vert-adv-y="1000"  />

      
      <glyph glyph-name="uni0143" unicode="&#x0143;" d="M105 0L105 700L270 700L745 187L745 700L900 700L900 0L735 0L260 513L260 0L105 0M441 760L569 921L775 921L574 760L441 760Z"  horiz-adv-x="1006" vert-adv-y="1000"  />

      
      <glyph glyph-name="uni0147" unicode="&#x0147;" d="M105 0L105 700L270 700L745 187L745 700L900 700L900 0L735 0L260 513L260 0L105 0M510 835L624 921L745 921L599 760L412 760L268 921L393 921L510 835Z"  horiz-adv-x="1006" vert-adv-y="1000"  />

      
      <glyph glyph-name="uni0145" unicode="&#x0145;" d="M105 0L105 700L270 700L745 187L745 700L900 700L900 0L735 0L260 513L260 0L105 0M332-205L410-60L597-60L456-205L332-205Z"  horiz-adv-x="1006" vert-adv-y="1000"  />

      
      <glyph glyph-name="uni014A" unicode="&#x014A;" d="M105 0L105 700L270 700L745 195L745 700L900 700L900 46Q900-24 884.50-73Q869-122 835.50-152.50Q802-183 749.50-197Q697-211 622-211Q601-211 579.50-210Q558-209 536.50-206Q515-203 492-199L487-75Q510-78 528-80Q546-82 563-83Q580-84 599-84Q652-84 684-71Q716-58 731-32Q739-17 742 3L260 515L260 0L105 0Z"  horiz-adv-x="1006" vert-adv-y="1000"  />

      
      <glyph glyph-name="unid3" unicode="&#xd3;" d="M499-11Q415-11 344.50 5Q274 21 220 52Q166 83 128.50 127Q91 171 71.50 227Q52 283 52 349Q52 416 71.50 472Q91 528 128.50 572.50Q166 617 220 648Q274 679 344.50 695Q415 711 499 711Q584 711 654 695Q724 679 778.50 648Q833 617 870.50 572.50Q908 528 927.50 472Q947 416 947 349Q947 283 927.50 227Q908 171 870.50 127Q833 83 778.50 52Q724 21 654 5Q584-11 499-11M499 122Q554 122 598 132Q642 142 675.50 160.50Q709 179 731 206.50Q753 234 764 269.50Q775 305 775 349Q775 393 764 429Q753 465 731 493Q709 521 675.50 539.50Q642 558 598 568Q554 578 499 578Q445 578 400.50 568Q356 558 323 539.50Q290 521 268 493Q246 465 235 429Q224 393 224 349Q224 305 235 269.50Q246 234 268 206.50Q290 179 323 160.50Q356 142 400.50 132Q445 122 499 122M433 760L561 921L767 921L566 760L433 760Z"  horiz-adv-x="999" vert-adv-y="1000"  />

      
      <glyph glyph-name="unid4" unicode="&#xd4;" d="M499-11Q415-11 344.50 5Q274 21 220 52Q166 83 128.50 127Q91 171 71.50 227Q52 283 52 349Q52 416 71.50 472Q91 528 128.50 572.50Q166 617 220 648Q274 679 344.50 695Q415 711 499 711Q584 711 654 695Q724 679 778.50 648Q833 617 870.50 572.50Q908 528 927.50 472Q947 416 947 349Q947 283 927.50 227Q908 171 870.50 127Q833 83 778.50 52Q724 21 654 5Q584-11 499-11M499 122Q554 122 598 132Q642 142 675.50 160.50Q709 179 731 206.50Q753 234 764 269.50Q775 305 775 349Q775 393 764 429Q753 465 731 493Q709 521 675.50 539.50Q642 558 598 568Q554 578 499 578Q445 578 400.50 568Q356 558 323 539.50Q290 521 268 493Q246 465 235 429Q224 393 224 349Q224 305 235 269.50Q246 234 268 206.50Q290 179 323 160.50Q356 142 400.50 132Q445 122 499 122M496 846L382 760L260 760L407 921L594 921L737 760L613 760L496 846Z"  horiz-adv-x="999" vert-adv-y="1000"  />

      
      <glyph glyph-name="unid6" unicode="&#xd6;" d="M499-11Q415-11 344.50 5Q274 21 220 52Q166 83 128.50 127Q91 171 71.50 227Q52 283 52 349Q52 416 71.50 472Q91 528 128.50 572.50Q166 617 220 648Q274 679 344.50 695Q415 711 499 711Q584 711 654 695Q724 679 778.50 648Q833 617 870.50 572.50Q908 528 927.50 472Q947 416 947 349Q947 283 927.50 227Q908 171 870.50 127Q833 83 778.50 52Q724 21 654 5Q584-11 499-11M499 122Q554 122 598 132Q642 142 675.50 160.50Q709 179 731 206.50Q753 234 764 269.50Q775 305 775 349Q775 393 764 429Q753 465 731 493Q709 521 675.50 539.50Q642 558 598 568Q554 578 499 578Q445 578 400.50 568Q356 558 323 539.50Q290 521 268 493Q246 465 235 429Q224 393 224 349Q224 305 235 269.50Q246 234 268 206.50Q290 179 323 160.50Q356 142 400.50 132Q445 122 499 122M546 767L546 908L712 908L712 767L546 767M286 767L286 908L452 908L452 767L286 767Z"  horiz-adv-x="999" vert-adv-y="1000"  />

      
      <glyph glyph-name="unid2" unicode="&#xd2;" d="M499-11Q415-11 344.50 5Q274 21 220 52Q166 83 128.50 127Q91 171 71.50 227Q52 283 52 349Q52 416 71.50 472Q91 528 128.50 572.50Q166 617 220 648Q274 679 344.50 695Q415 711 499 711Q584 711 654 695Q724 679 778.50 648Q833 617 870.50 572.50Q908 528 927.50 472Q947 416 947 349Q947 283 927.50 227Q908 171 870.50 127Q833 83 778.50 52Q724 21 654 5Q584-11 499-11M499 122Q554 122 598 132Q642 142 675.50 160.50Q709 179 731 206.50Q753 234 764 269.50Q775 305 775 349Q775 393 764 429Q753 465 731 493Q709 521 675.50 539.50Q642 558 598 568Q554 578 499 578Q445 578 400.50 568Q356 558 323 539.50Q290 521 268 493Q246 465 235 429Q224 393 224 349Q224 305 235 269.50Q246 234 268 206.50Q290 179 323 160.50Q356 142 400.50 132Q445 122 499 122M564 760L431 760L231 921L437 921L564 760Z"  horiz-adv-x="999" vert-adv-y="1000"  />

      
      <glyph glyph-name="unid5" unicode="&#xd5;" d="M499-11Q415-11 344.50 5Q274 21 220 52Q166 83 128.50 127Q91 171 71.50 227Q52 283 52 349Q52 416 71.50 472Q91 528 128.50 572.50Q166 617 220 648Q274 679 344.50 695Q415 711 499 711Q584 711 654 695Q724 679 778.50 648Q833 617 870.50 572.50Q908 528 927.50 472Q947 416 947 349Q947 283 927.50 227Q908 171 870.50 127Q833 83 778.50 52Q724 21 654 5Q584-11 499-11M499 122Q554 122 598 132Q642 142 675.50 160.50Q709 179 731 206.50Q753 234 764 269.50Q775 305 775 349Q775 393 764 429Q753 465 731 493Q709 521 675.50 539.50Q642 558 598 568Q554 578 499 578Q445 578 400.50 568Q356 558 323 539.50Q290 521 268 493Q246 465 235 429Q224 393 224 349Q224 305 235 269.50Q246 234 268 206.50Q290 179 323 160.50Q356 142 400.50 132Q445 122 499 122M704 921Q710 861 697.50 824Q685 787 659 770Q633 753 595 753Q571 753 550.50 760Q530 767 512.50 778Q495 789 480 799.50Q465 810 451.50 817.50Q438 825 423 825Q412 825 404 818.50Q396 812 392.50 798Q389 784 392 762L290 762Q285 823 297.50 861Q310 899 337.50 916Q365 933 403 933Q426 933 446 925.50Q466 918 483 907Q500 896 515.50 885Q531 874 545 866Q559 858 572 858Q581 858 587.50 862Q594 866 598 873.50Q602 881 603 892.50Q604 904 602 921L704 921Z"  horiz-adv-x="999" vert-adv-y="1000"  />

      
      <glyph glyph-name="uni014E" unicode="&#x014E;" d="M499-11Q415-11 344.50 5Q274 21 220 52Q166 83 128.50 127Q91 171 71.50 227Q52 283 52 349Q52 416 71.50 472Q91 528 128.50 572.50Q166 617 220 648Q274 679 344.50 695Q415 711 499 711Q584 711 654 695Q724 679 778.50 648Q833 617 870.50 572.50Q908 528 927.50 472Q947 416 947 349Q947 283 927.50 227Q908 171 870.50 127Q833 83 778.50 52Q724 21 654 5Q584-11 499-11M499 122Q554 122 598 132Q642 142 675.50 160.50Q709 179 731 206.50Q753 234 764 269.50Q775 305 775 349Q775 393 764 429Q753 465 731 493Q709 521 675.50 539.50Q642 558 598 568Q554 578 499 578Q445 578 400.50 568Q356 558 323 539.50Q290 521 268 493Q246 465 235 429Q224 393 224 349Q224 305 235 269.50Q246 234 268 206.50Q290 179 323 160.50Q356 142 400.50 132Q445 122 499 122M583 918L706 918Q706 863 683 826.50Q660 790 614.50 772Q569 754 500 754Q431 754 384.50 772Q338 790 315 826.50Q292 863 292 918L414 918Q414 878 436 860Q458 842 500 842Q541 842 562 860Q583 878 583 918Z"  horiz-adv-x="999" vert-adv-y="1000"  />

      
      <glyph glyph-name="uni0150" unicode="&#x0150;" d="M499-11Q415-11 344.50 5Q274 21 220 52Q166 83 128.50 127Q91 171 71.50 227Q52 283 52 349Q52 416 71.50 472Q91 528 128.50 572.50Q166 617 220 648Q274 679 344.50 695Q415 711 499 711Q584 711 654 695Q724 679 778.50 648Q833 617 870.50 572.50Q908 528 927.50 472Q947 416 947 349Q947 283 927.50 227Q908 171 870.50 127Q833 83 778.50 52Q724 21 654 5Q584-11 499-11M499 122Q554 122 598 132Q642 142 675.50 160.50Q709 179 731 206.50Q753 234 764 269.50Q775 305 775 349Q775 393 764 429Q753 465 731 493Q709 521 675.50 539.50Q642 558 598 568Q554 578 499 578Q445 578 400.50 568Q356 558 323 539.50Q290 521 268 493Q246 465 235 429Q224 393 224 349Q224 305 235 269.50Q246 234 268 206.50Q290 179 323 160.50Q356 142 400.50 132Q445 122 499 122M314 760L404 921L579 921L436 760L314 760M544 760L634 921L808 921L665 760L544 760Z"  horiz-adv-x="999" vert-adv-y="1000"  />

      
      <glyph glyph-name="uni014C" unicode="&#x014C;" d="M499-11Q415-11 344.50 5Q274 21 220 52Q166 83 128.50 127Q91 171 71.50 227Q52 283 52 349Q52 416 71.50 472Q91 528 128.50 572.50Q166 617 220 648Q274 679 344.50 695Q415 711 499 711Q584 711 654 695Q724 679 778.50 648Q833 617 870.50 572.50Q908 528 927.50 472Q947 416 947 349Q947 283 927.50 227Q908 171 870.50 127Q833 83 778.50 52Q724 21 654 5Q584-11 499-11M499 122Q554 122 598 132Q642 142 675.50 160.50Q709 179 731 206.50Q753 234 764 269.50Q775 305 775 349Q775 393 764 429Q753 465 731 493Q709 521 675.50 539.50Q642 558 598 568Q554 578 499 578Q445 578 400.50 568Q356 558 323 539.50Q290 521 268 493Q246 465 235 429Q224 393 224 349Q224 305 235 269.50Q246 234 268 206.50Q290 179 323 160.50Q356 142 400.50 132Q445 122 499 122M296 771L296 878L702 878L702 771L296 771Z"  horiz-adv-x="999" vert-adv-y="1000"  />

      
      <glyph glyph-name="uni0154" unicode="&#x0154;" d="M105 0L105 700L581 700Q643 700 691.50 684.50Q740 669 772.50 640Q805 611 822.50 569.50Q840 528 840 476Q840 410 809 361Q778 312 721 285Q680 266 626 260L867 0L658 0L435 246L274 246L274 0L105 0M274 572L274 374L551 374Q581 374 603 380.50Q625 387 640.50 399.50Q656 412 663.50 430.50Q671 449 671 473Q671 497 663.50 515.50Q656 534 641 546.50Q626 559 603.50 565.50Q581 572 551 572L274 572M388 760L516 921L722 921L521 760L388 760Z"  horiz-adv-x="908" vert-adv-y="1000"  />

      
      <glyph glyph-name="uni0158" unicode="&#x0158;" d="M105 0L105 700L581 700Q643 700 691.50 684.50Q740 669 772.50 640Q805 611 822.50 569.50Q840 528 840 476Q840 410 809 361Q778 312 721 285Q680 266 626 260L867 0L658 0L435 246L274 246L274 0L105 0M274 572L274 374L551 374Q581 374 603 380.50Q625 387 640.50 399.50Q656 412 663.50 430.50Q671 449 671 473Q671 497 663.50 515.50Q656 534 641 546.50Q626 559 603.50 565.50Q581 572 551 572L274 572M457 835L571 921L692 921L546 760L359 760L215 921L340 921L457 835Z"  horiz-adv-x="908" vert-adv-y="1000"  />

      
      <glyph glyph-name="uni0156" unicode="&#x0156;" d="M105 0L105 700L581 700Q643 700 691.50 684.50Q740 669 772.50 640Q805 611 822.50 569.50Q840 528 840 476Q840 410 809 361Q778 312 721 285Q680 266 626 260L867 0L658 0L435 246L274 246L274 0L105 0M274 572L274 374L551 374Q581 374 603 380.50Q625 387 640.50 399.50Q656 412 663.50 430.50Q671 449 671 473Q671 497 663.50 515.50Q656 534 641 546.50Q626 559 603.50 565.50Q581 572 551 572L274 572M282-205L360-60L547-60L406-205L282-205Z"  horiz-adv-x="908" vert-adv-y="1000"  />

      
      <glyph glyph-name="uni0160" unicode="&#x0160;" d="M42 213L213 237Q222 197 251.50 169.50Q281 142 331 128.50Q381 115 452 115Q511 115 553.50 120.50Q596 126 622.50 136.50Q649 147 661 162Q673 177 673 197Q673 222 659.50 238Q646 254 612.50 263.50Q579 273 519 279L327 292Q261 298 211.50 313.50Q162 329 129.50 353.50Q97 378 80.50 412Q64 446 64 491Q64 542 88.50 582.50Q113 623 161 652Q209 681 279 696Q349 711 441 711Q557 711 637.50 687.50Q718 664 765 617.50Q812 571 827 501L656 476Q642 532 590.50 558.50Q539 585 438 585Q383 585 344 579.50Q305 574 281 564Q257 554 246 539Q235 524 235 506Q235 481 249.50 466Q264 451 296 442Q328 433 382 427L578 414Q669 405 728 381Q787 357 815.50 315.50Q844 274 844 213Q844 160 820 118.50Q796 77 746.50 48Q697 19 623 4Q549-11 449-11Q358-11 287.50 2.50Q217 16 166.50 43.50Q116 71 85 113.50Q54 156 42 213M445 835L559 921L680 921L534 760L347 760L203 921L328 921L445 835Z"  horiz-adv-x="892" vert-adv-y="1000"  />

      
      <glyph glyph-name="uni015A" unicode="&#x015A;" d="M42 213L213 237Q222 197 251.50 169.50Q281 142 331 128.50Q381 115 452 115Q511 115 553.50 120.50Q596 126 622.50 136.50Q649 147 661 162Q673 177 673 197Q673 222 659.50 238Q646 254 612.50 263.50Q579 273 519 279L327 292Q261 298 211.50 313.50Q162 329 129.50 353.50Q97 378 80.50 412Q64 446 64 491Q64 542 88.50 582.50Q113 623 161 652Q209 681 279 696Q349 711 441 711Q557 711 637.50 687.50Q718 664 765 617.50Q812 571 827 501L656 476Q642 532 590.50 558.50Q539 585 438 585Q383 585 344 579.50Q305 574 281 564Q257 554 246 539Q235 524 235 506Q235 481 249.50 466Q264 451 296 442Q328 433 382 427L578 414Q669 405 728 381Q787 357 815.50 315.50Q844 274 844 213Q844 160 820 118.50Q796 77 746.50 48Q697 19 623 4Q549-11 449-11Q358-11 287.50 2.50Q217 16 166.50 43.50Q116 71 85 113.50Q54 156 42 213M376 760L504 921L710 921L509 760L376 760Z"  horiz-adv-x="892" vert-adv-y="1000"  />

      
      <glyph glyph-name="uni015E" unicode="&#x015E;" d="M42 213L213 237Q222 197 251.50 169.50Q281 142 331 128.50Q381 115 452 115Q511 115 553.50 120.50Q596 126 622.50 136.50Q649 147 661 162Q673 177 673 197Q673 222 659.50 238Q646 254 612.50 263.50Q579 273 519 279L327 292Q261 298 211.50 313.50Q162 329 129.50 353.50Q97 378 80.50 412Q64 446 64 491Q64 542 88.50 582.50Q113 623 161 652Q209 681 279 696Q349 711 441 711Q557 711 637.50 687.50Q718 664 765 617.50Q812 571 827 501L656 476Q642 532 590.50 558.50Q539 585 438 585Q383 585 344 579.50Q305 574 281 564Q257 554 246 539Q235 524 235 506Q235 481 249.50 466Q264 451 296 442Q328 433 382 427L578 414Q669 405 728 381Q787 357 815.50 315.50Q844 274 844 213Q844 160 820 118.50Q796 77 746.50 48Q697 19 623 4Q566-7 495-10L490-44Q492-44 495-43Q521-37 549-37Q608-37 636.50-59Q665-81 665-119Q665-150 646.50-171Q628-192 587-203Q546-214 480-214Q445-214 406.50-210Q368-206 330-198L334-130Q376-137 406.50-140.50Q437-144 461-144Q492-144 508.50-141Q525-138 532-132Q539-126 539-117Q539-107 530.50-101Q522-95 503-95Q493-95 482-98Q471-101 461-106L382-97L395-10Q337-7 288 3Q217 16 166.50 43.50Q116 71 85 113.50Q54 156 42 213Z"  horiz-adv-x="892" vert-adv-y="1000"  />

      
      <glyph glyph-name="uni015C" unicode="&#x015C;" d="M42 213L213 237Q222 197 251.50 169.50Q281 142 331 128.50Q381 115 452 115Q511 115 553.50 120.50Q596 126 622.50 136.50Q649 147 661 162Q673 177 673 197Q673 222 659.50 238Q646 254 612.50 263.50Q579 273 519 279L327 292Q261 298 211.50 313.50Q162 329 129.50 353.50Q97 378 80.50 412Q64 446 64 491Q64 542 88.50 582.50Q113 623 161 652Q209 681 279 696Q349 711 441 711Q557 711 637.50 687.50Q718 664 765 617.50Q812 571 827 501L656 476Q642 532 590.50 558.50Q539 585 438 585Q383 585 344 579.50Q305 574 281 564Q257 554 246 539Q235 524 235 506Q235 481 249.50 466Q264 451 296 442Q328 433 382 427L578 414Q669 405 728 381Q787 357 815.50 315.50Q844 274 844 213Q844 160 820 118.50Q796 77 746.50 48Q697 19 623 4Q549-11 449-11Q358-11 287.50 2.50Q217 16 166.50 43.50Q116 71 85 113.50Q54 156 42 213M439 846L325 760L203 760L350 921L537 921L680 760L556 760L439 846Z"  horiz-adv-x="892" vert-adv-y="1000"  />

      
      <glyph glyph-name="uni0218" unicode="&#x0218;" d="M42 213L213 237Q222 197 251.50 169.50Q281 142 331 128.50Q381 115 452 115Q511 115 553.50 120.50Q596 126 622.50 136.50Q649 147 661 162Q673 177 673 197Q673 222 659.50 238Q646 254 612.50 263.50Q579 273 519 279L327 292Q261 298 211.50 313.50Q162 329 129.50 353.50Q97 378 80.50 412Q64 446 64 491Q64 542 88.50 582.50Q113 623 161 652Q209 681 279 696Q349 711 441 711Q557 711 637.50 687.50Q718 664 765 617.50Q812 571 827 501L656 476Q642 532 590.50 558.50Q539 585 438 585Q383 585 344 579.50Q305 574 281 564Q257 554 246 539Q235 524 235 506Q235 481 249.50 466Q264 451 296 442Q328 433 382 427L578 414Q669 405 728 381Q787 357 815.50 315.50Q844 274 844 213Q844 160 820 118.50Q796 77 746.50 48Q697 19 623 4Q549-11 449-11Q358-11 287.50 2.50Q217 16 166.50 43.50Q116 71 85 113.50Q54 156 42 213M274-205L352-60L539-60L398-205L274-205Z"  horiz-adv-x="892" vert-adv-y="1000"  />

      
      <glyph glyph-name="uni0166" unicode="&#x0166;" d="M168 291L168 367L332 367L332 567L27 567L27 700L809 700L809 567L501 567L501 367L665 367L665 291L501 291L501 0L332 0L332 291L168 291Z"  horiz-adv-x="835" vert-adv-y="1000"  />

      
      <glyph glyph-name="uni0164" unicode="&#x0164;" d="M332 0L332 567L27 567L27 700L809 700L809 567L501 567L501 0L332 0M421 835L535 921L656 921L510 760L323 760L179 921L304 921L421 835Z"  horiz-adv-x="835" vert-adv-y="1000"  />

      
      <glyph glyph-name="uni0162" unicode="&#x0162;" d="M332 0L332 567L27 567L27 700L809 700L809 567L501 567L501 0L332 0M243-205L321-60L508-60L367-205L243-205Z"  horiz-adv-x="835" vert-adv-y="1000"  />

      
      <glyph glyph-name="uni021A" unicode="&#x021A;" d="M332 0L332 567L27 567L27 700L809 700L809 567L501 567L501 0L332 0M243-205L321-60L508-60L367-205L243-205Z"  horiz-adv-x="835" vert-adv-y="1000"  />

      
      <glyph glyph-name="unida" unicode="&#xda;" d="M870 313Q870 236 843.50 175.50Q817 115 767 73.50Q717 32 644.50 10.50Q572-11 479-11Q386-11 313.50 10.50Q241 32 190.50 73.50Q140 115 114 175.50Q88 236 88 313L88 700L257 700L257 314Q257 250 282 207.50Q307 165 356.50 143.50Q406 122 478 122Q534 122 575.50 134Q617 146 645 170.50Q673 195 687 230.50Q701 266 701 314L701 700L870 700L870 313M413 760L541 921L747 921L546 760L413 760Z"  horiz-adv-x="958" vert-adv-y="1000"  />

      
      <glyph glyph-name="unidb" unicode="&#xdb;" d="M870 313Q870 236 843.50 175.50Q817 115 767 73.50Q717 32 644.50 10.50Q572-11 479-11Q386-11 313.50 10.50Q241 32 190.50 73.50Q140 115 114 175.50Q88 236 88 313L88 700L257 700L257 314Q257 250 282 207.50Q307 165 356.50 143.50Q406 122 478 122Q534 122 575.50 134Q617 146 645 170.50Q673 195 687 230.50Q701 266 701 314L701 700L870 700L870 313M476 846L362 760L240 760L387 921L574 921L717 760L593 760L476 846Z"  horiz-adv-x="958" vert-adv-y="1000"  />

      
      <glyph glyph-name="unidc" unicode="&#xdc;" d="M870 313Q870 236 843.50 175.50Q817 115 767 73.50Q717 32 644.50 10.50Q572-11 479-11Q386-11 313.50 10.50Q241 32 190.50 73.50Q140 115 114 175.50Q88 236 88 313L88 700L257 700L257 314Q257 250 282 207.50Q307 165 356.50 143.50Q406 122 478 122Q534 122 575.50 134Q617 146 645 170.50Q673 195 687 230.50Q701 266 701 314L701 700L870 700L870 313M526 767L526 908L692 908L692 767L526 767M266 767L266 908L432 908L432 767L266 767Z"  horiz-adv-x="958" vert-adv-y="1000"  />

      
      <glyph glyph-name="unid9" unicode="&#xd9;" d="M870 313Q870 236 843.50 175.50Q817 115 767 73.50Q717 32 644.50 10.50Q572-11 479-11Q386-11 313.50 10.50Q241 32 190.50 73.50Q140 115 114 175.50Q88 236 88 313L88 700L257 700L257 314Q257 250 282 207.50Q307 165 356.50 143.50Q406 122 478 122Q534 122 575.50 134Q617 146 645 170.50Q673 195 687 230.50Q701 266 701 314L701 700L870 700L870 313M545 760L412 760L212 921L418 921L545 760Z"  horiz-adv-x="958" vert-adv-y="1000"  />

      
      <glyph glyph-name="uni016C" unicode="&#x016C;" d="M870 313Q870 236 843.50 175.50Q817 115 767 73.50Q717 32 644.50 10.50Q572-11 479-11Q386-11 313.50 10.50Q241 32 190.50 73.50Q140 115 114 175.50Q88 236 88 313L88 700L257 700L257 314Q257 250 282 207.50Q307 165 356.50 143.50Q406 122 478 122Q534 122 575.50 134Q617 146 645 170.50Q673 195 687 230.50Q701 266 701 314L701 700L870 700L870 313M563 918L686 918Q686 863 663 826.50Q640 790 594.50 772Q549 754 480 754Q411 754 364.50 772Q318 790 295 826.50Q272 863 272 918L394 918Q394 878 416 860Q438 842 480 842Q521 842 542 860Q563 878 563 918Z"  horiz-adv-x="958" vert-adv-y="1000"  />

      
      <glyph glyph-name="uni0170" unicode="&#x0170;" d="M870 313Q870 236 843.50 175.50Q817 115 767 73.50Q717 32 644.50 10.50Q572-11 479-11Q386-11 313.50 10.50Q241 32 190.50 73.50Q140 115 114 175.50Q88 236 88 313L88 700L257 700L257 314Q257 250 282 207.50Q307 165 356.50 143.50Q406 122 478 122Q534 122 575.50 134Q617 146 645 170.50Q673 195 687 230.50Q701 266 701 314L701 700L870 700L870 313M293 760L383 921L558 921L415 760L293 760M523 760L613 921L787 921L644 760L523 760Z"  horiz-adv-x="958" vert-adv-y="1000"  />

      
      <glyph glyph-name="uni016A" unicode="&#x016A;" d="M870 313Q870 236 843.50 175.50Q817 115 767 73.50Q717 32 644.50 10.50Q572-11 479-11Q386-11 313.50 10.50Q241 32 190.50 73.50Q140 115 114 175.50Q88 236 88 313L88 700L257 700L257 314Q257 250 282 207.50Q307 165 356.50 143.50Q406 122 478 122Q534 122 575.50 134Q617 146 645 170.50Q673 195 687 230.50Q701 266 701 314L701 700L870 700L870 313M276 771L276 878L682 878L682 771L276 771Z"  horiz-adv-x="958" vert-adv-y="1000"  />

      
      <glyph glyph-name="uni0172" unicode="&#x0172;" d="M526-214Q452-214 412.50-187.50Q373-161 373-110Q373-82 385-59.50Q397-37 422-18Q428-14 435-10Q339-4 267 27Q180 65 134 137.50Q88 210 88 313L88 700L256 700L256 314Q256 251 281.50 208Q307 165 356.50 143.50Q406 122 478 122Q552 122 601.50 143.50Q651 165 676 208Q701 251 701 314L701 700L870 700L870 313Q870 247 850 192.50Q830 138 792 98Q754 58 698 32Q675 21 651.50 12Q628 3 605.50-4Q583-11 564-18Q545-25 530.50-32Q516-39 507.50-47.50Q499-56 499-68Q499-84 512.50-91.50Q526-99 554-99Q576-99 598.50-95.50Q621-92 647-84L644-197Q619-205 588.50-209.50Q558-214 526-214Z"  horiz-adv-x="958" vert-adv-y="1000"  />

      
      <glyph glyph-name="uni016E" unicode="&#x016E;" d="M870 313Q870 236 843.50 175.50Q817 115 767 73.50Q717 32 644.50 10.50Q572-11 479-11Q386-11 313.50 10.50Q241 32 190.50 73.50Q140 115 114 175.50Q88 236 88 313L88 700L257 700L257 314Q257 250 282 207.50Q307 165 356.50 143.50Q406 122 478 122Q534 122 575.50 134Q617 146 645 170.50Q673 195 687 230.50Q701 266 701 314L701 700L870 700L870 313M480 746Q432 746 397.50 760Q363 774 344 800.50Q325 827 325 863Q325 900 344 925.50Q363 951 397.50 965Q432 979 480 979Q528 979 562 965Q596 951 614 925.50Q632 900 632 864Q632 828 614 801Q596 774 562 760Q528 746 480 746M480 812Q515 812 532.50 826Q550 840 550 864Q550 887 532.50 900Q515 913 480 913Q444 913 426 900Q408 887 408 864Q408 840 426 826Q444 812 480 812Z"  horiz-adv-x="958" vert-adv-y="1000"  />

      
      <glyph glyph-name="uni0168" unicode="&#x0168;" d="M870 313Q870 236 843.50 175.50Q817 115 767 73.50Q717 32 644.50 10.50Q572-11 479-11Q386-11 313.50 10.50Q241 32 190.50 73.50Q140 115 114 175.50Q88 236 88 313L88 700L257 700L257 314Q257 250 282 207.50Q307 165 356.50 143.50Q406 122 478 122Q534 122 575.50 134Q617 146 645 170.50Q673 195 687 230.50Q701 266 701 314L701 700L870 700L870 313M684 921Q690 861 677.50 824Q665 787 639 770Q613 753 575 753Q551 753 530.50 760Q510 767 492.50 778Q475 789 460 799.50Q445 810 431.50 817.50Q418 825 403 825Q392 825 384 818.50Q376 812 372.50 798Q369 784 372 762L270 762Q265 823 277.50 861Q290 899 317.50 916Q345 933 383 933Q406 933 426 925.50Q446 918 463 907Q480 896 495.50 885Q511 874 525 866Q539 858 552 858Q561 858 567.50 862Q574 866 578 873.50Q582 881 583 892.50Q584 904 582 921L684 921Z"  horiz-adv-x="958" vert-adv-y="1000"  />

      
      <glyph glyph-name="uni1E82" unicode="&#x1E82;" d="M274 0L9 700L189 700L366 192L563 700L724 700L924 194L1100 700L1277 700L1012 0L848 0L641 513L435 0L274 0M578 760L706 921L912 921L711 760L578 760Z"  horiz-adv-x="1286" vert-adv-y="1000"  />

      
      <glyph glyph-name="uni0174" unicode="&#x0174;" d="M274 0L9 700L189 700L366 192L563 700L724 700L924 194L1100 700L1277 700L1012 0L848 0L641 513L435 0L274 0M641 846L527 760L405 760L552 921L739 921L882 760L758 760L641 846Z"  horiz-adv-x="1286" vert-adv-y="1000"  />

      
      <glyph glyph-name="uni1E84" unicode="&#x1E84;" d="M274 0L9 700L189 700L366 192L563 700L724 700L924 194L1100 700L1277 700L1012 0L848 0L641 513L435 0L274 0M691 767L691 908L857 908L857 767L691 767M431 767L431 908L597 908L597 767L431 767Z"  horiz-adv-x="1286" vert-adv-y="1000"  />

      
      <glyph glyph-name="uni1E80" unicode="&#x1E80;" d="M274 0L9 700L189 700L366 192L563 700L724 700L924 194L1100 700L1277 700L1012 0L848 0L641 513L435 0L274 0M709 760L576 760L376 921L582 921L709 760Z"  horiz-adv-x="1286" vert-adv-y="1000"  />

      
      <glyph glyph-name="unidd" unicode="&#xdd;" d="M332 0L332 275L0 700L207 700L421 415L638 700L835 700L501 272L501 0L332 0M351 760L479 921L685 921L484 760L351 760Z"  horiz-adv-x="835" vert-adv-y="1000"  />

      
      <glyph glyph-name="uni0178" unicode="&#x0178;" d="M332 0L332 275L0 700L207 700L421 415L638 700L835 700L501 272L501 0L332 0M464 767L464 908L630 908L630 767L464 767M204 767L204 908L370 908L370 767L204 767Z"  horiz-adv-x="835" vert-adv-y="1000"  />

      
      <glyph glyph-name="uni0176" unicode="&#x0176;" d="M332 0L332 275L0 700L207 700L421 415L638 700L835 700L501 272L501 0L332 0M414 846L300 760L178 760L325 921L512 921L655 760L531 760L414 846Z"  horiz-adv-x="835" vert-adv-y="1000"  />

      
      <glyph glyph-name="uni1EF2" unicode="&#x1EF2;" d="M332 0L332 275L0 700L207 700L421 415L638 700L835 700L501 272L501 0L332 0M482 760L349 760L149 921L355 921L482 760Z"  horiz-adv-x="835" vert-adv-y="1000"  />

      
      <glyph glyph-name="uni017D" unicode="&#x017D;" d="M51 569L51 700L779 700L779 577L275 131L779 131L779 0L48 0L48 126L545 569L51 569M416 835L530 921L651 921L505 760L318 760L174 921L299 921L416 835Z"  horiz-adv-x="826" vert-adv-y="1000"  />

      
      <glyph glyph-name="uni0179" unicode="&#x0179;" d="M51 569L51 700L779 700L779 577L275 131L779 131L779 0L48 0L48 126L545 569L51 569M341 760L469 921L675 921L474 760L341 760Z"  horiz-adv-x="826" vert-adv-y="1000"  />

      
      <glyph glyph-name="uni017B" unicode="&#x017B;" d="M51 569L51 700L779 700L779 577L275 131L779 131L779 0L48 0L48 126L545 569L51 569M332 767L332 917L494 917L494 767L332 767Z"  horiz-adv-x="826" vert-adv-y="1000"  />

      
      <glyph glyph-name="unie1" unicode="&#xe1;" d="M51 384Q63 428 88.50 461Q114 494 154 515.50Q194 537 248.50 548Q303 559 373 559Q453 559 511.50 546.50Q570 534 607.50 508Q645 482 663 442.50Q681 403 681 348L681 147Q681 133 685 124Q689 115 697 110.50Q705 106 718 106Q724 106 730 106.50Q736 107 741 108L738 1Q721-4 701.50-7Q682-10 664-10Q620-10 591 4.50Q562 19 548 47Q538 68 535 95Q527 86 519 78Q489 50 450 30Q411 10 363.50-0.50Q316-11 263-11Q190-11 138 8.50Q86 28 59 64.50Q32 101 32 152Q32 203 58 238.50Q84 274 139 294.50Q194 315 281 322L531 340Q531 366 522 386Q513 406 494 419Q475 432 444 438.50Q413 445 370 445Q319 445 284 436Q249 427 230 408Q211 389 206 359L51 384M534 246L277 226Q247 224 227 216Q207 208 197 194.50Q187 181 187 162Q187 142 198.50 128Q210 114 234.50 107Q259 100 296 100Q336 100 371.50 107Q407 114 436.50 126Q466 138 488 155Q510 172 522 192.50Q534 213 534 237L534 246M323 608L451 769L657 769L456 608L323 608Z"  horiz-adv-x="767" vert-adv-y="1000"  />

      
      <glyph glyph-name="unie2" unicode="&#xe2;" d="M51 384Q63 428 88.50 461Q114 494 154 515.50Q194 537 248.50 548Q303 559 373 559Q453 559 511.50 546.50Q570 534 607.50 508Q645 482 663 442.50Q681 403 681 348L681 147Q681 133 685 124Q689 115 697 110.50Q705 106 718 106Q724 106 730 106.50Q736 107 741 108L738 1Q721-4 701.50-7Q682-10 664-10Q620-10 591 4.50Q562 19 548 47Q538 68 535 95Q527 86 519 78Q489 50 450 30Q411 10 363.50-0.50Q316-11 263-11Q190-11 138 8.50Q86 28 59 64.50Q32 101 32 152Q32 203 58 238.50Q84 274 139 294.50Q194 315 281 322L531 340Q531 366 522 386Q513 406 494 419Q475 432 444 438.50Q413 445 370 445Q319 445 284 436Q249 427 230 408Q211 389 206 359L51 384M534 246L277 226Q247 224 227 216Q207 208 197 194.50Q187 181 187 162Q187 142 198.50 128Q210 114 234.50 107Q259 100 296 100Q336 100 371.50 107Q407 114 436.50 126Q466 138 488 155Q510 172 522 192.50Q534 213 534 237L534 246M386 694L272 608L150 608L297 769L484 769L627 608L503 608L386 694Z"  horiz-adv-x="767" vert-adv-y="1000"  />

      
      <glyph glyph-name="unie4" unicode="&#xe4;" d="M51 384Q63 428 88.50 461Q114 494 154 515.50Q194 537 248.50 548Q303 559 373 559Q453 559 511.50 546.50Q570 534 607.50 508Q645 482 663 442.50Q681 403 681 348L681 147Q681 133 685 124Q689 115 697 110.50Q705 106 718 106Q724 106 730 106.50Q736 107 741 108L738 1Q721-4 701.50-7Q682-10 664-10Q620-10 591 4.50Q562 19 548 47Q538 68 535 95Q527 86 519 78Q489 50 450 30Q411 10 363.50-0.50Q316-11 263-11Q190-11 138 8.50Q86 28 59 64.50Q32 101 32 152Q32 203 58 238.50Q84 274 139 294.50Q194 315 281 322L531 340Q531 366 522 386Q513 406 494 419Q475 432 444 438.50Q413 445 370 445Q319 445 284 436Q249 427 230 408Q211 389 206 359L51 384M534 246L277 226Q247 224 227 216Q207 208 197 194.50Q187 181 187 162Q187 142 198.50 128Q210 114 234.50 107Q259 100 296 100Q336 100 371.50 107Q407 114 436.50 126Q466 138 488 155Q510 172 522 192.50Q534 213 534 237L534 246M436 615L436 756L602 756L602 615L436 615M176 615L176 756L342 756L342 615L176 615Z"  horiz-adv-x="767" vert-adv-y="1000"  />

      
      <glyph glyph-name="unie0" unicode="&#xe0;" d="M51 384Q63 428 88.50 461Q114 494 154 515.50Q194 537 248.50 548Q303 559 373 559Q453 559 511.50 546.50Q570 534 607.50 508Q645 482 663 442.50Q681 403 681 348L681 147Q681 133 685 124Q689 115 697 110.50Q705 106 718 106Q724 106 730 106.50Q736 107 741 108L738 1Q721-4 701.50-7Q682-10 664-10Q620-10 591 4.50Q562 19 548 47Q538 68 535 95Q527 86 519 78Q489 50 450 30Q411 10 363.50-0.50Q316-11 263-11Q190-11 138 8.50Q86 28 59 64.50Q32 101 32 152Q32 203 58 238.50Q84 274 139 294.50Q194 315 281 322L531 340Q531 366 522 386Q513 406 494 419Q475 432 444 438.50Q413 445 370 445Q319 445 284 436Q249 427 230 408Q211 389 206 359L51 384M534 246L277 226Q247 224 227 216Q207 208 197 194.50Q187 181 187 162Q187 142 198.50 128Q210 114 234.50 107Q259 100 296 100Q336 100 371.50 107Q407 114 436.50 126Q466 138 488 155Q510 172 522 192.50Q534 213 534 237L534 246M454 608L321 608L121 769L327 769L454 608Z"  horiz-adv-x="767" vert-adv-y="1000"  />

      
      <glyph glyph-name="unie5" unicode="&#xe5;" d="M51 384Q63 428 88.50 461Q114 494 154 515.50Q194 537 248.50 548Q303 559 373 559Q453 559 511.50 546.50Q570 534 607.50 508Q645 482 663 442.50Q681 403 681 348L681 147Q681 133 685 124Q689 115 697 110.50Q705 106 718 106Q724 106 730 106.50Q736 107 741 108L738 1Q721-4 701.50-7Q682-10 664-10Q620-10 591 4.50Q562 19 548 47Q538 68 535 95Q527 86 519 78Q489 50 450 30Q411 10 363.50-0.50Q316-11 263-11Q190-11 138 8.50Q86 28 59 64.50Q32 101 32 152Q32 203 58 238.50Q84 274 139 294.50Q194 315 281 322L531 340Q531 366 522 386Q513 406 494 419Q475 432 444 438.50Q413 445 370 445Q319 445 284 436Q249 427 230 408Q211 389 206 359L51 384M534 246L277 226Q247 224 227 216Q207 208 197 194.50Q187 181 187 162Q187 142 198.50 128Q210 114 234.50 107Q259 100 296 100Q336 100 371.50 107Q407 114 436.50 126Q466 138 488 155Q510 172 522 192.50Q534 213 534 237L534 246M390 594Q342 594 307.50 608Q273 622 254 648.50Q235 675 235 711Q235 748 254 773.50Q273 799 307.50 813Q342 827 390 827Q438 827 472 813Q506 799 524 773.50Q542 748 542 712Q542 676 524 649Q506 622 472 608Q438 594 390 594M390 660Q425 660 442.50 674Q460 688 460 712Q460 735 442.50 748Q425 761 390 761Q354 761 336 748Q318 735 318 712Q318 688 336 674Q354 660 390 660Z"  horiz-adv-x="767" vert-adv-y="1000"  />

      
      <glyph glyph-name="unie3" unicode="&#xe3;" d="M51 384Q63 428 88.50 461Q114 494 154 515.50Q194 537 248.50 548Q303 559 373 559Q453 559 511.50 546.50Q570 534 607.50 508Q645 482 663 442.50Q681 403 681 348L681 147Q681 133 685 124Q689 115 697 110.50Q705 106 718 106Q724 106 730 106.50Q736 107 741 108L738 1Q721-4 701.50-7Q682-10 664-10Q620-10 591 4.50Q562 19 548 47Q538 68 535 95Q527 86 519 78Q489 50 450 30Q411 10 363.50-0.50Q316-11 263-11Q190-11 138 8.50Q86 28 59 64.50Q32 101 32 152Q32 203 58 238.50Q84 274 139 294.50Q194 315 281 322L531 340Q531 366 522 386Q513 406 494 419Q475 432 444 438.50Q413 445 370 445Q319 445 284 436Q249 427 230 408Q211 389 206 359L51 384M534 246L277 226Q247 224 227 216Q207 208 197 194.50Q187 181 187 162Q187 142 198.50 128Q210 114 234.50 107Q259 100 296 100Q336 100 371.50 107Q407 114 436.50 126Q466 138 488 155Q510 172 522 192.50Q534 213 534 237L534 246M594 769Q600 709 587.50 672Q575 635 549 618Q523 601 485 601Q461 601 440.50 608Q420 615 402.50 626Q385 637 370 647.50Q355 658 341.50 665.50Q328 673 313 673Q302 673 294 666.50Q286 660 282.50 646Q279 632 282 610L180 610Q175 671 187.50 709Q200 747 227.50 764Q255 781 293 781Q316 781 336 773.50Q356 766 373 755Q390 744 405.50 733Q421 722 435 714Q449 706 462 706Q471 706 477.50 710Q484 714 488 721.50Q492 729 493 740.50Q494 752 492 769L594 769Z"  horiz-adv-x="767" vert-adv-y="1000"  />

      
      <glyph glyph-name="uni0103" unicode="&#x0103;" d="M51 384Q63 428 88.50 461Q114 494 154 515.50Q194 537 248.50 548Q303 559 373 559Q453 559 511.50 546.50Q570 534 607.50 508Q645 482 663 442.50Q681 403 681 348L681 147Q681 133 685 124Q689 115 697 110.50Q705 106 718 106Q724 106 730 106.50Q736 107 741 108L738 1Q721-4 701.50-7Q682-10 664-10Q620-10 591 4.50Q562 19 548 47Q538 68 535 95Q527 86 519 78Q489 50 450 30Q411 10 363.50-0.50Q316-11 263-11Q190-11 138 8.50Q86 28 59 64.50Q32 101 32 152Q32 203 58 238.50Q84 274 139 294.50Q194 315 281 322L531 340Q531 366 522 386Q513 406 494 419Q475 432 444 438.50Q413 445 370 445Q319 445 284 436Q249 427 230 408Q211 389 206 359L51 384M534 246L277 226Q247 224 227 216Q207 208 197 194.50Q187 181 187 162Q187 142 198.50 128Q210 114 234.50 107Q259 100 296 100Q336 100 371.50 107Q407 114 436.50 126Q466 138 488 155Q510 172 522 192.50Q534 213 534 237L534 246M473 766L596 766Q596 711 573 674.50Q550 638 504.50 620Q459 602 390 602Q321 602 274.50 620Q228 638 205 674.50Q182 711 182 766L304 766Q304 726 326 708Q348 690 390 690Q431 690 452 708Q473 726 473 766Z"  horiz-adv-x="767" vert-adv-y="1000"  />

      
      <glyph glyph-name="uni0101" unicode="&#x0101;" d="M51 384Q63 428 88.50 461Q114 494 154 515.50Q194 537 248.50 548Q303 559 373 559Q453 559 511.50 546.50Q570 534 607.50 508Q645 482 663 442.50Q681 403 681 348L681 147Q681 133 685 124Q689 115 697 110.50Q705 106 718 106Q724 106 730 106.50Q736 107 741 108L738 1Q721-4 701.50-7Q682-10 664-10Q620-10 591 4.50Q562 19 548 47Q538 68 535 95Q527 86 519 78Q489 50 450 30Q411 10 363.50-0.50Q316-11 263-11Q190-11 138 8.50Q86 28 59 64.50Q32 101 32 152Q32 203 58 238.50Q84 274 139 294.50Q194 315 281 322L531 340Q531 366 522 386Q513 406 494 419Q475 432 444 438.50Q413 445 370 445Q319 445 284 436Q249 427 230 408Q211 389 206 359L51 384M534 246L277 226Q247 224 227 216Q207 208 197 194.50Q187 181 187 162Q187 142 198.50 128Q210 114 234.50 107Q259 100 296 100Q336 100 371.50 107Q407 114 436.50 126Q466 138 488 155Q510 172 522 192.50Q534 213 534 237L534 246M186 619L186 726L592 726L592 619L186 619Z"  horiz-adv-x="767" vert-adv-y="1000"  />

      
      <glyph glyph-name="uni0105" unicode="&#x0105;" d="M574 15Q557 28 548 47Q538 68 535 96Q527 87 518 78Q489 50 449.50 30Q410 10 363-0.50Q316-11 263-11Q190-11 138 8.50Q86 28 59 64.50Q32 101 32 152Q32 203 58 238Q84 273 139 293.50Q194 314 281 320L531 338Q531 366 522 386Q513 406 494.50 419Q476 432 446 438.50Q416 445 373 445Q320 445 284.50 436Q249 427 230 408Q211 389 206 359L51 384Q63 428 88.50 461Q114 494 154 515.50Q194 537 249 548Q304 559 376 559Q455 559 513 546.50Q571 534 608 508Q645 482 663 442.50Q681 403 681 348L681 147Q681 133 685 124Q689 115 697 110.50Q705 106 718 106Q724 106 730 106.50Q736 107 741 108L738 1Q710-8 683.50-15Q657-22 636.50-29Q616-36 604-45.50Q592-55 592-69Q592-84 605.50-91.50Q619-99 648-99Q669-99 692-95.50Q715-92 740-84L736-197Q712-205 681.50-209.50Q651-214 620-214Q545-214 505-187Q465-160 465-107Q465-79 477-56.50Q489-34 515-15Q538 1 574 15M534 237L534 245L277 224Q247 222 227 214Q207 206 197 193Q187 180 187 161Q187 141 198.50 127.50Q210 114 234.50 107Q259 100 296 100Q336 100 371.50 107Q407 114 436.50 126Q466 138 488 155Q510 172 522 192.50Q534 213 534 237Z"  horiz-adv-x="767" vert-adv-y="1000"  />

      
      <glyph glyph-name="unie7" unicode="&#xe7;" d="M749 356L591 327Q583 363 560 387.50Q537 412 499 424.50Q461 437 408 437Q369 437 337.50 430Q306 423 282.50 409.50Q259 396 243.50 376.50Q228 357 220.50 331Q213 305 213 274Q213 243 220.50 217Q228 191 243.50 171.50Q259 152 282.50 138.50Q306 125 337.50 118Q369 111 409 111Q463 111 501.50 123.50Q540 136 563 161Q586 186 593 225L751 195Q735 129 690 82.50Q645 36 574 13Q510-9 427-11L422-44Q424-44 427-43Q453-37 481-37Q540-37 568.50-59Q597-81 597-119Q597-150 578.50-171Q560-192 519-203Q478-214 412-214Q377-214 338.50-210Q300-206 262-198L266-130Q308-137 338.50-140.50Q369-144 393-144Q424-144 440.50-141Q457-138 464-132Q471-126 471-117Q471-107 462.50-101Q454-95 435-95Q425-95 414-98Q403-101 393-106L314-97L328-6Q305-3 284 2Q228 14 184 38.50Q140 63 110 97.50Q80 132 64.50 176.50Q49 221 49 274Q49 327 64.50 371.50Q80 416 110 450.50Q140 485 184 509.50Q228 534 284 546.50Q340 559 408 559Q503 559 573.50 536Q644 513 688.50 467.50Q733 422 749 356Z"  horiz-adv-x="783" vert-adv-y="1000"  />

      
      <glyph glyph-name="uni0107" unicode="&#x0107;" d="M749 356L591 327Q583 363 560 387.50Q537 412 499 424.50Q461 437 408 437Q369 437 337.50 430Q306 423 282.50 409.50Q259 396 243.50 376.50Q228 357 220.50 331Q213 305 213 274Q213 243 220.50 217Q228 191 243.50 171.50Q259 152 282.50 138.50Q306 125 337.50 118Q369 111 409 111Q463 111 501.50 123.50Q540 136 563 161Q586 186 593 225L751 195Q735 129 690 82.50Q645 36 574 12.50Q503-11 409-11Q340-11 284 1.50Q228 14 184 38.50Q140 63 110 97.50Q80 132 64.50 176.50Q49 221 49 274Q49 327 64.50 371.50Q80 416 110 450.50Q140 485 184 509.50Q228 534 284 546.50Q340 559 408 559Q503 559 573.50 536Q644 513 688.50 467.50Q733 422 749 356M325 608L453 769L659 769L458 608L325 608Z"  horiz-adv-x="783" vert-adv-y="1000"  />

      
      <glyph glyph-name="uni010D" unicode="&#x010D;" d="M749 356L591 327Q583 363 560 387.50Q537 412 499 424.50Q461 437 408 437Q369 437 337.50 430Q306 423 282.50 409.50Q259 396 243.50 376.50Q228 357 220.50 331Q213 305 213 274Q213 243 220.50 217Q228 191 243.50 171.50Q259 152 282.50 138.50Q306 125 337.50 118Q369 111 409 111Q463 111 501.50 123.50Q540 136 563 161Q586 186 593 225L751 195Q735 129 690 82.50Q645 36 574 12.50Q503-11 409-11Q340-11 284 1.50Q228 14 184 38.50Q140 63 110 97.50Q80 132 64.50 176.50Q49 221 49 274Q49 327 64.50 371.50Q80 416 110 450.50Q140 485 184 509.50Q228 534 284 546.50Q340 559 408 559Q503 559 573.50 536Q644 513 688.50 467.50Q733 422 749 356M396 683L510 769L631 769L485 608L298 608L154 769L279 769L396 683Z"  horiz-adv-x="783" vert-adv-y="1000"  />

      
      <glyph glyph-name="uni0109" unicode="&#x0109;" d="M749 356L591 327Q583 363 560 387.50Q537 412 499 424.50Q461 437 408 437Q369 437 337.50 430Q306 423 282.50 409.50Q259 396 243.50 376.50Q228 357 220.50 331Q213 305 213 274Q213 243 220.50 217Q228 191 243.50 171.50Q259 152 282.50 138.50Q306 125 337.50 118Q369 111 409 111Q463 111 501.50 123.50Q540 136 563 161Q586 186 593 225L751 195Q735 129 690 82.50Q645 36 574 12.50Q503-11 409-11Q340-11 284 1.50Q228 14 184 38.50Q140 63 110 97.50Q80 132 64.50 176.50Q49 221 49 274Q49 327 64.50 371.50Q80 416 110 450.50Q140 485 184 509.50Q228 534 284 546.50Q340 559 408 559Q503 559 573.50 536Q644 513 688.50 467.50Q733 422 749 356M390 694L276 608L154 608L301 769L488 769L631 608L507 608L390 694Z"  horiz-adv-x="783" vert-adv-y="1000"  />

      
      <glyph glyph-name="uni010B" unicode="&#x010B;" d="M749 356L591 327Q583 363 560 387.50Q537 412 499 424.50Q461 437 408 437Q369 437 337.50 430Q306 423 282.50 409.50Q259 396 243.50 376.50Q228 357 220.50 331Q213 305 213 274Q213 243 220.50 217Q228 191 243.50 171.50Q259 152 282.50 138.50Q306 125 337.50 118Q369 111 409 111Q463 111 501.50 123.50Q540 136 563 161Q586 186 593 225L751 195Q735 129 690 82.50Q645 36 574 12.50Q503-11 409-11Q340-11 284 1.50Q228 14 184 38.50Q140 63 110 97.50Q80 132 64.50 176.50Q49 221 49 274Q49 327 64.50 371.50Q80 416 110 450.50Q140 485 184 509.50Q228 534 284 546.50Q340 559 408 559Q503 559 573.50 536Q644 513 688.50 467.50Q733 422 749 356M313 615L313 765L475 765L475 615L313 615Z"  horiz-adv-x="783" vert-adv-y="1000"  />

      
      <glyph glyph-name="uni010F" unicode="&#x010F;" d="M611 750L771 750L771 0L627 0L617 102Q603 84 586 69Q544 31 486 10Q428-11 357-11Q300-11 251.50 2Q203 15 165.50 39.50Q128 64 102 99Q76 134 62.50 178Q49 222 49 274Q49 326 62.50 370Q76 414 102.50 449Q129 484 166.50 508.50Q204 533 252 546Q300 559 357 559Q428 559 486 538Q544 517 586 479Q600 466 611 453L611 750M407 113Q472 113 517.50 132.50Q563 152 587 188Q611 224 611 274Q611 311 597.50 340.50Q584 370 558 391.50Q532 413 494 424Q456 435 407 435Q369 435 337.50 428Q306 421 283 407.50Q260 394 244 374Q228 354 220.50 329Q213 304 213 274Q213 244 220.50 218.50Q228 193 244 173.50Q260 154 283 140.50Q306 127 337.50 120Q369 113 407 113M860 531L860 750L1019 750L966 531L860 531Z"  horiz-adv-x="966" vert-adv-y="1000"  />

      
      <glyph glyph-name="uni0111" unicode="&#x0111;" d="M422 605L422 680L611 680L611 750L771 750L771 680L857 680L857 605L771 605L771 0L627 0L617 99Q603 82 586 67Q544 30 486 9.50Q428-11 357-11Q300-11 251.50 1.50Q203 14 165.50 38Q128 62 102 95.50Q76 129 62.50 172Q49 215 49 266Q49 316 62.50 359Q76 402 102.50 436Q129 470 166.50 494Q204 518 252 530.50Q300 543 357 543Q428 543 486 522.50Q544 502 586 465Q599 453 611 439L611 605L422 605M407 113Q472 113 517.50 131.50Q563 150 587 184.50Q611 219 611 266Q611 301 597.50 329Q584 357 558 377Q532 397 494 408Q456 419 407 419Q369 419 337.50 412.50Q306 406 283 392.50Q260 379 244 360.50Q228 342 220.50 318Q213 294 213 266Q213 237 220.50 213Q228 189 244 170.50Q260 152 283 139Q306 126 337.50 119.50Q369 113 407 113Z"  horiz-adv-x="861" vert-adv-y="1000"  />

      
      <glyph glyph-name="unie9" unicode="&#xe9;" d="M413-11Q345-11 287.50 2Q230 15 186 39Q142 63 111.50 98Q81 133 65 177.50Q49 222 49 275Q49 326 64.50 369.50Q80 413 110.50 448Q141 483 185 508Q229 533 285 546Q341 559 409 559Q490 559 555 540.50Q620 522 666.50 486.50Q713 451 737.50 401.50Q762 352 762 290Q762 275 761 262Q760 249 757 236L208 236Q209 225 212 216Q221 189 237.50 168.50Q254 148 279 134.50Q304 121 337.50 113.50Q371 106 414 106Q470 106 509 115Q548 124 571.50 142Q595 160 604 185L758 158Q740 102 698 64.50Q656 27 586.50 8Q517-11 413-11M211 330L604 330Q600 351 591 367Q577 393 552 410Q527 427 491.50 435.50Q456 444 411 444Q368 444 334.50 437Q301 430 277 416Q253 402 236.50 382Q220 362 212 335Q211 333 211 330M338 608L466 769L672 769L471 608L338 608Z"  horiz-adv-x="807" vert-adv-y="1000"  />

      
      <glyph glyph-name="uniea" unicode="&#xea;" d="M413-11Q345-11 287.50 2Q230 15 186 39Q142 63 111.50 98Q81 133 65 177.50Q49 222 49 275Q49 326 64.50 369.50Q80 413 110.50 448Q141 483 185 508Q229 533 285 546Q341 559 409 559Q490 559 555 540.50Q620 522 666.50 486.50Q713 451 737.50 401.50Q762 352 762 290Q762 275 761 262Q760 249 757 236L208 236Q209 225 212 216Q221 189 237.50 168.50Q254 148 279 134.50Q304 121 337.50 113.50Q371 106 414 106Q470 106 509 115Q548 124 571.50 142Q595 160 604 185L758 158Q740 102 698 64.50Q656 27 586.50 8Q517-11 413-11M211 330L604 330Q600 351 591 367Q577 393 552 410Q527 427 491.50 435.50Q456 444 411 444Q368 444 334.50 437Q301 430 277 416Q253 402 236.50 382Q220 362 212 335Q211 333 211 330M401 694L287 608L165 608L312 769L499 769L642 608L518 608L401 694Z"  horiz-adv-x="807" vert-adv-y="1000"  />

      
      <glyph glyph-name="unieb" unicode="&#xeb;" d="M413-11Q345-11 287.50 2Q230 15 186 39Q142 63 111.50 98Q81 133 65 177.50Q49 222 49 275Q49 326 64.50 369.50Q80 413 110.50 448Q141 483 185 508Q229 533 285 546Q341 559 409 559Q490 559 555 540.50Q620 522 666.50 486.50Q713 451 737.50 401.50Q762 352 762 290Q762 275 761 262Q760 249 757 236L208 236Q209 225 212 216Q221 189 237.50 168.50Q254 148 279 134.50Q304 121 337.50 113.50Q371 106 414 106Q470 106 509 115Q548 124 571.50 142Q595 160 604 185L758 158Q740 102 698 64.50Q656 27 586.50 8Q517-11 413-11M211 330L604 330Q600 351 591 367Q577 393 552 410Q527 427 491.50 435.50Q456 444 411 444Q368 444 334.50 437Q301 430 277 416Q253 402 236.50 382Q220 362 212 335Q211 333 211 330M451 615L451 756L617 756L617 615L451 615M191 615L191 756L357 756L357 615L191 615Z"  horiz-adv-x="807" vert-adv-y="1000"  />

      
      <glyph glyph-name="unie8" unicode="&#xe8;" d="M413-11Q345-11 287.50 2Q230 15 186 39Q142 63 111.50 98Q81 133 65 177.50Q49 222 49 275Q49 326 64.50 369.50Q80 413 110.50 448Q141 483 185 508Q229 533 285 546Q341 559 409 559Q490 559 555 540.50Q620 522 666.50 486.50Q713 451 737.50 401.50Q762 352 762 290Q762 275 761 262Q760 249 757 236L208 236Q209 225 212 216Q221 189 237.50 168.50Q254 148 279 134.50Q304 121 337.50 113.50Q371 106 414 106Q470 106 509 115Q548 124 571.50 142Q595 160 604 185L758 158Q740 102 698 64.50Q656 27 586.50 8Q517-11 413-11M211 330L604 330Q600 351 591 367Q577 393 552 410Q527 427 491.50 435.50Q456 444 411 444Q368 444 334.50 437Q301 430 277 416Q253 402 236.50 382Q220 362 212 335Q211 333 211 330M469 608L336 608L136 769L342 769L469 608Z"  horiz-adv-x="807" vert-adv-y="1000"  />

      
      </font>
</defs>
</svg>
